<svg width="1143" height="103" fill="none" xmlns="http://www.w3.org/2000/svg"><path fill-rule="evenodd" clip-rule="evenodd" d="M183.771 9.12043e-06C184.522 -0.00180092 185.245 0.265862 185.802 0.750546L222.525 32.7815L241.648 49.1561C242.968 50.2857 242.998 52.2605 241.712 53.4259L228.532 65.387L191.685 101.3C191.12 101.85 190.352 102.16 189.55 102.162L143.99 102.272C141.293 102.278 139.949 99.1331 141.869 97.3127L188.415 53.2065C189.026 52.6277 189.324 51.8626 189.312 51.1017L179.634 41.3112L138.728 5.13172C136.712 3.34799 138.019 0.110606 140.758 0.103957L183.771 9.12043e-06Z" fill="url(#paint0_linear_1530_1205)"/><path fill-rule="evenodd" clip-rule="evenodd" d="M72.1987 74.3886C71.1482 75.5504 71.2267 77.2995 72.3765 78.3703L96.5479 100.872C97.7943 102.032 99.7999 101.942 100.928 100.674L186.27 4.77936C187.944 2.89792 186.551 -0.00623273 183.975 1.00479e-05L140.728 0.104513C139.86 0.106619 139.035 0.469475 138.465 1.09985L72.1987 74.3886Z" fill="url(#paint1_linear_1530_1205)"/><path fill-rule="evenodd" clip-rule="evenodd" d="M23.003 25.7127L48.6102 1.16336C49.1726 0.624228 49.9336 0.320658 50.7279 0.318737L95.3261 0.210948C98.008 0.204446 99.3596 3.32055 97.4677 5.1495L51.7467 49.3563C51.5245 49.5712 51.3443 49.811 51.2067 50.0666L100.633 97.4309C102.533 99.2509 101.197 102.372 98.5163 102.379L95.6577 102.385C95.6372 102.386 95.6171 102.386 95.5966 102.386L55.134 102.484C55.1147 102.484 55.0953 102.484 55.076 102.483L54.3815 102.485C53.5609 102.487 52.7752 102.167 52.2058 101.598L0.842264 50.3004C-0.305988 49.1535 -0.276537 47.3301 0.90824 46.2183L22.1675 26.2676C22.4185 26.0319 22.7017 25.8472 23.003 25.7127Z" fill="url(#paint2_linear_1530_1205)"/><path d="M280.157 101.32H305.666V1.6665H280.157V101.32Z" fill="url(#paint3_linear_1530_1205)"/><path d="M350.012 101.32H375.521V22.5728H407.151V1.6665H318.382V22.5728H350.012V101.32Z" fill="url(#paint4_linear_1530_1205)"/><path d="M446.268 50.8724C446.268 80.1416 468.424 102.999 500.782 102.999C533.142 102.999 555.298 80.1416 555.298 50.8724C555.298 22.3001 533.142 0 500.782 0C468.424 0 446.268 22.3001 446.268 50.8724ZM472.651 50.8724C472.651 34.5653 484.312 22.3001 500.782 22.3001C517.255 22.3001 528.915 34.5653 528.915 50.8724C528.915 67.8764 517.255 80.6989 500.782 80.6989C484.312 80.6989 472.651 67.8764 472.651 50.8724Z" fill="url(#paint5_linear_1530_1205)"/><path d="M594.316 101.313H620.843L657.576 1.65869H630.319L611.66 58.3844C609.62 64.6567 607.725 74.4135 607.725 74.4135H607.434C607.434 74.4135 605.539 64.6567 603.499 58.3844L585.133 1.65869H557.437L594.316 101.313Z" fill="url(#paint6_linear_1530_1205)"/><path d="M667.614 101.313H734.955V80.4065H693.121V61.5897H724.898V40.6835H693.121V22.5649H732.915V1.65869H667.614V101.313Z" fill="url(#paint7_linear_1530_1205)"/><path d="M751.306 101.313H776.814V67.7223H788.766L807.279 101.313H835.702L815.442 66.4681C812.963 62.2866 811.505 60.4751 811.505 60.4751V60.1959C821.854 55.1791 827.102 43.6108 827.102 33.0174C827.102 18.5231 819.668 8.3486 807.862 4.02745C803.343 2.35563 798.242 1.65869 787.6 1.65869H751.306V101.313ZM776.814 46.8161V22.5649H785.414C789.642 22.5649 792.702 22.9826 795.034 23.9588C799.845 25.7702 801.157 29.5341 801.157 34.5508C801.157 42.4949 796.054 46.8161 787.893 46.8161H776.814Z" fill="url(#paint8_linear_1530_1205)"/><path d="M840.429 50.8724C840.429 80.1416 862.586 102.999 894.945 102.999C927.303 102.999 949.46 80.1416 949.46 50.8724C949.46 22.3001 927.303 0 894.945 0C862.586 0 840.429 22.3001 840.429 50.8724ZM866.812 50.8724C866.812 34.5653 878.474 22.3001 894.945 22.3001C911.416 22.3001 923.077 34.5653 923.077 50.8724C923.077 67.8764 911.416 80.6989 894.945 80.6989C878.474 80.6989 866.812 67.8764 866.812 50.8724Z" fill="url(#paint9_linear_1530_1205)"/><path d="M965.686 101.313H991.196V54.8998C991.196 48.6276 990.029 37.8958 990.029 37.8958H990.32C990.32 37.8958 994.985 48.3496 999.066 54.8998L1028.07 101.313H1053.73V1.65869H1028.22V48.2099C1028.22 54.4822 1029.38 65.214 1029.38 65.214H1029.09C1029.09 65.214 1024.43 54.7602 1020.35 48.2099L991.486 1.65869H965.686V101.313Z" fill="url(#paint10_linear_1530_1205)"/><path d="M1075.57 101.313H1142.92V80.4065H1101.08V61.5897H1132.86V40.6835H1101.08V22.5649H1140.88V1.65869H1075.57V101.313Z" fill="url(#paint11_linear_1530_1205)"/><defs><linearGradient id="paint0_linear_1530_1205" x1="148.583" y1="0.085042" x2="217.791" y2="63.1904" gradientUnits="userSpaceOnUse"><stop stop-color="#9228FF"/><stop offset="1" stop-color="#EC40FF"/></linearGradient><linearGradient id="paint1_linear_1530_1205" x1="158.929" y1="0.0605135" x2="77.2605" y2="107.903" gradientUnits="userSpaceOnUse"><stop stop-color="#CD99FF"/><stop offset="1" stop-color="#6D1CBA"/></linearGradient><linearGradient id="paint2_linear_1530_1205" x1="8.52526" y1="38.7923" x2="70.8347" y2="105.484" gradientUnits="userSpaceOnUse"><stop stop-color="#61A3ED"/><stop offset="1" stop-color="#5048D8"/></linearGradient><linearGradient id="paint3_linear_1530_1205" x1="280.157" y1="51.4928" x2="1142.93" y2="51.4928" gradientUnits="userSpaceOnUse"><stop stop-color="#52E5FE"/><stop offset="0.372917" stop-color="#526CFF"/><stop offset="0.617708" stop-color="#C247FC"/><stop offset="1" stop-color="#FFA4FE"/></linearGradient><linearGradient id="paint4_linear_1530_1205" x1="280.164" y1="51.4928" x2="1142.94" y2="51.4928" gradientUnits="userSpaceOnUse"><stop stop-color="#52E5FE"/><stop offset="0.372917" stop-color="#526CFF"/><stop offset="0.617708" stop-color="#C247FC"/><stop offset="1" stop-color="#FFA4FE"/></linearGradient><linearGradient id="paint5_linear_1530_1205" x1="280.142" y1="51.4995" x2="1142.91" y2="51.4995" gradientUnits="userSpaceOnUse"><stop stop-color="#52E5FE"/><stop offset="0.372917" stop-color="#526CFF"/><stop offset="0.617708" stop-color="#C247FC"/><stop offset="1" stop-color="#FFA4FE"/></linearGradient><linearGradient id="paint6_linear_1530_1205" x1="280.14" y1="51.485" x2="1142.91" y2="51.485" gradientUnits="userSpaceOnUse"><stop stop-color="#52E5FE"/><stop offset="0.372917" stop-color="#526CFF"/><stop offset="0.617708" stop-color="#C247FC"/><stop offset="1" stop-color="#FFA4FE"/></linearGradient><linearGradient id="paint7_linear_1530_1205" x1="280.149" y1="51.485" x2="1142.92" y2="51.485" gradientUnits="userSpaceOnUse"><stop stop-color="#52E5FE"/><stop offset="0.372917" stop-color="#526CFF"/><stop offset="0.617708" stop-color="#C247FC"/><stop offset="1" stop-color="#FFA4FE"/></linearGradient><linearGradient id="paint8_linear_1530_1205" x1="280.14" y1="51.485" x2="1142.91" y2="51.485" gradientUnits="userSpaceOnUse"><stop stop-color="#52E5FE"/><stop offset="0.372917" stop-color="#526CFF"/><stop offset="0.617708" stop-color="#C247FC"/><stop offset="1" stop-color="#FFA4FE"/></linearGradient><linearGradient id="paint9_linear_1530_1205" x1="280.149" y1="51.4995" x2="1142.92" y2="51.4995" gradientUnits="userSpaceOnUse"><stop stop-color="#52E5FE"/><stop offset="0.372917" stop-color="#526CFF"/><stop offset="0.617708" stop-color="#C247FC"/><stop offset="1" stop-color="#FFA4FE"/></linearGradient><linearGradient id="paint10_linear_1530_1205" x1="280.15" y1="51.485" x2="1142.92" y2="51.485" gradientUnits="userSpaceOnUse"><stop stop-color="#52E5FE"/><stop offset="0.372917" stop-color="#526CFF"/><stop offset="0.617708" stop-color="#C247FC"/><stop offset="1" stop-color="#FFA4FE"/></linearGradient><linearGradient id="paint11_linear_1530_1205" x1="280.147" y1="51.485" x2="1142.92" y2="51.485" gradientUnits="userSpaceOnUse"><stop stop-color="#52E5FE"/><stop offset="0.372917" stop-color="#526CFF"/><stop offset="0.617708" stop-color="#C247FC"/><stop offset="1" stop-color="#FFA4FE"/></linearGradient></defs></svg>