<svg width="17" height="17" viewBox="0 0 17 17" fill="none" xmlns="http://www.w3.org/2000/svg">
<path d="M7.5 14.3438C7.5 14.896 7.94772 15.3438 8.5 15.3438C9.05229 15.3438 9.5 14.896 9.5 14.3438H7.5ZM9.5 3.1875C9.5 2.63521 9.05228 2.1875 8.5 2.1875C7.94772 2.1875 7.5 2.63521 7.5 3.1875L9.5 3.1875ZM8.5 2.65625L9.20711 1.94914C9.01957 1.76161 8.76522 1.65625 8.5 1.65625C8.23478 1.65625 7.98043 1.76161 7.79289 1.94914L8.5 2.65625ZM12.0429 7.61336C12.4334 8.00388 13.0666 8.00388 13.4571 7.61336C13.8476 7.22283 13.8476 6.58967 13.4571 6.19914L12.0429 7.61336ZM3.54289 6.19914C3.15237 6.58967 3.15237 7.22283 3.54289 7.61336C3.93342 8.00388 4.56658 8.00388 4.95711 7.61336L3.54289 6.19914ZM9.5 14.3438L9.5 3.1875L7.5 3.1875L7.5 14.3438H9.5ZM7.79289 3.36336L12.0429 7.61336L13.4571 6.19914L9.20711 1.94914L7.79289 3.36336ZM7.79289 1.94914L3.54289 6.19914L4.95711 7.61336L9.20711 3.36336L7.79289 1.94914Z" fill="#2E4454"/>
</svg>
