<svg width="16" height="19" viewBox="0 0 16 19" fill="none" xmlns="http://www.w3.org/2000/svg">
<path d="M4.33662 2.5C4.33662 1.5335 4.99257 0.75 5.80174 0.75H10.1971C11.0062 0.75 11.6622 1.5335 11.6622 2.5V4.25H13.1198C13.1243 4.24995 13.1288 4.24995 13.1334 4.25H14.5924C14.997 4.25 15.325 4.64175 15.325 5.125C15.325 5.60825 14.997 6 14.5924 6H13.8094L13.1741 16.6247C13.1193 17.5405 12.4813 18.25 11.7127 18.25H4.28616C3.5175 18.25 2.87953 17.5405 2.82477 16.6247L2.1894 6H1.40639C1.00181 6 0.673828 5.60825 0.673828 5.125C0.673828 4.64175 1.00181 4.25 1.40639 4.25H2.86545C2.87 4.24995 2.87454 4.24995 2.87906 4.25H4.33662V2.5ZM5.80174 4.25H10.1971V2.5H5.80174V4.25ZM3.65825 6L4.28616 16.5H11.7127L12.3406 6H3.65825ZM6.53429 7.75C6.93887 7.75 7.26685 8.14175 7.26685 8.625V13.875C7.26685 14.3583 6.93887 14.75 6.53429 14.75C6.12971 14.75 5.80174 14.3583 5.80174 13.875V8.625C5.80174 8.14175 6.12971 7.75 6.53429 7.75ZM9.46453 7.75C9.86911 7.75 10.1971 8.14175 10.1971 8.625V13.875C10.1971 14.3583 9.86911 14.75 9.46453 14.75C9.05994 14.75 8.73197 14.3583 8.73197 13.875V8.625C8.73197 8.14175 9.05994 7.75 9.46453 7.75Z" fill="#EF4444"/>
</svg>
