<svg width="61" height="29" viewBox="0 0 61 29" fill="none" xmlns="http://www.w3.org/2000/svg">
<path fill-rule="evenodd" clip-rule="evenodd" d="M46.1675 0.7428C46.3561 0.742319 46.5377 0.813546 46.6776 0.942523L55.9018 9.46618L60.7051 13.8236C61.0366 14.1242 61.044 14.6497 60.7212 14.9598L57.4105 18.1427L48.1554 27.6995C48.0136 27.8456 47.8206 27.9282 47.6191 27.9287L36.1753 27.958C35.498 27.9598 35.1603 27.1228 35.6428 26.6383L47.5084 14.7351C47.6882 14.5359 47.6771 14.4585 47.5084 14.2759L45.1284 11.736L34.8538 2.10838C34.3472 1.63372 34.6755 0.772231 35.3637 0.770462L46.1675 0.7428Z" fill="url(#paint0_linear_23_1822)"/>
<path fill-rule="evenodd" clip-rule="evenodd" d="M18.1412 20.5381C17.8773 20.8473 17.897 21.3127 18.1859 21.5977L24.2572 27.5855C24.5703 27.8943 25.074 27.8702 25.3574 27.5329L46.7934 2.01462C47.214 1.51395 46.864 0.741139 46.217 0.742801L35.3544 0.770609C35.1362 0.77117 34.929 0.867728 34.7858 1.03547L18.1412 20.5381Z" fill="url(#paint1_linear_23_1822)"/>
<path fill-rule="evenodd" clip-rule="evenodd" d="M5.568 7.73145L12.2099 1.05105C12.3511 0.907587 12.5423 0.826805 12.7418 0.826294L23.9439 0.79761C24.6176 0.79588 24.957 1.6251 24.4818 2.11179L12.9079 13.9657C12.8249 14.0543 12.8235 14.11 12.9079 14.2119L25.2769 26.6685C25.7541 27.1528 25.4187 27.9833 24.7452 27.9851L24.0272 27.9869C24.0221 27.987 24.017 27.9871 24.0119 27.9871L13.8485 28.0131C13.8436 28.0131 13.8388 28.0131 13.8339 28.013L13.6595 28.0134C13.4534 28.014 13.256 27.9288 13.113 27.7775L0.211559 14.1268C-0.0768579 13.8215 -0.0694603 13.3363 0.228131 13.0405L5.568 7.73145Z" fill="url(#paint2_linear_23_1822)"/>
<defs>
<linearGradient id="paint0_linear_23_1822" x1="37.329" y1="0.765428" x2="55.6179" y2="16.5062" gradientUnits="userSpaceOnUse">
<stop stop-color="#9228FF"/>
<stop offset="1" stop-color="#EC40FF"/>
</linearGradient>
<linearGradient id="paint1_linear_23_1822" x1="39.926" y1="0.758901" x2="17.8851" y2="28.231" gradientUnits="userSpaceOnUse">
<stop stop-color="#CD99FF"/>
<stop offset="1" stop-color="#6D1CBA"/>
</linearGradient>
<linearGradient id="paint2_linear_23_1822" x1="2.14821" y1="11.0647" x2="18.7666" y2="27.8541" gradientUnits="userSpaceOnUse">
<stop stop-color="#61A3ED"/>
<stop offset="1" stop-color="#5048D8"/>
</linearGradient>
</defs>
</svg>
