<svg width="30" height="30" viewBox="0 0 30 30" fill="none" xmlns="http://www.w3.org/2000/svg">
<path d="M13.75 25.9375C7.025 25.9375 1.5625 20.475 1.5625 13.75C1.5625 7.025 7.025 1.5625 13.75 1.5625C20.475 1.5625 25.9375 7.025 25.9375 13.75C25.9375 20.475 20.475 25.9375 13.75 25.9375ZM13.75 3.4375C8.0625 3.4375 3.4375 8.0625 3.4375 13.75C3.4375 19.4375 8.0625 24.0625 13.75 24.0625C19.4375 24.0625 24.0625 19.4375 24.0625 13.75C24.0625 8.0625 19.4375 3.4375 13.75 3.4375Z" fill="url(#paint0_linear_667_1343)"/>
<path d="M25.2001 28.4875C25.1001 28.4875 25.0001 28.475 24.9126 28.4625C24.3251 28.3875 23.2626 27.9875 22.6626 26.2C22.3501 25.2625 22.4626 24.325 22.9751 23.6125C23.4876 22.9 24.3501 22.5 25.3376 22.5C26.6126 22.5 27.6126 22.9875 28.0626 23.85C28.5126 24.7125 28.3876 25.8125 27.6751 26.875C26.7876 28.2125 25.8251 28.4875 25.2001 28.4875ZM24.4501 25.6125C24.6626 26.2625 24.9626 26.5875 25.1626 26.6125C25.3626 26.6375 25.7376 26.4 26.1251 25.8375C26.4876 25.3 26.5126 24.9125 26.4251 24.7375C26.3376 24.5625 25.9876 24.375 25.3376 24.375C24.9501 24.375 24.6626 24.5 24.5001 24.7125C24.3501 24.925 24.3251 25.25 24.4501 25.6125Z" fill="url(#paint1_linear_667_1343)"/>
<defs>
<linearGradient id="paint0_linear_667_1343" x1="1.5625" y1="13.75" x2="25.9375" y2="13.75" gradientUnits="userSpaceOnUse">
<stop stop-color="#0D28BB"/>
<stop offset="1" stop-color="#357EEB"/>
</linearGradient>
<linearGradient id="paint1_linear_667_1343" x1="22.489" y1="25.4937" x2="28.326" y2="25.4937" gradientUnits="userSpaceOnUse">
<stop stop-color="#0D28BB"/>
<stop offset="1" stop-color="#357EEB"/>
</linearGradient>
</defs>
</svg>
