<svg width="24" height="30" viewBox="0 0 24 30" fill="none" xmlns="http://www.w3.org/2000/svg">
<path d="M12 5C10.0222 5 8.08879 5.61118 6.4443 6.75626C4.79981 7.90134 3.51809 9.52889 2.76121 11.4331C2.00433 13.3373 1.8063 15.4326 2.19215 17.4541C2.578 19.4756 3.53041 21.3324 4.92894 22.7898C6.32746 24.2473 8.10929 25.2398 10.0491 25.6419C11.9889 26.044 13.9996 25.8376 15.8268 25.0488C17.6541 24.2601 19.2159 22.9244 20.3147 21.2107C21.4135 19.4969 22 17.4821 22 15.4211C21.9972 12.6581 20.9427 10.0092 19.068 8.05548C17.1932 6.10178 14.6513 5.00292 12 5ZM12 24.2389C10.3265 24.2389 8.69052 23.7217 7.29902 22.7528C5.90753 21.7839 4.823 20.4067 4.18256 18.7955C3.54213 17.1842 3.37456 15.4113 3.70105 13.7008C4.02754 11.9903 4.83343 10.4191 6.01679 9.18592C7.20016 7.95272 8.70786 7.11291 10.3492 6.77267C11.9906 6.43243 13.6919 6.60706 15.2381 7.27445C16.7842 7.94185 18.1057 9.07205 19.0355 10.5221C19.9653 11.9722 20.4615 13.6771 20.4615 15.4211C20.459 17.7589 19.5667 20.0002 17.9804 21.6533C16.3941 23.3063 14.2434 24.2362 12 24.2389ZM13.1538 15.4211C13.1538 15.6589 13.0862 15.8913 12.9594 16.0891C12.8326 16.2868 12.6524 16.4409 12.4416 16.5319C12.2307 16.623 11.9987 16.6468 11.7749 16.6004C11.5511 16.554 11.3455 16.4395 11.1841 16.2713C11.0227 16.1031 10.9128 15.8889 10.8683 15.6556C10.8238 15.4224 10.8467 15.1806 10.934 14.9609C11.0213 14.7412 11.1692 14.5534 11.359 14.4213C11.5487 14.2891 11.7718 14.2186 12 14.2186C12.306 14.2186 12.5995 14.3453 12.8159 14.5708C13.0323 14.7963 13.1538 15.1021 13.1538 15.4211ZM17.3846 15.4211C17.3846 15.6589 17.3169 15.8913 17.1902 16.0891C17.0634 16.2868 16.8832 16.4409 16.6723 16.5319C16.4615 16.623 16.2295 16.6468 16.0057 16.6004C15.7818 16.554 15.5762 16.4395 15.4149 16.2713C15.2535 16.1031 15.1436 15.8889 15.0991 15.6556C15.0546 15.4224 15.0774 15.1806 15.1648 14.9609C15.2521 14.7412 15.4 14.5534 15.5897 14.4213C15.7795 14.2891 16.0026 14.2186 16.2308 14.2186C16.5368 14.2186 16.8303 14.3453 17.0467 14.5708C17.263 14.7963 17.3846 15.1021 17.3846 15.4211ZM8.92308 15.4211C8.92308 15.6589 8.85541 15.8913 8.72862 16.0891C8.60184 16.2868 8.42163 16.4409 8.21079 16.5319C7.99995 16.623 7.76795 16.6468 7.54413 16.6004C7.32031 16.554 7.11471 16.4395 6.95334 16.2713C6.79197 16.1031 6.68208 15.8889 6.63756 15.6556C6.59304 15.4224 6.61589 15.1806 6.70322 14.9609C6.79055 14.7412 6.93844 14.5534 7.12819 14.4213C7.31794 14.2891 7.54102 14.2186 7.76923 14.2186C8.07525 14.2186 8.36874 14.3453 8.58513 14.5708C8.80151 14.7963 8.92308 15.1021 8.92308 15.4211Z" fill="#332F36"/>
</svg>
