<svg width="24" height="24" viewBox="0 0 24 24" fill="none" xmlns="http://www.w3.org/2000/svg">
<g clip-path="url(#clip0_13111_100194)">
<path d="M18.2647 11.2714C17.7965 11.7159 17.2117 12.0313 16.5719 12.1843C15.9322 12.3372 15.2611 12.3221 14.6296 12.1405L21.6847 5.38933C21.9147 5.16919 22.0356 4.85043 22.0356 4.47021C22.0356 3.84126 21.6921 3.03793 21.2366 2.60195C20.6393 2.03018 19.0188 1.39695 18.2647 2.11452L11.211 8.86711C11.108 8.53691 11.0557 8.19385 11.0557 7.85079C11.0542 7.39339 11.1474 6.94023 11.3299 6.5175C11.5124 6.09476 11.7806 5.71083 12.1191 5.3879L16.9026 0.810886C18.3393 -0.564218 21.1948 -0.0481966 22.6002 1.29689C23.4156 2.07735 23.9219 3.28665 23.9219 4.45305C23.9219 5.35931 23.6112 6.1555 23.0482 6.69439L18.2647 11.2714ZM5.62999 11.6002C6.09812 11.1556 6.68291 10.8403 7.32269 10.6873C7.96247 10.5343 8.63352 10.5495 9.26507 10.7311L2.20997 17.4837C1.97997 17.7038 1.85901 18.0211 1.85901 18.4028C1.85901 19.0317 2.2025 19.8351 2.658 20.271C3.25539 20.8428 4.87579 21.476 5.62999 20.7585L12.6836 14.0045C12.7865 14.3342 12.8388 14.6766 12.8389 15.0208C12.8389 15.9528 12.4611 16.8261 11.7756 17.4837L6.99352 22.0607C5.55681 23.4358 2.70132 22.9198 1.29597 21.5747C0.480543 20.7942 -0.0257397 19.5849 -0.0257397 18.4185C-0.0257397 17.5123 0.284901 16.7161 0.847935 16.1772L5.62999 11.6002ZM17.052 6.54859C17.2431 6.73012 17.3477 6.97313 17.3477 7.23042C17.3477 7.48772 17.2431 7.72929 17.0535 7.91083L8.26595 16.323C7.87317 16.6975 7.23546 16.6975 6.84268 16.323C6.65152 16.1414 6.54847 15.8984 6.54847 15.6411C6.54847 15.3838 6.65301 15.1423 6.84268 14.9607L15.6302 6.54859C15.8191 6.36877 16.0747 6.26783 16.3411 6.26783C16.6075 6.26783 16.8631 6.36877 17.052 6.54859Z" fill="#332F36"/>
</g>
<defs>
<clipPath id="clip0_13111_100194">
<rect width="24" height="24" fill="white"/>
</clipPath>
</defs>
</svg>
