<!-- icon666.com - MILLIONS vector ICONS FREE --><svg version="1.1" id="Layer_1" xmlns="http://www.w3.org/2000/svg" xmlns:xlink="http://www.w3.org/1999/xlink" x="0px" y="0px" viewBox="0 0 488 488" fill='slategrey' style="enable-background:new 0 0 488 488;" xml:space="preserve"><g transform="translate(0 -540.36)"><g><g><path d="M244.049,824.86c78.3,0,141.9-63.6,141.9-141.9c0-38.1-14.7-73.9-41.4-100.8c-26.8-26.9-62.5-41.8-100.5-41.8 s-73.7,14.9-100.5,41.8c-26.7,26.9-41.4,62.7-41.4,100.8C102.149,761.16,165.749,824.86,244.049,824.86z M244.049,560.36 c52.1,0,96.6,33,114,79.3l-16.2,8.2c-5.2-9.6-15.3-16.1-26.9-16.1h-30.5c-13,0-24.1,8.6-28.2,20.6h-24.5 c-4-12-15.1-20.6-28.2-20.6h-30.5c-11.6,0-21.8,6.5-26.9,16.1l-16.2-8.2C147.449,593.36,191.949,560.36,244.049,560.36z M325.549,662.36v9.9c0,5.9-4.6,10.6-10.6,10.6h-30.5c-5.3,0-9.8-4.8-9.8-10.6v-9.9c0-5.7,4.5-10.6,9.8-10.6h30.5 C320.849,651.86,325.549,656.46,325.549,662.36z M213.449,662.36v9.9c0,5.7-4.5,10.6-9.8,10.6h-30.5c-5.9,0-10.6-4.6-10.6-10.6 v-9.9c0-5.9,4.6-10.6,10.6-10.6h30.5C208.949,651.86,213.449,656.66,213.449,662.36z M124.449,659.26l18.1,9.2v3.8 c0,16.9,13.7,30.6,30.6,30.6h30.5c16.4,0,29.8-13.7,29.8-30.5h21.2c0,16.8,13.4,30.5,29.8,30.5h30.5c16.9,0,30.6-13.7,30.6-30.6 v-3.8l18.1-9.2c1.5,7.7,2.3,15.6,2.3,23.7c0,67.2-54.7,121.9-121.9,121.9h0c-67.2,0-121.9-54.7-121.9-121.9 C122.149,674.86,122.949,666.96,124.449,659.26z"></path><path d="M482.449,887.46l-122-61c-4.7-2.3-10.5-0.6-13.1,4l-67,116.5l-5.6-39.7l9.2-28.3c1.2-3.6,0.3-7.5-2.4-10.2l-30.5-30.5 c-3.9-3.9-10.2-3.9-14.1,0l-30.5,30.5c-2.6,2.7-3.6,6.6-2.4,10.2l9.2,28.3l-5.6,39.7l-67-116.5c-2.6-4.6-8.4-6.4-13.1-4l-122,61 c-3.4,1.6-5.5,5.1-5.5,8.9v122c0,5.5,4.5,10,10,10h468c5.5,0,10-4.5,9.9-10v-122C487.949,892.66,485.849,889.16,482.449,887.46z M468.049,1008.36h-448v-105.8l108-54l76.7,133.6c2.2,3.7,6.4,5.6,10.6,4.8c4.2-0.8,7.4-4.2,8-8.4l9.9-70.9 c0.2-1.5,0.1-3.1-0.4-4.5l-8-24.7l19.1-19.1l19.1,19.1l-8,24.7c-0.5,1.5-0.6,3-0.4,4.5l9.9,70.9c0.6,4.2,3.8,7.6,8,8.4 s8.5-1.1,10.6-4.8l76.9-133.6l108,54V1008.36z"></path><path d="M244.049,784.46L244.049,784.46c26.3,0,51.4-12.5,69-34.2c3.4-4.4,2.7-10.6-1.6-14.1c-4.4-3.4-10.6-2.7-14.1,1.6 c-13.6,17-33,26.7-53.2,26.7s-39.6-9.7-53.2-26.7c-3.5-4.4-9.8-5.1-14.1-1.6c-4.4,3.5-5.1,9.8-1.6,14.1 C192.649,771.96,217.749,784.46,244.049,784.46z"></path></g></g></g></svg>