<svg width="24" height="24" viewBox="0 0 24 24" fill="none" xmlns="http://www.w3.org/2000/svg">
<path d="M23.4704 6.33381C23.3327 5.8344 23.0642 5.3791 22.6915 5.01326C22.3188 4.64742 21.855 4.38379 21.3463 4.24863C19.4838 3.75 11.988 3.75 11.988 3.75C11.988 3.75 4.49184 3.76509 2.62937 4.26372C2.12063 4.39889 1.65684 4.66253 1.28417 5.02839C0.911512 5.39425 0.642987 5.84957 0.505339 6.34899C-0.0580142 9.59754 -0.276549 14.5476 0.520808 17.6662C0.65847 18.1656 0.927002 18.6209 1.29966 18.9867C1.67232 19.3526 2.13611 19.6162 2.64484 19.7514C4.50731 20.25 12.0033 20.25 12.0033 20.25C12.0033 20.25 19.4992 20.25 21.3616 19.7514C21.8703 19.6162 22.3342 19.3526 22.7068 18.9868C23.0795 18.6209 23.3481 18.1656 23.4857 17.6662C24.0799 14.413 24.263 9.46603 23.4704 6.33381Z" fill="#332F36"/>
<path d="M9 14.75L15 11.75L9 8.75V14.75Z" fill="white"/>
</svg>
