<svg width="26" height="26" viewBox="0 0 26 26" fill="none" xmlns="http://www.w3.org/2000/svg">
<circle cx="15.4375" cy="7.3125" r="0.5" fill="#BA75FF" stroke="#BA75FF" stroke-width="0.625"/>
<path d="M7.3125 6.8125C7.03636 6.8125 6.8125 7.03636 6.8125 7.3125C6.8125 7.58864 7.03636 7.8125 7.3125 7.8125V6.8125ZM10.5625 7.8125C10.8386 7.8125 11.0625 7.58864 11.0625 7.3125C11.0625 7.03636 10.8386 6.8125 10.5625 6.8125V7.8125ZM7.3125 11.6875C7.03636 11.6875 6.8125 11.9114 6.8125 12.1875C6.8125 12.4636 7.03636 12.6875 7.3125 12.6875V11.6875ZM15.4375 12.6875C15.7136 12.6875 15.9375 12.4636 15.9375 12.1875C15.9375 11.9114 15.7136 11.6875 15.4375 11.6875V12.6875ZM7.3125 14.9375C7.03636 14.9375 6.8125 15.1614 6.8125 15.4375C6.8125 15.7136 7.03636 15.9375 7.3125 15.9375V14.9375ZM13.8125 15.9375C14.0886 15.9375 14.3125 15.7136 14.3125 15.4375C14.3125 15.1614 14.0886 14.9375 13.8125 14.9375V15.9375ZM21.4375 8.125V21.9375H22.4375V8.125H21.4375ZM20.3125 23.0625H8.9375V24.0625H20.3125V23.0625ZM8.9375 23.0625C8.31618 23.0625 7.8125 22.5588 7.8125 21.9375H6.8125C6.8125 23.1111 7.76389 24.0625 8.9375 24.0625V23.0625ZM21.4375 21.9375C21.4375 22.5588 20.9338 23.0625 20.3125 23.0625V24.0625C21.4861 24.0625 22.4375 23.1111 22.4375 21.9375H21.4375ZM20.3125 7C20.9338 7 21.4375 7.50368 21.4375 8.125H22.4375C22.4375 6.95139 21.4861 6 20.3125 6V7ZM7.8125 21.9375V20.3125H6.8125V21.9375H7.8125ZM20.3125 6H18.6875V7H20.3125V6ZM7.3125 7.8125H10.5625V6.8125H7.3125V7.8125ZM7.3125 12.6875H15.4375V11.6875H7.3125V12.6875ZM7.3125 15.9375H13.8125V14.9375H7.3125V15.9375ZM5.6875 3.75H17.0625V2.75H5.6875V3.75ZM18.1875 4.875V18.6875H19.1875V4.875H18.1875ZM17.0625 19.8125H5.6875V20.8125H17.0625V19.8125ZM4.5625 18.6875V4.875H3.5625V18.6875H4.5625ZM5.6875 19.8125C5.06618 19.8125 4.5625 19.3088 4.5625 18.6875H3.5625C3.5625 19.8611 4.51389 20.8125 5.6875 20.8125V19.8125ZM18.1875 18.6875C18.1875 19.3088 17.6838 19.8125 17.0625 19.8125V20.8125C18.2361 20.8125 19.1875 19.8611 19.1875 18.6875H18.1875ZM17.0625 3.75C17.6838 3.75 18.1875 4.25368 18.1875 4.875H19.1875C19.1875 3.70139 18.2361 2.75 17.0625 2.75V3.75ZM5.6875 2.75C4.5139 2.75 3.5625 3.70139 3.5625 4.875H4.5625C4.5625 4.25368 5.06618 3.75 5.6875 3.75V2.75Z" fill="#BA75FF"/>
</svg>
