<svg  width="900" height="200" viewBox="1150 -200 100 550" fill="none" xmlns="http://www.w3.org/2000/svg">
    <path d="M1764.58 0.924805L1650.44 314.442H1521.52L1463.94 146.934L1403.31 314.442H1274.39L1160.25 0.924805H1284.07L1346.24 179.182L1411.97 0.924805H1522.54L1584.71 181.421L1650.44 0.924805H1764.58Z" fill="rgba(255, 251, 251, 0.17)"/>
    <path d="M1955.16 259.801H1819.62L1795.67 314.442H1673.38L1829.3 0.924805H1947.52L2103.44 314.442H1979.11L1955.16 259.801ZM1922.04 183.661L1887.39 104.833L1852.74 183.661H1922.04Z" fill="rgba(255, 251, 251, 0.17)"/>
    <path d="M2245.48 200.68V314.442H2125.22V199.336L1990.7 0.924805H2117.58L2190.45 109.312L2263.82 0.924805H2380L2245.48 200.68Z" fill="rgba(255, 251, 251, 0.17)"/>
    <path d="M104.634 83.6453H0V1.63574H329.726V83.6453H225.092V315.334H104.634V83.6453Z" fill="rgba(255, 251, 251, 0.17)"/>
    <path d="M702.989 1.63574V315.334H582.532V199.713H471.262V315.334H350.805V1.63574H471.262V112.774H582.532V1.63574H702.989Z" fill="rgba(255, 251, 251, 0.17)"/>
    <path d="M1047.88 235.565V315.334H750.82V1.63574H1041.24V81.4046H869.236V118.152H1020.32V194.336H869.236V235.565H1047.88Z" fill="rgba(255, 251, 251, 0.17)"/>
</svg>
