<svg viewBox="0 0 1041 1648" fill="none" xmlns="http://www.w3.org/2000/svg">
    <path fill-rule="evenodd" clip-rule="evenodd" d="M4.08794 390.678C4.07524 385.702 5.95414 380.911 9.35646 377.221L234.203 133.894L349.147 7.18791C357.077 -1.55757 370.939 -1.75221 379.12 6.7628L463.082 94.0973L715.182 338.238C719.038 341.98 721.216 347.071 721.229 352.385L722.002 654.262C722.048 672.129 699.969 681.039 687.19 668.311L373.194 355.305C367.939 350.562 365.896 350.854 361.08 355.305L294.079 418.088L40.1109 689.123C27.5896 702.486 4.86431 693.825 4.81763 675.674L4.08794 390.678Z" fill="white"/>
    <g filter="url(#filter0_d_315_2)">
        <path fill-rule="evenodd" clip-rule="evenodd" d="M526.271 1153.52C534.426 1160.48 546.704 1159.96 554.221 1152.34L712.176 992.184C720.321 983.925 719.685 970.636 710.789 963.161L37.6373 397.698C24.4303 386.601 4.04411 395.836 4.08793 412.902L4.82152 699.449C4.8363 705.204 7.38342 710.671 11.8084 714.448L526.271 1153.52Z" fill="white"/>
    </g>
    <path fill-rule="evenodd" clip-rule="evenodd" d="M182.909 1500.61L6.68567 1325.41C2.90114 1321.68 0.770189 1316.64 0.756705 1311.37L4.36897e-05 1015.87C-0.0455944 998.101 21.8284 989.146 34.6671 1001.68L347.364 1306.99C349.699 1309.18 351.169 1309.22 353.859 1306.99L682.451 980.707C695.227 968.121 717.136 976.968 717.182 994.733L717.229 1013.67C717.234 1013.81 717.234 1013.94 717.234 1014.08L717.921 1282.18C717.921 1282.31 717.921 1282.44 717.919 1282.56L717.929 1287.17C717.945 1292.6 715.696 1297.81 711.706 1301.58L351.612 1641.91C343.56 1649.52 330.761 1649.32 322.956 1641.47L182.909 1500.61Z" fill="white"/>
    <!-- <path d="M1037.34 1555.5L1037.34 1509.55L847.176 1509.55L847.176 1555.5L1037.34 1555.5Z" fill="white"/> -->
    <path d="M1037.34 1429.68L1037.34 1383.73L887.071 1383.73L887.071 1326.76L847.176 1326.76L847.176 1486.66L887.071 1486.66L887.071 1429.68L1037.34 1429.68Z" fill="white"/>
    <path d="M941.079 1256.29C996.934 1256.29 1040.55 1216.38 1040.55 1158.1C1040.55 1099.81 996.934 1059.9 941.079 1059.9C886.555 1059.9 844 1099.81 844 1158.1C844 1216.38 886.555 1256.29 941.079 1256.29ZM941.079 1208.77C909.961 1208.77 886.555 1187.76 886.555 1158.1C886.555 1128.43 909.961 1107.42 941.079 1107.42C973.528 1107.42 997.997 1128.43 997.997 1158.1C997.997 1187.76 973.528 1208.77 941.079 1208.77Z" fill="white"/>
    <path d="M1037.33 989.622L1037.33 941.838L847.164 875.674L847.164 924.771L955.413 958.379C967.383 962.054 986.002 965.468 986.002 965.468L986.002 965.992C986.002 965.992 967.383 969.406 955.413 973.081L847.164 1006.16L847.164 1056.05L1037.33 989.622Z" fill="white"/>
    <path d="M1037.33 857.597L1037.33 736.298L997.438 736.298L997.438 811.651L961.53 811.651L961.53 754.413L921.635 754.413L921.635 811.651L887.059 811.651L887.059 739.972L847.164 739.972L847.164 857.597L1037.33 857.597Z" fill="white"/>
    <path d="M1037.33 706.842L1037.33 660.896L973.233 660.896L973.233 639.367L1037.33 606.022L1037.33 554.824L970.84 591.318C962.86 595.782 959.403 598.409 959.403 598.409L958.87 598.409C949.297 579.768 927.221 570.315 907.006 570.315C879.346 570.315 859.93 583.705 851.684 604.971C848.494 613.11 847.164 622.299 847.164 641.467L847.164 706.842L1037.33 706.842ZM933.338 660.896L887.059 660.896L887.059 645.405C887.059 637.79 887.856 632.278 889.719 628.077C893.176 619.412 900.359 617.048 909.932 617.048C925.092 617.048 933.338 626.24 933.338 640.941L933.338 660.896Z" fill="white"/>
    <path d="M941.079 546.309C996.934 546.309 1040.55 506.399 1040.55 448.113C1040.55 389.827 996.934 349.917 941.079 349.917C886.555 349.917 844 389.827 844 448.113C844 506.399 886.555 546.309 941.079 546.309ZM941.079 498.786C909.961 498.786 886.555 477.781 886.555 448.113C886.555 418.445 909.961 397.44 941.079 397.44C973.528 397.44 997.997 418.445 997.997 448.113C997.997 477.781 973.528 498.786 941.079 498.786Z" fill="white"/>
    <path d="M1037.34 320.695L1037.34 274.747L948.768 274.747C936.798 274.747 916.319 276.847 916.319 276.847L916.319 276.324C916.319 276.324 936.268 267.922 948.768 260.57L1037.34 208.322L1037.34 162.111L847.168 162.111L847.168 208.059L936.001 208.059C947.971 208.059 968.45 205.959 968.45 205.959L968.45 206.483C968.45 206.483 948.501 214.885 936.001 222.236L847.168 274.223L847.168 320.695L1037.34 320.695Z" fill="white"/>
    <path d="M1037.34 122.76L1037.34 1.45821L997.442 1.45821L997.442 76.8114L961.534 76.8114L961.534 19.576L921.639 19.576L921.639 76.8114L887.063 76.8114L887.063 5.13541L847.168 5.13541L847.168 122.76L1037.34 122.76Z" fill="white"/>
    <defs>
        <filter id="filter0_d_315_2" x="0.0878906" y="392.863" width="721.807" height="773.552" filterUnits="userSpaceOnUse" color-interpolation-filters="sRGB">
            <feFlood flood-opacity="0" result="BackgroundImageFix"/>
            <feColorMatrix in="SourceAlpha" type="matrix" values="0 0 0 0 0 0 0 0 0 0 0 0 0 0 0 0 0 0 127 0" result="hardAlpha"/>
            <feOffset dy="4"/>
            <feGaussianBlur stdDeviation="2"/>
            <feComposite in2="hardAlpha" operator="out"/>
            <feColorMatrix type="matrix" values="0 0 0 0 0 0 0 0 0 0 0 0 0 0 0 0 0 0 0.25 0"/>
            <feBlend mode="normal" in2="BackgroundImageFix" result="effect1_dropShadow_315_2"/>
            <feBlend mode="normal" in="SourceGraphic" in2="effect1_dropShadow_315_2" result="shape"/>
        </filter>
    </defs>
</svg>
