<svg width="1649" height="1042" viewBox="0 0 1649 1042" fill="none" xmlns="http://www.w3.org/2000/svg">
<g clip-path="url(#clip0_4053_23)">
<path fill-rule="evenodd" clip-rule="evenodd" d="M1257.82 4.58893C1262.8 4.57623 1267.59 6.45513 1271.28 9.85745L1514.61 234.704L1641.31 349.648C1650.06 357.578 1650.25 371.44 1641.74 379.621L1554.41 463.583L1310.26 715.683C1306.52 719.539 1301.43 721.717 1296.12 721.73L994.241 722.503C976.374 722.549 967.464 700.47 980.192 687.691L1293.2 373.695C1297.94 368.44 1297.65 366.397 1293.2 361.581L1230.41 294.58L959.38 40.6119C946.017 28.0906 954.678 5.3653 972.829 5.31862L1257.82 4.58893Z" fill="white"/>
<g filter="url(#filter0_d_4053_23)">
<path fill-rule="evenodd" clip-rule="evenodd" d="M494.981 526.772C488.021 534.927 488.541 547.205 496.161 554.722L656.317 712.677C664.576 720.822 677.865 720.186 685.34 711.29L1250.8 38.1383C1261.9 24.9313 1252.67 4.54512 1235.6 4.58894L949.052 5.32253C943.297 5.33731 937.83 7.88443 934.053 12.3094L494.981 526.772Z" fill="white"/>
</g>
<path fill-rule="evenodd" clip-rule="evenodd" d="M147.893 183.41L323.093 7.18667C326.823 3.40214 331.863 1.27119 337.133 1.25771L632.633 0.501048C650.402 0.45541 659.357 22.3294 646.823 35.1681L341.513 347.865C339.323 350.2 339.283 351.67 341.513 354.36L667.796 682.952C680.382 695.728 671.535 717.637 653.77 717.683L634.833 717.73C634.693 717.735 634.563 717.735 634.423 717.735L366.323 718.422C366.193 718.422 366.063 718.422 365.943 718.42L361.333 718.43C355.903 718.446 350.693 716.197 346.923 712.207L6.59259 352.113C-1.01741 344.061 -0.817346 331.262 7.03265 323.457L147.893 183.41Z" fill="white"/>
<path d="M93.0012 1037.84H138.951L138.951 847.677H93.0012L93.0012 1037.84Z" fill="white"/>
<path d="M218.822 1037.84H264.772L264.772 887.572H321.742V847.677H161.842V887.572H218.822L218.822 1037.84Z" fill="white"/>
<path d="M392.212 941.58C392.212 997.435 432.122 1041.05 490.402 1041.05C548.692 1041.05 588.602 997.435 588.602 941.58C588.602 887.056 548.692 844.501 490.402 844.501C432.122 844.501 392.212 887.056 392.212 941.58ZM439.732 941.58C439.732 910.462 460.742 887.056 490.402 887.056C520.072 887.056 541.082 910.462 541.082 941.58C541.082 974.029 520.072 998.498 490.402 998.498C460.742 998.498 439.732 974.029 439.732 941.58Z" fill="white"/>
<path d="M658.88 1037.83H706.664L772.828 847.665H723.731L690.123 955.914C686.448 967.884 683.034 986.503 683.034 986.503H682.51C682.51 986.503 679.096 967.884 675.421 955.914L642.342 847.665H592.452L658.88 1037.83Z" fill="white"/>
<path d="M790.904 1037.83H912.203V997.939H836.85V962.031H894.088V922.136H836.85V887.56H908.529V847.665H790.904V1037.83Z" fill="white"/>
<path d="M941.66 1037.83H987.606V973.734H1009.13L1042.48 1037.83H1093.68L1057.18 971.341C1052.72 963.361 1050.09 959.904 1050.09 959.904V959.371C1068.73 949.798 1078.19 927.722 1078.19 907.507C1078.19 879.847 1064.8 860.431 1043.53 852.185C1035.39 848.995 1026.2 847.665 1007.03 847.665H941.66V1037.83ZM987.606 933.839V887.56H1003.1C1010.71 887.56 1016.22 888.357 1020.42 890.22C1029.09 893.677 1031.45 900.86 1031.45 910.433C1031.45 925.593 1022.26 933.839 1007.56 933.839H987.606Z" fill="white"/>
<path d="M1102.19 941.58C1102.19 997.435 1142.1 1041.05 1200.39 1041.05C1258.68 1041.05 1298.59 997.435 1298.59 941.58C1298.59 887.056 1258.68 844.501 1200.39 844.501C1142.1 844.501 1102.19 887.056 1102.19 941.58ZM1149.72 941.58C1149.72 910.462 1170.72 887.056 1200.39 887.056C1230.06 887.056 1251.06 910.462 1251.06 941.58C1251.06 974.029 1230.06 998.498 1200.39 998.498C1170.72 998.498 1149.72 974.029 1149.72 941.58Z" fill="white"/>
<path d="M1327.81 1037.84H1373.75V949.269C1373.75 937.299 1371.65 916.82 1371.65 916.82H1372.18C1372.18 916.82 1380.58 936.769 1387.93 949.269L1440.18 1037.84H1486.39V847.669H1440.44V936.502C1440.44 948.472 1442.54 968.951 1442.54 968.951H1442.02C1442.02 968.951 1433.62 949.002 1426.27 936.502L1374.28 847.669H1327.81V1037.84Z" fill="white"/>
<path d="M1525.74 1037.84H1647.04V997.943H1571.69V962.035H1628.93V922.14H1571.69V887.564H1643.37V847.669H1525.74V1037.84Z" fill="white"/>
</g>
<defs>
<filter id="filter0_d_4053_23" x="486.086" y="4.58887" width="773.553" height="721.808" filterUnits="userSpaceOnUse" color-interpolation-filters="sRGB">
<feFlood flood-opacity="0" result="BackgroundImageFix"/>
<feColorMatrix in="SourceAlpha" type="matrix" values="0 0 0 0 0 0 0 0 0 0 0 0 0 0 0 0 0 0 127 0" result="hardAlpha"/>
<feOffset dy="4"/>
<feGaussianBlur stdDeviation="2"/>
<feComposite in2="hardAlpha" operator="out"/>
<feColorMatrix type="matrix" values="0 0 0 0 0 0 0 0 0 0 0 0 0 0 0 0 0 0 0.25 0"/>
<feBlend mode="normal" in2="BackgroundImageFix" result="effect1_dropShadow_4053_23"/>
<feBlend mode="normal" in="SourceGraphic" in2="effect1_dropShadow_4053_23" result="shape"/>
</filter>
<clipPath id="clip0_4053_23">
<rect width="1041" height="1648" fill="white" transform="matrix(0 1 -1 0 1648.5 0.500977)"/>
</clipPath>
</defs>
</svg>
