<svg width="13" height="14" viewBox="0 0 13 14" fill="none" xmlns="http://www.w3.org/2000/svg">
<path d="M4.33301 4.6665V7.33317L0.333008 3.99984L4.33301 0.666504V3.33317H7.66634C9.08083 3.33317 10.4374 3.89507 11.4376 4.89527C12.4378 5.89546 12.9997 7.25202 12.9997 8.6665C12.9997 10.081 12.4378 11.4375 11.4376 12.4377C10.4374 13.4379 9.08083 13.9998 7.66634 13.9998H1.66634V12.6665H7.66634C8.72721 12.6665 9.74462 12.2451 10.4948 11.4949C11.2449 10.7448 11.6663 9.72737 11.6663 8.6665C11.6663 7.60564 11.2449 6.58822 10.4948 5.83808C9.74462 5.08793 8.72721 4.6665 7.66634 4.6665H4.33301Z" fill="#03053D"/>
</svg>
