<svg xmlns="http://www.w3.org/2000/svg" width="25" height="24" viewBox="0 0 25 24" fill="none">
  <path d="M12.4702 22.75C6.55021 22.75 1.72021 17.93 1.72021 12C1.72021 6.07 6.55021 1.25 12.4702 1.25C18.3902 1.25 23.2202 6.07 23.2202 12C23.2202 17.93 18.4002 22.75 12.4702 22.75ZM12.4702 2.75C7.37021 2.75 3.22021 6.9 3.22021 12C3.22021 17.1 7.37021 21.25 12.4702 21.25C17.5702 21.25 21.7202 17.1 21.7202 12C21.7202 6.9 17.5702 2.75 12.4702 2.75Z" fill="#357EEB"/>
  <path d="M12.5 16.9795C9.75002 16.9795 7.52002 14.7495 7.52002 11.9995C7.52002 9.24953 9.75002 7.01953 12.5 7.01953C15.25 7.01953 17.48 9.24953 17.48 11.9995C17.48 14.7495 15.25 16.9795 12.5 16.9795ZM12.5 8.51953C10.58 8.51953 9.02002 10.0795 9.02002 11.9995C9.02002 13.9195 10.58 15.4795 12.5 15.4795C14.42 15.4795 15.98 13.9195 15.98 11.9995C15.98 10.0795 14.42 8.51953 12.5 8.51953Z" fill="#357EEB"/>
</svg>