<svg xmlns="http://www.w3.org/2000/svg" width="25" height="24" viewBox="0 0 25 24" fill="none">
  <path d="M12.5 22.7788C11.81 22.7788 11.16 22.4288 10.7 21.8188L9.20001 19.8188C9.17001 19.7788 9.05 19.7288 9 19.7188H8.5C4.33 19.7188 1.75 18.5887 1.75 12.9688V7.96875C1.75 3.54875 4.08 1.21875 8.5 1.21875H16.5C20.92 1.21875 23.25 3.54875 23.25 7.96875V12.9688C23.25 17.3888 20.92 19.7188 16.5 19.7188H16C15.92 19.7188 15.85 19.7588 15.8 19.8188L14.3 21.8188C13.84 22.4288 13.19 22.7788 12.5 22.7788ZM8.5 2.71875C4.92 2.71875 3.25 4.38875 3.25 7.96875V12.9688C3.25 17.4888 4.8 18.2188 8.5 18.2188H9C9.51 18.2188 10.09 18.5088 10.4 18.9188L11.9 20.9188C12.25 21.3788 12.75 21.3788 13.1 20.9188L14.6 18.9188C14.93 18.4788 15.45 18.2188 16 18.2188H16.5C20.08 18.2188 21.75 16.5487 21.75 12.9688V7.96875C21.75 4.38875 20.08 2.71875 16.5 2.71875H8.5Z" fill="#357EEB"/>
  <path d="M8.49994 13.4507C8.30994 13.4507 8.11994 13.3806 7.96994 13.2306L5.96994 11.2306C5.67994 10.9406 5.67994 10.4606 5.96994 10.1706L7.96994 8.17063C8.25994 7.88063 8.73994 7.88063 9.02994 8.17063C9.31994 8.46062 9.31994 8.94062 9.02994 9.23062L7.55994 10.7007L9.02994 12.1706C9.31994 12.4606 9.31994 12.9406 9.02994 13.2306C8.87994 13.3806 8.68994 13.4507 8.49994 13.4507Z" fill="#357EEB"/>
  <path d="M16.4999 13.4507C16.3099 13.4507 16.1199 13.3806 15.9699 13.2306C15.6799 12.9406 15.6799 12.4606 15.9699 12.1706L17.4399 10.7007L15.9699 9.23062C15.6799 8.94062 15.6799 8.46062 15.9699 8.17063C16.2599 7.88063 16.7399 7.88063 17.0299 8.17063L19.0299 10.1706C19.3199 10.4606 19.3199 10.9406 19.0299 11.2306L17.0299 13.2306C16.8799 13.3806 16.6899 13.4507 16.4999 13.4507Z" fill="#357EEB"/>
  <path d="M11.4999 13.7798C11.3999 13.7798 11.2999 13.7597 11.1999 13.7197C10.8199 13.5597 10.6399 13.1197 10.8099 12.7297L12.8099 8.05975C12.9699 7.67975 13.4099 7.49973 13.7999 7.66973C14.1799 7.82973 14.3599 8.26972 14.1899 8.65972L12.1899 13.3298C12.0699 13.6098 11.7899 13.7798 11.4999 13.7798Z" fill="#357EEB"/>
</svg>
