<svg width="19" height="19" viewBox="0 0 19 19" fill="none" xmlns="http://www.w3.org/2000/svg">
<path d="M5.125 2.5C5.125 1.5335 5.9085 0.75 6.875 0.75H12.125C13.0915 0.75 13.875 1.5335 13.875 2.5V4.25H15.616C15.6214 4.24995 15.6268 4.24995 15.6322 4.25H17.375C17.8582 4.25 18.25 4.64175 18.25 5.125C18.25 5.60825 17.8582 6 17.375 6H16.4397L15.6808 16.6247C15.6154 17.5405 14.8534 18.25 13.9353 18.25H5.06473C4.14661 18.25 3.38459 17.5405 3.31918 16.6247L2.56027 6H1.625C1.14175 6 0.75 5.60825 0.75 5.125C0.75 4.64175 1.14175 4.25 1.625 4.25H3.36778C3.3732 4.24995 3.37862 4.24995 3.38403 4.25H5.125V2.5ZM6.875 4.25H12.125V2.5H6.875V4.25ZM4.31473 6L5.06473 16.5H13.9353L14.6853 6H4.31473ZM7.75 7.75C8.23325 7.75 8.625 8.14175 8.625 8.625V13.875C8.625 14.3582 8.23325 14.75 7.75 14.75C7.26675 14.75 6.875 14.3582 6.875 13.875V8.625C6.875 8.14175 7.26675 7.75 7.75 7.75ZM11.25 7.75C11.7332 7.75 12.125 8.14175 12.125 8.625V13.875C12.125 14.3582 11.7332 14.75 11.25 14.75C10.7668 14.75 10.375 14.3582 10.375 13.875V8.625C10.375 8.14175 10.7668 7.75 11.25 7.75Z" fill="#EF4444"/>
</svg>
