<svg width="18" height="14" viewBox="0 0 18 14" fill="none" xmlns="http://www.w3.org/2000/svg">
<path d="M12.875 7C12.875 6.58579 12.5392 6.25 12.125 6.25C11.7108 6.25 11.375 6.58579 11.375 7H12.875ZM9 9.375C8.58579 9.375 8.25 9.71079 8.25 10.125C8.25 10.5392 8.58579 10.875 9 10.875V9.375ZM5.125 7C5.125 7.41421 5.46079 7.75 5.875 7.75C6.28921 7.75 6.625 7.41421 6.625 7H5.125ZM9 4.625C9.41421 4.625 9.75 4.28921 9.75 3.875C9.75 3.46079 9.41421 3.125 9 3.125V4.625ZM7.29305 11.6781C6.88937 11.5853 6.48688 11.8373 6.39407 12.241C6.30126 12.6447 6.55327 13.0472 6.95695 13.14L7.29305 11.6781ZM10.993 2.39316C11.3931 2.50056 11.8045 2.26331 11.9119 1.86326C12.0192 1.46322 11.782 1.05185 11.382 0.944456L10.993 2.39316ZM15.7085 3.31858C15.4012 3.04084 14.9269 3.06481 14.6492 3.37211C14.3714 3.67942 14.3954 4.15369 14.7027 4.43142L15.7085 3.31858ZM2.24359 10.6378C2.54913 10.9175 3.02354 10.8965 3.30322 10.591C3.5829 10.2855 3.56194 9.81105 3.25641 9.53137L2.24359 10.6378ZM2.84467 12.0947C2.55178 12.3876 2.55178 12.8624 2.84467 13.1553C3.13756 13.4482 3.61244 13.4482 3.90533 13.1553L2.84467 12.0947ZM15.1553 1.90533C15.4482 1.61244 15.4482 1.13756 15.1553 0.84467C14.8624 0.551777 14.3876 0.551777 14.0947 0.84467L15.1553 1.90533ZM16.375 7C16.375 7.2542 16.2383 7.69147 15.8629 8.2532C15.5002 8.79599 14.9606 9.38488 14.2778 9.92912C12.908 11.0208 11.0367 11.875 9 11.875V13.375C11.4506 13.375 13.6418 12.3542 15.2127 11.1021C16.0002 10.4745 16.6505 9.77432 17.1101 9.08664C17.557 8.41791 17.875 7.6833 17.875 7H16.375ZM1.625 7C1.625 6.7458 1.76168 6.30853 2.13708 5.7468C2.49981 5.20401 3.03936 4.61512 3.72221 4.07088C5.09197 2.97917 6.96326 2.125 9 2.125V0.625C6.54943 0.625 4.35822 1.64583 2.78731 2.89787C1.99982 3.52551 1.34949 4.22568 0.889929 4.91336C0.443029 5.58209 0.125 6.3167 0.125 7H1.625ZM11.375 7C11.375 8.31168 10.3117 9.375 9 9.375V10.875C11.1401 10.875 12.875 9.1401 12.875 7H11.375ZM6.625 7C6.625 5.68832 7.68832 4.625 9 4.625V3.125C6.8599 3.125 5.125 4.8599 5.125 7H6.625ZM9 11.875C8.41493 11.875 7.84357 11.8047 7.29305 11.6781L6.95695 13.14C7.61023 13.2902 8.2944 13.375 9 13.375V11.875ZM9 2.125C9.68707 2.125 10.3553 2.22196 10.993 2.39316L11.382 0.944456C10.6277 0.741982 9.82869 0.625 9 0.625V2.125ZM14.7027 4.43142C15.2568 4.93225 15.6872 5.45019 15.974 5.92051C16.2696 6.40548 16.375 6.77733 16.375 7H17.875C17.875 6.38735 17.6194 5.73781 17.2547 5.13967C16.8811 4.52688 16.3518 3.89998 15.7085 3.31858L14.7027 4.43142ZM3.25641 9.53137C2.71485 9.03564 2.29499 8.5251 2.01551 8.06213C1.72745 7.58494 1.625 7.21952 1.625 7H0.125C0.125 7.60542 0.374628 8.2464 0.731352 8.83733C1.09666 9.44248 1.6143 10.0618 2.24359 10.6378L3.25641 9.53137ZM3.90533 13.1553L15.1553 1.90533L14.0947 0.84467L2.84467 12.0947L3.90533 13.1553Z" fill="#E0DCED"/>
</svg>
