<svg xmlns="http://www.w3.org/2000/svg" width="25" height="24" viewBox="0 0 25 24" fill="none">
  <path d="M15.5 22.75H9.5C4.07 22.75 1.75 20.43 1.75 15V9C1.75 3.57 4.07 1.25 9.5 1.25H15.5C20.93 1.25 23.25 3.57 23.25 9V15C23.25 20.43 20.93 22.75 15.5 22.75ZM9.5 2.75C4.89 2.75 3.25 4.39 3.25 9V15C3.25 19.61 4.89 21.25 9.5 21.25H15.5C20.11 21.25 21.75 19.61 21.75 15V9C21.75 4.39 20.11 2.75 15.5 2.75H9.5Z" fill="#357EEB"/>
  <path d="M10.1002 15.7819C9.9102 15.7819 9.7202 15.7119 9.57019 15.5619L7.0802 13.0719C6.4902 12.4819 6.4902 11.5319 7.0802 10.9419L9.57019 8.45188C9.86019 8.16188 10.3402 8.16188 10.6302 8.45188C10.9202 8.74187 10.9202 9.22188 10.6302 9.51188L8.1402 12.0019L10.6302 14.5019C10.9202 14.7919 10.9202 15.2719 10.6302 15.5619C10.4802 15.7019 10.2902 15.7819 10.1002 15.7819Z" fill="#357EEB"/>
  <path d="M14.8998 15.7802C14.7098 15.7802 14.5198 15.7102 14.3698 15.5602C14.0798 15.2702 14.0798 14.7902 14.3698 14.5002L16.8598 12.0002L14.3698 9.50016C14.0798 9.21016 14.0798 8.73016 14.3698 8.44016C14.6598 8.15016 15.1398 8.15016 15.4298 8.44016L17.9198 10.9302C18.5098 11.5202 18.5098 12.4702 17.9198 13.0602L15.4298 15.5502C15.2898 15.7002 15.0898 15.7802 14.8998 15.7802Z" fill="#357EEB"/>
</svg>