<svg width="13" height="14" viewBox="0 0 13 14" fill="none" xmlns="http://www.w3.org/2000/svg">
<path d="M8.66667 4.6665H5.33333C4.27247 4.6665 3.25505 5.08793 2.50491 5.83808C1.75476 6.58822 1.33333 7.60564 1.33333 8.6665C1.33333 9.72737 1.75476 10.7448 2.50491 11.4949C3.25505 12.2451 4.27247 12.6665 5.33333 12.6665H11.3333V13.9998H5.33333C3.91885 13.9998 2.56229 13.4379 1.5621 12.4377C0.561903 11.4375 0 10.081 0 8.6665C0 7.25202 0.561903 5.89546 1.5621 4.89527C2.56229 3.89507 3.91885 3.33317 5.33333 3.33317H8.66667V0.666504L12.6667 3.99984L8.66667 7.33317V4.6665Z" fill="#03053D"/>
</svg>
