<svg width="16" height="16" viewBox="0 0 16 16" fill="none" xmlns="http://www.w3.org/2000/svg">
<circle cx="9.5" cy="4.5" r="0.5" fill="#BA75FF"/>
<path d="M4.5 4C4.22386 4 4 4.22386 4 4.5C4 4.77614 4.22386 5 4.5 5V4ZM6.5 5C6.77614 5 7 4.77614 7 4.5C7 4.22386 6.77614 4 6.5 4V5ZM4.5 7C4.22386 7 4 7.22386 4 7.5C4 7.77614 4.22386 8 4.5 8V7ZM9.5 8C9.77614 8 10 7.77614 10 7.5C10 7.22386 9.77614 7 9.5 7V8ZM4.5 9C4.22386 9 4 9.22386 4 9.5C4 9.77614 4.22386 10 4.5 10V9ZM8.5 10C8.77614 10 9 9.77614 9 9.5C9 9.22386 8.77614 9 8.5 9V10ZM13 5V13.5H14V5H13ZM12.5 14H5.5V15H12.5V14ZM5.5 14C5.22386 14 5 13.7761 5 13.5H4C4 14.3284 4.67157 15 5.5 15V14ZM13 13.5C13 13.7761 12.7761 14 12.5 14V15C13.3284 15 14 14.3284 14 13.5H13ZM12.5 4.5C12.7761 4.5 13 4.72386 13 5H14C14 4.17157 13.3284 3.5 12.5 3.5V4.5ZM5 13.5V12.5H4V13.5H5ZM12.5 3.5H11.5V4.5H12.5V3.5ZM4.5 5H6.5V4H4.5V5ZM4.5 8H9.5V7H4.5V8ZM4.5 10H8.5V9H4.5V10ZM3.5 2.5H10.5V1.5H3.5V2.5ZM11 3V11.5H12V3H11ZM10.5 12H3.5V13H10.5V12ZM3 11.5V3H2V11.5H3ZM3.5 12C3.22386 12 3 11.7761 3 11.5H2C2 12.3284 2.67157 13 3.5 13V12ZM11 11.5C11 11.7761 10.7761 12 10.5 12V13C11.3284 13 12 12.3284 12 11.5H11ZM10.5 2.5C10.7761 2.5 11 2.72386 11 3H12C12 2.17157 11.3284 1.5 10.5 1.5V2.5ZM3.5 1.5C2.67157 1.5 2 2.17157 2 3H3C3 2.72386 3.22386 2.5 3.5 2.5V1.5Z" fill="#BA75FF"/>
</svg>
