<svg xmlns="http://www.w3.org/2000/svg" width="25" height="24" viewBox="0 0 25 24" fill="none">
  <path d="M15.5 22.75H9.5C4.07 22.75 1.75 20.43 1.75 15V9C1.75 3.57 4.07 1.25 9.5 1.25H15.5C20.93 1.25 23.25 3.57 23.25 9V15C23.25 20.43 20.93 22.75 15.5 22.75ZM9.5 2.75C4.89 2.75 3.25 4.39 3.25 9V15C3.25 19.61 4.89 21.25 9.5 21.25H15.5C20.11 21.25 21.75 19.61 21.75 15V9C21.75 4.39 20.11 2.75 15.5 2.75H9.5Z" fill="#357EEB"/>
  <path d="M9.5 10.75C7.98 10.75 6.75 9.52 6.75 8C6.75 6.48 7.98 5.25 9.5 5.25C11.02 5.25 12.25 6.48 12.25 8C12.25 9.52 11.02 10.75 9.5 10.75ZM9.5 6.75C8.81 6.75 8.25 7.31 8.25 8C8.25 8.69 8.81 9.25 9.5 9.25C10.19 9.25 10.75 8.69 10.75 8C10.75 7.31 10.19 6.75 9.5 6.75Z" fill="#357EEB"/>
  <path d="M3.16977 19.6986C2.92977 19.6986 2.68977 19.5786 2.54977 19.3686C2.31977 19.0286 2.40977 18.5586 2.75977 18.3286L7.68977 15.0186C8.76977 14.2886 10.2598 14.3786 11.2398 15.2086L11.5698 15.4986C12.0698 15.9286 12.9198 15.9286 13.4098 15.4986L17.5698 11.9286C18.6298 11.0186 20.2998 11.0186 21.3698 11.9286L22.9998 13.3286C23.3098 13.5986 23.3498 14.0686 23.0798 14.3886C22.8098 14.6986 22.3398 14.7386 22.0198 14.4686L20.3898 13.0686C19.8898 12.6386 19.0398 12.6386 18.5398 13.0686L14.3798 16.6386C13.3198 17.5486 11.6498 17.5486 10.5798 16.6386L10.2498 16.3486C9.78977 15.9586 9.02977 15.9186 8.51977 16.2686L3.58977 19.5786C3.45977 19.6586 3.30977 19.6986 3.16977 19.6986Z" fill="#357EEB"/>
</svg>