<svg width="16" height="16" viewBox="0 0 16 16" fill="none" xmlns="http://www.w3.org/2000/svg">
<path d="M6.23512 2.73162L6.39127 3.20661L6.23512 2.73162ZM6.42273 2.53275L5.93766 2.41149V2.41149L6.42273 2.53275ZM5.20211 3.03867L4.94487 3.46742L5.20211 3.03867ZM5.47549 3.04657L5.7012 3.49273L5.47549 3.04657ZM3.52703 2.2763L3.17348 1.92275L3.52703 2.2763ZM3.86264 2.23499L4.11988 1.80624V1.80624L3.86264 2.23499ZM2.23498 3.86264L1.80624 4.11989V4.11989L2.23498 3.86264ZM2.2763 3.52704L2.62985 3.88059L2.2763 3.52704ZM3.04657 5.47549L2.60041 5.24979L3.04657 5.47549ZM3.03867 5.20212L3.46742 4.94487L3.03867 5.20212ZM2.53275 6.42273L2.41149 5.93766L2.53275 6.42273ZM2.73162 6.23513L3.20661 6.39127L2.73162 6.23513ZM1.01766 6.8015L1.13893 7.28657H1.13893L1.01766 6.8015ZM1.01767 9.10335L1.13893 8.61828H1.13893L1.01767 9.10335ZM2.73162 9.66973L2.25663 9.82588L2.73162 9.66973ZM2.53275 9.48212L2.41149 9.9672H2.41149L2.53275 9.48212ZM3.03867 10.7027L3.46742 10.96H3.46742L3.03867 10.7027ZM3.04657 10.4294L3.49273 10.2037L3.04657 10.4294ZM2.2763 12.3778L1.92275 12.7314H1.92275L2.2763 12.3778ZM2.23499 12.0422L1.80624 11.785L2.23499 12.0422ZM3.86264 13.6699L3.60539 13.2411L3.86264 13.6699ZM3.52704 13.6286L3.88059 13.275L3.52704 13.6286ZM5.4755 12.8583L5.7012 12.4121L5.4755 12.8583ZM5.20212 12.8662L5.45937 13.2949L5.20212 12.8662ZM6.25347 13.2951L5.77913 13.4532L6.25347 13.2951ZM6.08046 13.1198L5.91013 13.5899L6.08046 13.1198ZM6.79091 14.9074L7.26525 14.7493L6.79091 14.9074ZM9.11394 14.9074L8.6396 14.7493L9.11394 14.9074ZM9.82439 13.1198L9.99472 13.5899L9.82439 13.1198ZM9.65138 13.2951L10.1257 13.4532H10.1257L9.65138 13.2951ZM10.5287 12.9315L10.7523 12.4843L10.5287 12.9315ZM10.2823 12.93L10.07 12.4772L10.2823 12.93ZM12.049 13.6917L11.8254 14.1389L12.049 13.6917ZM13.6917 12.049L13.2445 12.2727L13.6917 12.049ZM12.93 10.2823L13.3827 10.4945L12.93 10.2823ZM12.9315 10.5287L13.3787 10.3051L12.9315 10.5287ZM13.2951 9.65138L13.4532 10.1257L13.2951 9.65138ZM13.1198 9.82439L12.6497 9.65405L13.1198 9.82439ZM14.9074 9.11395L14.7493 8.6396L14.9074 9.11395ZM14.9074 6.79091L15.0655 6.31657L14.9074 6.79091ZM13.1198 6.08047L13.5899 5.91013L13.1198 6.08047ZM13.2951 6.25347L13.137 6.72782L13.2951 6.25347ZM12.9315 5.37614L13.3787 5.59975L12.9315 5.37614ZM12.93 5.62259L13.3827 5.41033L12.93 5.62259ZM13.6402 3.53869L13.2867 3.89224V3.89224L13.6402 3.53869ZM13.6917 3.85581L13.2445 3.6322L13.6917 3.85581ZM12.049 2.21318L11.8254 1.76596V1.76596L12.049 2.21318ZM12.3662 2.26464L12.7197 1.91109V1.91109L12.3662 2.26464ZM10.2823 2.9749L10.4945 2.52219L10.2823 2.9749ZM10.5287 2.97334L10.7523 3.42055L10.5287 2.97334ZM9.48212 2.53275L9.96719 2.41149V2.41149L9.48212 2.53275ZM9.66973 2.73162L9.51358 3.20661L9.66973 2.73162ZM6.8015 1.01766L7.28657 1.13893L6.8015 1.01766ZM9.10335 1.01766L8.61828 1.13893V1.13893L9.10335 1.01766ZM8.83683 0.30957H7.06802V1.30957H8.83683V0.30957ZM9.96719 2.41149L9.58842 0.896397L8.61828 1.13893L8.99705 2.65402L9.96719 2.41149ZM9.51358 3.20661C9.70436 3.26933 9.89009 3.34325 10.07 3.42761L10.4945 2.52219C10.2784 2.42086 10.0552 2.33202 9.82588 2.25663L9.51358 3.20661ZM11.8254 1.76596L10.3051 2.52613L10.7523 3.42055L12.2727 2.66039L11.8254 1.76596ZM13.9938 3.18514L12.7197 1.91109L12.0126 2.61819L13.2867 3.89224L13.9938 3.18514ZM13.3787 5.59975L14.1389 4.07942L13.2445 3.6322L12.4843 5.15253L13.3787 5.59975ZM12.4772 5.83486C12.5408 5.97032 12.5984 6.10907 12.6497 6.2508L13.5899 5.91013C13.5282 5.73979 13.459 5.57305 13.3827 5.41033L12.4772 5.83486ZM15.0655 6.31657L13.4532 5.77913L13.137 6.72782L14.7493 7.26525L15.0655 6.31657ZM15.5953 8.85332V7.05154H14.5953V8.85332H15.5953ZM13.4532 10.1257L15.0655 9.58829L14.7493 8.6396L13.137 9.17704L13.4532 10.1257ZM12.6497 9.65405C12.5984 9.79578 12.5408 9.93454 12.4772 10.07L13.3827 10.4945C13.459 10.3318 13.5282 10.1651 13.5899 9.99472L12.6497 9.65405ZM14.1389 11.8254L13.3787 10.3051L12.4843 10.7523L13.2445 12.2727L14.1389 11.8254ZM12.7197 13.9938L13.9938 12.7197L13.2867 12.0126L12.0126 13.2867L12.7197 13.9938ZM10.3051 13.3787L11.8254 14.1389L12.2726 13.2445L10.7523 12.4843L10.3051 13.3787ZM10.07 12.4772C9.93454 12.5408 9.79578 12.5984 9.65405 12.6497L9.99472 13.5899C10.1651 13.5282 10.3318 13.459 10.4945 13.3827L10.07 12.4772ZM9.58829 15.0655L10.1257 13.4532L9.17704 13.137L8.6396 14.7493L9.58829 15.0655ZM7.05154 15.5953H8.85332V14.5953H7.05154V15.5953ZM5.77913 13.4532L6.31657 15.0655L7.26525 14.7493L6.72782 13.137L5.77913 13.4532ZM6.2508 12.6497C6.06208 12.5813 5.87862 12.5019 5.7012 12.4121L5.24979 13.3044C5.46287 13.4122 5.6833 13.5077 5.91013 13.5899L6.2508 12.6497ZM4.11989 14.0986L5.45937 13.2949L4.94487 12.4374L3.60539 13.2411L4.11989 14.0986ZM1.92275 12.7314L3.17348 13.9821L3.88059 13.275L2.62986 12.0243L1.92275 12.7314ZM2.60993 10.4455L1.80624 11.785L2.66374 12.2995L3.46742 10.96L2.60993 10.4455ZM3.49273 10.2037C3.38086 9.98252 3.28499 9.752 3.20661 9.51358L2.25663 9.82588C2.35084 10.1125 2.46605 10.3895 2.60042 10.6551L3.49273 10.2037ZM0.896397 9.58842L2.41149 9.9672L2.65402 8.99705L1.13893 8.61828L0.896397 9.58842ZM0.30957 7.06803L0.30957 8.83683H1.30957L1.30957 7.06803H0.30957ZM2.41149 5.93766L0.896397 6.31643L1.13893 7.28657L2.65402 6.9078L2.41149 5.93766ZM3.20661 6.39127C3.28499 6.15286 3.38086 5.92234 3.49273 5.7012L2.60041 5.24979C2.46605 5.51538 2.35084 5.79239 2.25663 6.07898L3.20661 6.39127ZM1.80624 4.11989L2.60993 5.45937L3.46742 4.94487L2.66373 3.60539L1.80624 4.11989ZM3.17348 1.92275L1.92274 3.17348L2.62985 3.88059L3.88058 2.62986L3.17348 1.92275ZM5.45936 2.60993L4.11988 1.80624L3.60539 2.66374L4.94487 3.46742L5.45936 2.60993ZM5.7012 3.49273C5.92233 3.38086 6.15286 3.28499 6.39127 3.20661L6.07897 2.25663C5.79239 2.35084 5.51538 2.46605 5.24978 2.60042L5.7012 3.49273ZM6.31643 0.896397L5.93766 2.41149L6.9078 2.65402L7.28657 1.13893L6.31643 0.896397ZM6.39127 3.20661C6.63904 3.12516 6.84069 2.92246 6.9078 2.65402L5.93766 2.41149C5.95764 2.33154 6.01578 2.27741 6.07897 2.25663L6.39127 3.20661ZM4.94487 3.46742C5.18222 3.60983 5.4683 3.61055 5.7012 3.49273L5.24978 2.60042C5.30923 2.57034 5.38869 2.56752 5.45936 2.60993L4.94487 3.46742ZM3.88058 2.62986C3.80749 2.70295 3.69403 2.71692 3.60539 2.66374L4.11988 1.80624C3.81505 1.62334 3.42485 1.67138 3.17348 1.92275L3.88058 2.62986ZM2.66373 3.60539C2.71691 3.69403 2.70295 3.8075 2.62985 3.88059L1.92274 3.17348C1.67137 3.42486 1.62334 3.81505 1.80624 4.11989L2.66373 3.60539ZM3.49273 5.7012C3.61055 5.46831 3.60983 5.18222 3.46742 4.94487L2.60993 5.45937C2.56752 5.38869 2.57034 5.30924 2.60041 5.24979L3.49273 5.7012ZM2.65402 6.9078C2.92246 6.84069 3.12516 6.63904 3.20661 6.39127L2.25663 6.07898C2.27741 6.01578 2.33154 5.95765 2.41149 5.93766L2.65402 6.9078ZM1.30957 7.06803C1.30957 7.1714 1.23922 7.2615 1.13893 7.28657L0.896397 6.31643C0.551515 6.40265 0.30957 6.71253 0.30957 7.06803H1.30957ZM1.13893 8.61828C1.23922 8.64335 1.30957 8.73346 1.30957 8.83683H0.30957C0.30957 9.19233 0.551515 9.5022 0.896397 9.58842L1.13893 8.61828ZM3.20661 9.51358C3.12516 9.26581 2.92246 9.06416 2.65402 8.99705L2.41149 9.9672C2.33154 9.94721 2.27741 9.88908 2.25663 9.82588L3.20661 9.51358ZM3.46742 10.96C3.60983 10.7226 3.61055 10.4366 3.49273 10.2037L2.60042 10.6551C2.57034 10.5956 2.56752 10.5162 2.60993 10.4455L3.46742 10.96ZM2.62986 12.0243C2.70295 12.0974 2.71692 12.2108 2.66374 12.2995L1.80624 11.785C1.62334 12.0898 1.67138 12.48 1.92275 12.7314L2.62986 12.0243ZM3.60539 13.2411C3.69403 13.1879 3.8075 13.2019 3.88059 13.275L3.17348 13.9821C3.42486 14.2335 3.81505 14.2815 4.11989 14.0986L3.60539 13.2411ZM5.7012 12.4121C5.46831 12.2943 5.18223 12.295 4.94487 12.4374L5.45937 13.2949C5.38869 13.3373 5.30924 13.3345 5.24979 13.3044L5.7012 12.4121ZM6.72782 13.137C6.65003 12.9037 6.46926 12.7289 6.2508 12.6497L5.91013 13.5899C5.85414 13.5696 5.80227 13.5227 5.77913 13.4532L6.72782 13.137ZM7.05154 14.5953C7.1485 14.5953 7.23459 14.6573 7.26525 14.7493L6.31657 15.0655C6.42202 15.3819 6.71807 15.5953 7.05154 15.5953V14.5953ZM8.6396 14.7493C8.67026 14.6573 8.75635 14.5953 8.85332 14.5953V15.5953C9.18678 15.5953 9.48283 15.3819 9.58829 15.0655L8.6396 14.7493ZM9.65405 12.6497C9.43559 12.7289 9.25482 12.9037 9.17704 13.137L10.1257 13.4532C10.1026 13.5227 10.0507 13.5696 9.99472 13.5899L9.65405 12.6497ZM10.7523 12.4843C10.5322 12.3742 10.2806 12.3785 10.07 12.4772L10.4945 13.3827C10.4405 13.408 10.3706 13.4115 10.3051 13.3787L10.7523 12.4843ZM12.0126 13.2867C12.0812 13.2181 12.1859 13.2011 12.2726 13.2445L11.8254 14.1389C12.1237 14.288 12.4839 14.2296 12.7197 13.9938L12.0126 13.2867ZM13.2445 12.2727C13.2011 12.1859 13.2181 12.0812 13.2867 12.0126L13.9938 12.7197C14.2296 12.4839 14.288 12.1237 14.1389 11.8254L13.2445 12.2727ZM12.4772 10.07C12.3785 10.2806 12.3742 10.5322 12.4843 10.7523L13.3787 10.3051C13.4115 10.3706 13.408 10.4405 13.3827 10.4945L12.4772 10.07ZM13.137 9.17704C12.9037 9.25482 12.7289 9.43559 12.6497 9.65405L13.5899 9.99472C13.5696 10.0507 13.5227 10.1026 13.4532 10.1257L13.137 9.17704ZM14.5953 8.85332C14.5953 8.75635 14.6573 8.67027 14.7493 8.6396L15.0655 9.58829C15.3819 9.48284 15.5953 9.18678 15.5953 8.85332H14.5953ZM14.7493 7.26525C14.6573 7.23459 14.5953 7.1485 14.5953 7.05154H15.5953C15.5953 6.71807 15.3819 6.42202 15.0655 6.31657L14.7493 7.26525ZM12.6497 6.2508C12.7289 6.46927 12.9037 6.65003 13.137 6.72782L13.4532 5.77913C13.5227 5.80227 13.5696 5.85414 13.5899 5.91013L12.6497 6.2508ZM12.4843 5.15253C12.3742 5.37268 12.3785 5.62429 12.4772 5.83486L13.3827 5.41033C13.408 5.46433 13.4115 5.53427 13.3787 5.59975L12.4843 5.15253ZM13.2867 3.89224C13.2181 3.82368 13.2011 3.71893 13.2445 3.6322L14.1389 4.07942C14.288 3.78116 14.2296 3.42093 13.9938 3.18514L13.2867 3.89224ZM12.2727 2.66039C12.1859 2.70375 12.0812 2.68676 12.0126 2.61819L12.7197 1.91109C12.4839 1.67529 12.1237 1.61683 11.8254 1.76596L12.2727 2.66039ZM10.07 3.42761C10.2806 3.52634 10.5322 3.53063 10.7523 3.42055L10.3051 2.52613C10.3706 2.49339 10.4405 2.49688 10.4945 2.52219L10.07 3.42761ZM8.99705 2.65402C9.06416 2.92245 9.26581 3.12516 9.51358 3.20661L9.82588 2.25663C9.88908 2.27741 9.94721 2.33154 9.96719 2.41149L8.99705 2.65402ZM7.06802 0.30957C6.71253 0.30957 6.40265 0.551515 6.31643 0.896397L7.28657 1.13893C7.2615 1.23922 7.1714 1.30957 7.06802 1.30957V0.30957ZM8.83683 1.30957C8.73346 1.30957 8.64335 1.23922 8.61828 1.13893L9.58842 0.896397C9.5022 0.551515 9.19232 0.30957 8.83683 0.30957V1.30957ZM10.1997 7.95243C10.1997 9.19355 9.19355 10.1997 7.95243 10.1997V11.1997C9.74584 11.1997 11.1997 9.74584 11.1997 7.95243H10.1997ZM7.95243 10.1997C6.7113 10.1997 5.70517 9.19355 5.70517 7.95243H4.70517C4.70517 9.74584 6.15902 11.1997 7.95243 11.1997V10.1997ZM5.70517 7.95243C5.70517 6.7113 6.7113 5.70517 7.95243 5.70517V4.70517C6.15902 4.70517 4.70517 6.15902 4.70517 7.95243H5.70517ZM7.95243 5.70517C9.19355 5.70517 10.1997 6.7113 10.1997 7.95243H11.1997C11.1997 6.15902 9.74584 4.70517 7.95243 4.70517V5.70517Z" fill="#6B7280"/>
</svg>
