<svg xmlns="http://www.w3.org/2000/svg" width="25" height="24" viewBox="0 0 25 24" fill="none">
  <path d="M15.5 22.75H9.5C4.07 22.75 1.75 20.43 1.75 15V9C1.75 3.57 4.07 1.25 9.5 1.25H15.5C20.93 1.25 23.25 3.57 23.25 9V15C23.25 20.43 20.93 22.75 15.5 22.75ZM9.5 2.75C4.89 2.75 3.25 4.39 3.25 9V15C3.25 19.61 4.89 21.25 9.5 21.25H15.5C20.11 21.25 21.75 19.61 21.75 15V9C21.75 4.39 20.11 2.75 15.5 2.75H9.5Z" fill="#357EEB"/>
  <path d="M22.4998 9.25H2.52979C2.11979 9.25 1.77979 8.91 1.77979 8.5C1.77979 8.09 2.11979 7.75 2.52979 7.75H22.4998C22.9098 7.75 23.2498 8.09 23.2498 8.5C23.2498 8.91 22.9098 9.25 22.4998 9.25Z" fill="#357EEB"/>
  <path d="M22.4998 16.25H2.52979C2.11979 16.25 1.77979 15.91 1.77979 15.5C1.77979 15.09 2.11979 14.75 2.52979 14.75H22.4998C22.9098 14.75 23.2498 15.09 23.2498 15.5C23.2498 15.91 22.9098 16.25 22.4998 16.25Z" fill="#357EEB"/>
  <path d="M9.00977 22.7417C8.59977 22.7417 8.25977 22.4017 8.25977 21.9917V2.01172C8.25977 1.60172 8.59977 1.26172 9.00977 1.26172C9.41977 1.26172 9.75977 1.60172 9.75977 2.01172V21.9817C9.75977 22.4017 9.42977 22.7417 9.00977 22.7417Z" fill="#357EEB"/>
  <path d="M16.0098 22.7417C15.5998 22.7417 15.2598 22.4017 15.2598 21.9917V2.01172C15.2598 1.60172 15.5998 1.26172 16.0098 1.26172C16.4198 1.26172 16.7598 1.60172 16.7598 2.01172V21.9817C16.7598 22.4017 16.4298 22.7417 16.0098 22.7417Z" fill="#357EEB"/>
</svg>