<svg width="41" height="40" viewBox="0 0 41 40" fill="none" xmlns="http://www.w3.org/2000/svg">
<path d="M39.0638 13.621C39.0719 13.6156 39.0799 13.61 39.0877 13.6041C39.3231 13.4276 39.5875 13.1256 39.5875 12.6902C39.5875 12.3164 39.381 11.9323 39.0451 11.7468L22.7489 0.79707C22.7418 0.79231 22.7346 0.787732 22.7273 0.783341C22.3548 0.55985 21.8572 0.55985 21.4847 0.783341C21.4777 0.787505 21.4709 0.791838 21.4642 0.796334L1.35715 14.2295C1.29261 14.2644 1.22297 14.3105 1.15717 14.3763C1.08045 14.4531 1.03041 14.535 0.993913 14.608C0.976032 14.6438 0.962567 14.6814 0.953712 14.7201C0.917805 14.7929 0.891845 14.8679 0.875886 14.9477C0.855156 15.0513 0.855345 15.1496 0.855454 15.2061C0.855462 15.2099 0.855469 15.2136 0.855469 15.2171V26.995C0.855469 27.369 1.06241 27.7535 1.39886 27.9389L17.6956 38.8034C17.849 38.9057 18.0369 39.0159 18.3156 39.0159C18.5272 39.0159 18.7735 38.9517 18.9683 38.7816L39.1079 25.3552C39.1156 25.3501 39.1232 25.3447 39.1306 25.3392C39.3659 25.1627 39.6304 24.8607 39.6304 24.4252C39.6304 24.3977 39.6281 24.3702 39.6236 24.343C39.5679 24.0093 39.3909 23.63 39.0456 23.4393L36.1184 21.4614V15.5713L39.0638 13.621ZM6.41464 16.7897C6.38249 16.7494 6.34388 16.7138 6.29973 16.6846L4.0162 15.1734L22.1269 3.14039L36.3819 12.6437L34.5776 13.8258C34.414 13.8915 34.2639 13.9915 34.1488 14.0969L18.2726 24.681L6.41464 16.7897ZM6.8236 19.8346L17.61 27.0255C17.6166 27.0299 17.6233 27.0342 17.6301 27.0382C18.0026 27.2617 18.5002 27.2617 18.8727 27.0382C18.8796 27.0341 18.8864 27.0298 18.893 27.0253L33.8336 17.0514V21.1152L18.3545 31.3239L6.8236 23.9376V19.8346ZM5.08136 25.5105C5.09108 25.5178 5.10105 25.5247 5.11127 25.5313L17.7555 33.6475C17.8805 33.7515 18.0174 33.7954 18.1245 33.8148C18.2292 33.8339 18.3337 33.8337 18.3909 33.8336L18.4013 33.8336C18.6293 33.8336 18.8351 33.7614 18.9675 33.6952C18.9851 33.6863 19.0022 33.6765 19.0187 33.6657L34.7576 23.3133L36.3915 24.421L18.2733 36.4591L3.0975 26.3419V17.3416L4.58156 18.3139V24.5537C4.58156 24.9562 4.81118 25.3078 5.08136 25.5105Z" fill="#9CA3AF" stroke="#9CA3AF" stroke-linecap="round" stroke-linejoin="round"/>
<path d="M19.0534 8.81431L19.0533 8.81439L19.0613 8.81987L26.6848 14.045L26.6848 14.045L26.6901 14.0486C26.8662 14.1659 27.0911 14.261 27.3101 14.261C27.4855 14.261 27.6699 14.2253 27.8443 14.1272C28.013 14.0324 28.1434 13.8954 28.2426 13.7352C28.6193 13.1891 28.4377 12.5081 27.9434 12.155L27.9434 12.1549L27.9365 12.1501L20.3588 6.92712C19.8106 6.53867 19.1217 6.71922 18.7658 7.21742C18.3738 7.76627 18.554 8.45762 19.0534 8.81431Z" fill="#9CA3AF" stroke="#9CA3AF" stroke-linecap="round" stroke-linejoin="round"/>
</svg>
