<svg width="30" height="40" viewBox="0 0 30 40" fill="none" xmlns="http://www.w3.org/2000/svg">
<path d="M20.7284 3.82175V1.37512C20.7284 0.919797 20.3389 0.530273 19.8835 0.530273H10.485C10.0296 0.530273 9.64012 0.919797 9.64012 1.37512V3.82175H3.22785C1.7018 3.82175 0.479492 5.04406 0.479492 6.57011V36.471C0.479492 37.9971 1.7018 39.2194 3.22785 39.2194H26.8234C28.3494 39.2194 29.5718 37.9971 29.5718 36.471V6.57011H29.5719L29.5717 6.56297C29.5282 5.04387 28.3111 3.82175 26.7837 3.82175H20.7284ZM10.485 12.0151H19.8835C20.3389 12.0151 20.7284 11.6256 20.7284 11.1702V8.84258H24.3923V34.0003H5.61929V8.88224H9.64012V11.1702C9.64012 11.6761 10.0407 12.0151 10.485 12.0151ZM19.0387 2.21997V7.99774V10.3254H11.3298V7.99774V4.62694V2.21997H19.0387ZM27.8424 36.4314C27.8424 37.0071 27.3595 37.49 26.7837 37.49H3.22785C2.6521 37.49 2.16918 37.0071 2.16918 36.4314V6.57011C2.16918 5.99436 2.6521 5.51145 3.22785 5.51145H9.64012V7.19255H4.77445C4.31912 7.19255 3.9296 7.58207 3.9296 8.03739V34.8848C3.9296 35.3401 4.31912 35.7296 4.77445 35.7296H25.2371C25.6925 35.7296 26.082 35.3401 26.082 34.8848V8.03739C26.082 7.58207 25.6925 7.19255 25.2371 7.19255H20.7284V5.51145H26.7837C27.3595 5.51145 27.8424 5.99436 27.8424 6.57011V36.4314Z" fill="#9CA3AF" stroke="#9CA3AF" stroke-width="0.5" stroke-linecap="round" stroke-linejoin="round"/>
<path d="M6.58691 18.4669C6.58691 18.9222 6.97644 19.3118 7.43176 19.3118H22.6995C23.1548 19.3118 23.5443 18.9222 23.5443 18.4669C23.5443 18.0116 23.1548 17.6221 22.6995 17.6221H7.43176C6.97644 17.6221 6.58691 18.0116 6.58691 18.4669Z" fill="#9CA3AF" stroke="#9CA3AF" stroke-width="0.5" stroke-linecap="round" stroke-linejoin="round"/>
<path d="M22.6995 21.7861H7.43176C6.97644 21.7861 6.58691 22.1757 6.58691 22.631C6.58691 23.0863 6.97644 23.4758 7.43176 23.4758H22.6995C23.1548 23.4758 23.5443 23.0863 23.5443 22.631C23.5443 22.1757 23.1548 21.7861 22.6995 21.7861Z" fill="#9CA3AF" stroke="#9CA3AF" stroke-width="0.5" stroke-linecap="round" stroke-linejoin="round"/>
<path d="M22.6995 26.1479H7.43176C6.97644 26.1479 6.58691 26.5375 6.58691 26.9928C6.58691 27.4481 6.97644 27.8376 7.43176 27.8376H22.6995C23.1548 27.8376 23.5443 27.4481 23.5443 26.9928C23.5443 26.5375 23.1548 26.1479 22.6995 26.1479Z" fill="#9CA3AF" stroke="#9CA3AF" stroke-width="0.5" stroke-linecap="round" stroke-linejoin="round"/>
</svg>
