<svg width="35" height="34" viewBox="0 0 35 34" fill="none" xmlns="http://www.w3.org/2000/svg">
<path d="M17.5 22.3125C14.5675 22.3125 12.1875 19.9325 12.1875 17C12.1875 14.0675 14.5675 11.6875 17.5 11.6875C20.4325 11.6875 22.8125 14.0675 22.8125 17C22.8125 19.9325 20.4325 22.3125 17.5 22.3125ZM17.5 13.8125C15.7433 13.8125 14.3125 15.2433 14.3125 17C14.3125 18.7567 15.7433 20.1875 17.5 20.1875C19.2567 20.1875 20.6875 18.7567 20.6875 17C20.6875 15.2433 19.2567 13.8125 17.5 13.8125Z" fill="url(#paint0_linear_6591_18813)"/>
<path d="M22.0501 31.4349C21.7526 31.4349 21.4551 31.3924 21.1576 31.3216C20.2793 31.0808 19.5426 30.5283 19.0751 29.7491L18.9051 29.4658C18.0693 28.0208 16.9218 28.0208 16.0859 29.4658L15.9301 29.7349C15.4626 30.5283 14.7259 31.0949 13.8476 31.3216C12.9551 31.5624 12.0343 31.4349 11.2551 30.9674L8.81844 29.5649C7.95427 29.0691 7.33094 28.2616 7.06177 27.2841C6.80677 26.3066 6.93427 25.3008 7.4301 24.4366C7.84094 23.7141 7.95427 23.0624 7.71344 22.6516C7.4726 22.2408 6.86344 21.9999 6.0276 21.9999C3.95927 21.9999 2.27344 20.3141 2.27344 18.2458V15.7524C2.27344 13.6841 3.95927 11.9983 6.0276 11.9983C6.86344 11.9983 7.4726 11.7574 7.71344 11.3466C7.95427 10.9358 7.8551 10.2841 7.4301 9.5616C6.93427 8.69744 6.80677 7.67744 7.06177 6.7141C7.31677 5.7366 7.9401 4.9291 8.81844 4.43327L11.2693 3.03077C12.8701 2.0816 14.9809 2.6341 15.9443 4.26327L16.1143 4.5466C16.9501 5.9916 18.0976 5.9916 18.9334 4.5466L19.0893 4.27744C20.0526 2.6341 22.1634 2.0816 23.7784 3.04494L26.2151 4.44744C27.0793 4.94327 27.7026 5.75077 27.9718 6.72827C28.2268 7.70577 28.0993 8.7116 27.6034 9.57577C27.1926 10.2983 27.0793 10.9499 27.3201 11.3608C27.5609 11.7716 28.1701 12.0124 29.0059 12.0124C31.0743 12.0124 32.7601 13.6983 32.7601 15.7666V18.2599C32.7601 20.3283 31.0743 22.0141 29.0059 22.0141C28.1701 22.0141 27.5609 22.2549 27.3201 22.6658C27.0793 23.0766 27.1784 23.7283 27.6034 24.4508C28.0993 25.3149 28.2409 26.3349 27.9718 27.2983C27.7168 28.2758 27.0934 29.0833 26.2151 29.5791L23.7643 30.9816C23.2259 31.2791 22.6451 31.4349 22.0501 31.4349ZM17.5026 26.1933C18.7634 26.1933 19.9393 26.9866 20.7468 28.3891L20.9026 28.6583C21.0726 28.9558 21.3559 29.1683 21.6959 29.2533C22.0359 29.3383 22.3759 29.2958 22.6593 29.1258L25.1101 27.7091C25.4784 27.4966 25.7618 27.1424 25.8751 26.7174C25.9884 26.2924 25.9318 25.8533 25.7193 25.4849C24.9118 24.0966 24.8126 22.6658 25.4359 21.5749C26.0593 20.4841 27.3484 19.8608 28.9634 19.8608C29.8701 19.8608 30.5926 19.1383 30.5926 18.2316V15.7383C30.5926 14.8458 29.8701 14.1091 28.9634 14.1091C27.3484 14.1091 26.0593 13.4858 25.4359 12.3949C24.8126 11.3041 24.9118 9.87327 25.7193 8.48494C25.9318 8.1166 25.9884 7.67744 25.8751 7.25244C25.7618 6.82744 25.4926 6.48744 25.1243 6.26077L22.6734 4.85827C22.0643 4.48994 21.2568 4.70244 20.8884 5.32577L20.7326 5.59494C19.9251 6.99744 18.7493 7.79077 17.4884 7.79077C16.2276 7.79077 15.0518 6.99744 14.2443 5.59494L14.0884 5.3116C13.7343 4.7166 12.9409 4.5041 12.3318 4.85827L9.88094 6.27494C9.5126 6.48744 9.22927 6.8416 9.11594 7.2666C9.0026 7.6916 9.05927 8.13077 9.27177 8.4991C10.0793 9.88744 10.1784 11.3183 9.5551 12.4091C8.93177 13.4999 7.6426 14.1233 6.0276 14.1233C5.12094 14.1233 4.39844 14.8458 4.39844 15.7524V18.2458C4.39844 19.1383 5.12094 19.8749 6.0276 19.8749C7.6426 19.8749 8.93177 20.4983 9.5551 21.5891C10.1784 22.6799 10.0793 24.1108 9.27177 25.4991C9.05927 25.8674 9.0026 26.3066 9.11594 26.7316C9.22927 27.1566 9.49844 27.4966 9.86677 27.7233L12.3176 29.1258C12.6151 29.3099 12.9693 29.3524 13.2951 29.2674C13.6351 29.1824 13.9184 28.9558 14.1026 28.6583L14.2584 28.3891C15.0659 27.0008 16.2418 26.1933 17.5026 26.1933Z" fill="url(#paint1_linear_6591_18813)"/>
<defs>
<linearGradient id="paint0_linear_6591_18813" x1="12.1875" y1="17" x2="22.8125" y2="17" gradientUnits="userSpaceOnUse">
<stop stop-color="#0D28BB"/>
<stop offset="1" stop-color="#357EEB"/>
</linearGradient>
<linearGradient id="paint1_linear_6591_18813" x1="2.27344" y1="17.0036" x2="32.7601" y2="17.0036" gradientUnits="userSpaceOnUse">
<stop stop-color="#0D28BB"/>
<stop offset="1" stop-color="#357EEB"/>
</linearGradient>
</defs>
</svg>
