<svg width="13" height="13" viewBox="0 0 13 13" fill="none" xmlns="http://www.w3.org/2000/svg">
<path d="M4.33366 1.62565C4.33366 1.3265 4.57617 1.08398 4.87533 1.08398H8.12533C8.42448 1.08398 8.66699 1.3265 8.66699 1.62565H9.75033C10.3486 1.62565 10.8337 2.11068 10.8337 2.70898V10.834C10.8337 11.4323 10.3486 11.9173 9.75033 11.9173H3.25033C2.65202 11.9173 2.16699 11.4323 2.16699 10.834V2.70898C2.16699 2.11068 2.65202 1.62565 3.25033 1.62565H4.33366ZM4.33366 2.70898H3.25033V10.834H9.75033V2.70898H8.66699V3.25065C8.66699 3.54981 8.42448 3.79232 8.12533 3.79232H4.87533C4.57617 3.79232 4.33366 3.54981 4.33366 3.25065V2.70898ZM7.58366 2.16732H5.41699V2.70898H7.58366V2.16732ZM8.50834 5.8468C8.71988 6.05834 8.71988 6.4013 8.50834 6.61283L6.34168 8.7795C6.13014 8.99104 5.78718 8.99104 5.57564 8.7795L4.49231 7.69617C4.28078 7.48463 4.28078 7.14167 4.49231 6.93014C4.70384 6.7186 5.04681 6.7186 5.25834 6.93014L5.95866 7.63045L7.74231 5.8468C7.95384 5.63527 8.29681 5.63527 8.50834 5.8468Z" fill="#BA75FF"/>
</svg>
