<svg width="57" height="49" viewBox="0 0 57 49" fill="none" xmlns="http://www.w3.org/2000/svg">
<path d="M26 35.2812C26 36.662 27.1193 37.7812 28.5 37.7812C29.8807 37.7812 31 36.662 31 35.2812H26ZM31 18.0312C31 16.6505 29.8807 15.5312 28.5 15.5312C27.1193 15.5312 26 16.6505 26 18.0312H31ZM19.875 24.1562C18.4943 24.1562 17.375 25.2755 17.375 26.6562C17.375 28.037 18.4943 29.1562 19.875 29.1562V24.1562ZM37.125 29.1562C38.5057 29.1562 39.625 28.037 39.625 26.6562C39.625 25.2755 38.5057 24.1562 37.125 24.1562V29.1562ZM56.875 41.75V13.7188H51.875V41.75H56.875ZM50.0689 6.90625H30.6562V11.9062H50.0689V6.90625ZM30.6562 6.90625C30.3086 6.90625 30.0565 6.81235 29.689 6.49737C29.1913 6.07076 28.7944 5.531 27.9948 4.57141C27.2835 3.7179 26.3326 2.65091 25.0005 1.82414C23.6189 0.966544 21.9477 0.4375 19.875 0.4375V5.4375C21.0367 5.4375 21.7913 5.71705 22.3637 6.07234C22.9858 6.45847 23.5173 7.00866 24.1537 7.77234C24.7017 8.42994 25.5177 9.50736 26.435 10.2936C27.4826 11.1916 28.8476 11.9062 30.6562 11.9062V6.90625ZM19.875 0.4375H6.93718V5.4375H19.875V0.4375ZM0.125 7.25V41.75H5.125V7.25H0.125ZM6.9375 48.5625H50.0625V43.5625H6.9375V48.5625ZM6.93718 0.4375C3.17449 0.4375 0.125 3.4878 0.125 7.25H5.125C5.125 6.24874 5.9364 5.4375 6.93718 5.4375V0.4375ZM56.875 13.7188C56.875 9.96117 53.8362 6.90625 50.0689 6.90625V11.9062C51.0651 11.9062 51.875 12.7129 51.875 13.7188H56.875ZM0.125 41.75C0.125 45.5124 3.17506 48.5625 6.9375 48.5625V43.5625C5.93648 43.5625 5.125 42.751 5.125 41.75H0.125ZM51.875 41.75C51.875 42.751 51.0635 43.5625 50.0625 43.5625V48.5625C53.8249 48.5625 56.875 45.5124 56.875 41.75H51.875ZM31 35.2812V18.0312H26V35.2812H31ZM19.875 29.1562L37.125 29.1562V24.1562L19.875 24.1562V29.1562Z" fill="#E0DCED"/>
</svg>
