<svg xmlns="http://www.w3.org/2000/svg" width="25" height="24" viewBox="0 0 25 24" fill="none">
  <path d="M6.5 14.8916C6.09 14.8916 5.75 14.5516 5.75 14.1416V9.85156C5.75 9.44156 6.09 9.10156 6.5 9.10156C6.91 9.10156 7.25 9.44156 7.25 9.85156V14.1416C7.25 14.5616 6.91 14.8916 6.5 14.8916Z" fill="#357EEB"/>
  <path d="M9.5 16.3197C9.09 16.3197 8.75 15.9797 8.75 15.5697V8.42969C8.75 8.01969 9.09 7.67969 9.5 7.67969C9.91 7.67969 10.25 8.01969 10.25 8.42969V15.5697C10.25 15.9897 9.91 16.3197 9.5 16.3197Z" fill="#357EEB"/>
  <path d="M12.5 17.75C12.09 17.75 11.75 17.41 11.75 17V7C11.75 6.59 12.09 6.25 12.5 6.25C12.91 6.25 13.25 6.59 13.25 7V17C13.25 17.41 12.91 17.75 12.5 17.75Z" fill="#357EEB"/>
  <path d="M15.5 16.3197C15.09 16.3197 14.75 15.9797 14.75 15.5697V8.42969C14.75 8.01969 15.09 7.67969 15.5 7.67969C15.91 7.67969 16.25 8.01969 16.25 8.42969V15.5697C16.25 15.9897 15.91 16.3197 15.5 16.3197Z" fill="#357EEB"/>
  <path d="M18.5 14.8916C18.09 14.8916 17.75 14.5516 17.75 14.1416V9.85156C17.75 9.44156 18.09 9.10156 18.5 9.10156C18.91 9.10156 19.25 9.44156 19.25 9.85156V14.1416C19.25 14.5616 18.91 14.8916 18.5 14.8916Z" fill="#357EEB"/>
  <path d="M15.5 22.75H9.5C4.07 22.75 1.75 20.43 1.75 15V9C1.75 3.57 4.07 1.25 9.5 1.25H15.5C20.93 1.25 23.25 3.57 23.25 9V15C23.25 20.43 20.93 22.75 15.5 22.75ZM9.5 2.75C4.89 2.75 3.25 4.39 3.25 9V15C3.25 19.61 4.89 21.25 9.5 21.25H15.5C20.11 21.25 21.75 19.61 21.75 15V9C21.75 4.39 20.11 2.75 15.5 2.75H9.5Z" fill="#357EEB"/>
</svg>
