<svg xmlns="http://www.w3.org/2000/svg" width="25" height="24" viewBox="0 0 25 24" fill="none">
  <path d="M15.5 22.75H9.5C4.07 22.75 1.75 20.43 1.75 15V9C1.75 3.57 4.07 1.25 9.5 1.25H15.5C20.93 1.25 23.25 3.57 23.25 9V15C23.25 20.43 20.93 22.75 15.5 22.75ZM9.5 2.75C4.89 2.75 3.25 4.39 3.25 9V15C3.25 19.61 4.89 21.25 9.5 21.25H15.5C20.11 21.25 21.75 19.61 21.75 15V9C21.75 4.39 20.11 2.75 15.5 2.75H9.5Z" fill="#357EEB"/>
  <path d="M17.9999 17.8281H16.1499C15.7399 17.8281 15.3999 17.4881 15.3999 17.0781C15.3999 16.6681 15.7399 16.3281 16.1499 16.3281H17.9999C18.4099 16.3281 18.7499 16.6681 18.7499 17.0781C18.7499 17.4881 18.4099 17.8281 17.9999 17.8281Z" fill="#357EEB"/>
  <path d="M13.47 17.8281H7C6.59 17.8281 6.25 17.4881 6.25 17.0781C6.25 16.6681 6.59 16.3281 7 16.3281H13.47C13.88 16.3281 14.22 16.6681 14.22 17.0781C14.22 17.4881 13.89 17.8281 13.47 17.8281Z" fill="#357EEB"/>
  <path d="M18.0002 14.0703H12.4702C12.0602 14.0703 11.7202 13.7303 11.7202 13.3203C11.7202 12.9103 12.0602 12.5703 12.4702 12.5703H18.0002C18.4102 12.5703 18.7502 12.9103 18.7502 13.3203C18.7502 13.7303 18.4102 14.0703 18.0002 14.0703Z" fill="#357EEB"/>
  <path d="M9.77 14.0703H7C6.59 14.0703 6.25 13.7303 6.25 13.3203C6.25 12.9103 6.59 12.5703 7 12.5703H9.77C10.18 12.5703 10.52 12.9103 10.52 13.3203C10.52 13.7303 10.18 14.0703 9.77 14.0703Z" fill="#357EEB"/>
</svg>