<svg xmlns="http://www.w3.org/2000/svg" width="25" height="24" viewBox="0 0 25 24" fill="none">
  <path d="M13.7197 12.3333H11.1977L10.1697 19.4867C9.89972 21.3585 8.19672 22.7692 6.20672 22.7692H3.82572C3.82572 22.7692 3.09473 22.6196 3.09473 21.8462C3.09473 21.0727 3.82572 20.8718 3.82572 20.8718H6.20672C7.20172 20.8718 8.05372 20.1659 8.18872 19.2305L9.17972 12.3333H6.14872C6.14872 12.3333 5.59656 12 5.68932 11.3846C5.7956 10.6795 6.43472 10.4359 6.43472 10.4359H9.45272L10.4807 3.28256C10.7507 1.41074 12.4537 0 14.4437 0H16.8247C17.365 0.307692 17.3616 0.780962 17.365 0.923077C17.3698 1.12585 17.365 1.53846 16.8247 1.89744H14.4437C13.4487 1.89744 12.5967 2.60328 12.4617 3.53872L11.4707 10.4359H14.0057C14.0057 10.4359 14.5277 10.8428 14.4461 11.3846C14.338 12.1018 13.7197 12.3333 13.7197 12.3333ZM21.7097 14.2308C20.9326 13.5385 20.2839 13.5385 19.3787 14.2308L17.8247 16.6785L16.2057 14.2308C16.0677 14.1538 15.7434 13.5385 15.0947 13.5385C14.4461 13.5385 14.1218 13.8462 13.8747 14.2308L16.6527 18.4972L13.8747 22.7692C13.8747 22.7692 13.7974 23.3846 14.7704 23.3846C15.7434 23.3846 16.2017 22.7692 16.2017 22.7692L17.8247 20.3149L19.3827 22.7692C19.3827 22.7692 19.9596 23.3846 20.9326 23.3846C21.7097 23.3846 21.7097 22.7692 21.7097 22.7692L18.9967 18.4972L21.7097 14.2308Z" fill="#357EEB"/>
</svg>