<svg width="48" height="53" viewBox="0 0 48 53" fill="none" xmlns="http://www.w3.org/2000/svg">
        <path d="M32.2507 2.38358L32.3614 2.50577L32.5226 2.53801L32.5227 2.53803L32.5228 2.53805L32.5231 2.53811L32.5244 2.53837L32.5339 2.54038C32.543 2.5423 32.5573 2.54542 32.5767 2.5498C32.6154 2.55856 32.6739 2.57235 32.7494 2.59173C32.9005 2.63051 33.1192 2.69153 33.3833 2.77913C33.9131 2.9549 34.617 3.23492 35.3219 3.65189C36.7377 4.48945 38.0826 5.8285 38.1578 7.9343L38.1721 8.33415L38.564 8.40763L38.5644 8.40771L38.5645 8.40774L38.5648 8.40779L38.5653 8.40789L38.5711 8.40908C38.578 8.4105 38.5895 8.41298 38.6055 8.41664C38.6374 8.42397 38.6868 8.43601 38.7506 8.45379C38.8784 8.48939 39.0631 8.54765 39.2813 8.63638C39.7199 8.8147 40.2814 9.11097 40.791 9.58281C41.297 10.0513 41.7549 10.6953 41.9946 11.5836C42.2348 12.474 42.2643 13.6412 41.8628 15.1669L41.7772 15.4923L42.0451 15.6932C42.0449 15.6931 42.0449 15.6931 42.0452 15.6933L42.0455 15.6935L42.0459 15.6938L42.0463 15.6942L42.0497 15.6968C42.0546 15.7006 42.063 15.7073 42.0748 15.7169C42.0983 15.7361 42.1351 15.7671 42.1829 15.8099C42.2786 15.8957 42.4181 16.029 42.5837 16.2116C42.915 16.577 43.3495 17.1388 43.7458 17.9117C44.5348 19.4501 45.1873 21.8523 44.538 25.2611L44.4759 25.5868L44.7508 25.77L44.751 25.7702L44.7513 25.7704L44.7517 25.7707L44.7518 25.7707L44.7592 25.7758C44.7667 25.781 44.7789 25.7897 44.7954 25.8017C44.8285 25.8257 44.8785 25.8633 44.9413 25.9139C45.0673 26.0152 45.2435 26.1679 45.4379 26.3682C45.829 26.7715 46.2793 27.3536 46.5516 28.086C46.8208 28.8099 46.921 29.6923 46.6027 30.725C46.2821 31.7651 45.5259 32.9926 44.0201 34.3763L43.8584 34.5249V34.7445V35.4152V35.4611L43.8665 35.5045L43.8665 35.5046L43.8666 35.5052L43.8667 35.5057L43.8668 35.5062L43.8672 35.5091L43.8678 35.5127C43.8687 35.5182 43.87 35.5264 43.8715 35.5371C43.8753 35.5639 43.8807 35.6068 43.8862 35.6644C43.8971 35.7798 43.908 35.9541 43.9056 36.1774C43.9008 36.6242 43.8427 37.2655 43.6262 38.0235C43.1954 39.531 42.1292 41.5315 39.5394 43.3929L39.5233 43.4045L39.5082 43.4173L39.8312 43.799C39.5082 43.4173 39.5082 43.4173 39.5081 43.4174L39.5079 43.4176L39.5073 43.418L39.5057 43.4194L39.4999 43.4244L39.4789 43.4424C39.4607 43.4581 39.4342 43.4812 39.3995 43.5118C39.3301 43.573 39.228 43.6644 39.0944 43.7873C38.8273 44.033 38.4346 44.4046 37.9267 44.9126C36.9108 45.9284 35.4342 47.4896 33.5809 49.68L33.5734 49.6889L33.5663 49.6981C32.8126 50.6778 31.1254 51.7078 29.3358 51.5382C27.6226 51.3759 25.622 50.086 24.2344 46.0632V3.81897C24.3022 3.75403 24.3719 3.67691 24.439 3.59955C24.5154 3.51139 24.6143 3.392 24.7218 3.26208C24.8214 3.14176 24.9285 3.01241 25.0322 2.89049C25.5012 2.33909 26.105 1.68956 26.8229 1.20455C27.5374 0.721748 28.3319 0.423799 29.1984 0.517119C30.063 0.610228 31.0898 1.10267 32.2507 2.38358Z" fill="white" stroke="#BA75FF"/>
        <path d="M14.6799 2.04782C14.6799 2.04782 8.81127 3.22154 8.64359 7.91645C8.64359 7.91645 3.27799 8.9225 4.95474 15.2942C4.95474 15.2942 0.930536 18.3123 2.27194 25.3547C2.27194 25.3547 -3.26135 29.0435 2.94264 34.7445V35.4152C2.94264 35.4152 2.10426 39.9424 7.46987 43.799C7.46987 43.799 9.64965 45.6434 13.3385 50.0029C15.0153 52.1827 20.7162 54.5302 23.5667 46.1464V3.55689C23.0637 3.55689 19.5425 -3.31779 14.6799 2.04782Z" fill="#BA75FF"/>
        <path d="M39.3283 18.8152C37.9869 19.6535 36.4778 19.9889 34.9687 19.6535C33.4597 19.3182 32.2859 18.4798 31.2799 17.3061C30.4415 15.9647 30.1061 14.4556 30.4415 12.9465" stroke="#BA75FF" strokeMiterlimit="10"/>
        <path d="M34.9687 33.4028C33.6273 34.2412 32.1182 34.5765 30.6091 34.2412C29.1 33.9058 27.9263 33.0675 26.9203 31.8937C26.0819 30.5523 25.7465 29.0433 26.0819 27.5342" stroke="#BA75FF" strokeMiterlimit="10"/>
        <path d="M44.6938 34.577C43.3524 34.577 42.3463 33.9063 41.508 33.0679C40.6696 32.2295 40.3342 31.0558 40.3342 29.7144C40.3342 28.373 41.0049 27.3669 41.8433 26.5286" stroke="#BA75FF" strokeMiterlimit="10"/>
        <path d="M30.7767 25.5223C29.7707 24.3486 29.2677 23.0072 29.4353 21.3304C29.603 19.8213 30.2737 18.3123 31.4474 17.4739" stroke="#BA75FF" strokeMiterlimit="10"/>
        <path d="M41.005 32.5644C40.5019 31.223 39.4959 30.0492 38.1545 29.3785C36.8131 28.7078 35.1363 28.7078 33.7949 29.2109" stroke="#BA75FF" strokeMiterlimit="10"/>
        <path d="M34.6332 10.9343C33.6272 9.9283 32.7888 8.5869 32.7888 6.91014C32.7888 5.40107 33.2918 3.89199 34.2979 2.71826" stroke="#BA75FF" strokeMiterlimit="10"/>
        <path d="M27.0879 11.1023C28.597 11.1023 29.9384 10.5993 31.1121 9.42557C32.2858 8.25185 32.7889 6.91044 32.7889 5.40137" stroke="#BA75FF" strokeMiterlimit="10"/>
        <path d="M27.9263 47.823C29.1 46.6493 30.4414 46.1462 31.9505 46.1462C33.4596 46.1462 34.801 46.6493 35.9747 47.823" stroke="#BA75FF" strokeMiterlimit="10"/>
        <path d="M30.6091 38.9363C30.1061 40.4454 30.1061 41.9544 30.6091 43.2958C31.1121 44.6372 32.2858 45.811 33.7949 46.314" stroke="#BA75FF" strokeMiterlimit="10"/>
        <path d="M7.9729 18.8152C9.3143 19.6535 10.8234 19.9889 12.3325 19.6535C13.8415 19.3182 15.0153 18.4798 16.0213 17.3061C16.8597 15.9647 17.195 14.4556 16.8597 12.9465" stroke="white" strokeMiterlimit="10"/>
        <path d="M12.3324 33.4028C13.6738 34.2412 15.1829 34.5765 16.692 34.2412C18.201 33.9058 19.3748 33.0675 20.3808 31.8937C21.2192 30.5523 21.5545 29.0433 21.2192 27.5342" stroke="white" strokeMiterlimit="10"/>
        <path d="M2.6073 34.577C3.9487 34.577 4.95475 33.9063 5.79313 33.0679C6.63151 32.2295 6.96685 31.0558 6.96685 29.7144C6.96685 28.373 6.29615 27.3669 5.45778 26.5286" stroke="white" strokeMiterlimit="10"/>
        <path d="M16.5245 25.5223C17.5305 24.3486 18.0335 23.0072 17.8659 21.3304C17.6982 19.8213 17.0275 18.3123 15.8538 17.4739" stroke="white" strokeMiterlimit="10"/>
        <path d="M6.29614 32.5644C6.79917 31.223 7.80522 30.0492 9.14662 29.3785C10.488 28.7078 12.1648 28.7078 13.5062 29.2109" stroke="white" strokeMiterlimit="10"/>
        <path d="M12.6678 10.9343C13.6739 9.9283 14.5123 8.5869 14.5123 6.91014C14.5123 5.40107 14.0092 3.89199 13.0032 2.71826" stroke="white" strokeMiterlimit="10"/>
        <path d="M20.2132 11.2698C18.7041 11.2698 17.3627 10.7668 16.189 9.59305C15.0152 8.41933 14.5122 7.07792 14.5122 5.56885" stroke="white" strokeMiterlimit="10"/>
        <path d="M19.375 47.823C18.2012 46.6493 16.8598 46.1462 15.3507 46.1462C13.8417 46.1462 12.5003 46.6493 11.3265 47.823" stroke="white" strokeMiterlimit="10"/>
        <path d="M16.6921 38.9363C17.1951 40.4454 17.1951 41.9544 16.6921 43.2958C16.189 44.6372 15.0153 45.811 13.5062 46.314" stroke="white" strokeMiterlimit="10"/>
        </svg>