<svg width="200.521484" height="177.916748" viewBox="0 0 200.521 177.917" fill="none" xmlns="http://www.w3.org/2000/svg" xmlns:xlink="http://www.w3.org/1999/xlink">
	<desc>
			Created with Pixso.
	</desc>
	<defs>
		<linearGradient x1="156.367188" y1="23.917105" x2="163.800232" y2="23.917105" id="paint_linear_21130_124422_0" gradientUnits="userSpaceOnUse">
			<stop offset="0.135000" stop-color="#3170E7"/>
			<stop offset="1.000000" stop-color="#7A90F7"/>
		</linearGradient>
		<linearGradient x1="22.833984" y1="156.695099" x2="33.022499" y2="156.695099" id="paint_linear_21130_124424_0" gradientUnits="userSpaceOnUse">
			<stop offset="0.135000" stop-color="#3170E7"/>
			<stop offset="1.000000" stop-color="#7A90F7"/>
		</linearGradient>
		<linearGradient x1="177.865234" y1="49.909744" x2="188.290298" y2="49.909744" id="paint_linear_21130_124426_0" gradientUnits="userSpaceOnUse">
			<stop offset="0.135000" stop-color="#3170E7"/>
			<stop offset="1.000000" stop-color="#7A90F7"/>
		</linearGradient>
		<linearGradient x1="28.765625" y1="19.372726" x2="128.249115" y2="19.372726" id="paint_linear_21130_124428_0" gradientUnits="userSpaceOnUse">
			<stop offset="0.135000" stop-color="#3170E7"/>
			<stop offset="1.000000" stop-color="#7A90F7"/>
		</linearGradient>
		<linearGradient x1="15.099609" y1="118.939789" x2="200.521774" y2="118.939789" id="paint_linear_21130_124430_0" gradientUnits="userSpaceOnUse">
			<stop offset="0.135000" stop-color="#3170E7"/>
			<stop offset="1.000000" stop-color="#7A90F7"/>
		</linearGradient>
		<linearGradient x1="23.140625" y1="21.315552" x2="44.688889" y2="21.315552" id="paint_linear_21130_124441_0" gradientUnits="userSpaceOnUse">
			<stop offset="0.135000" stop-color="#3170E7"/>
			<stop offset="1.000000" stop-color="#7A90F7"/>
		</linearGradient>
		<linearGradient x1="142.062500" y1="115.775871" x2="150.125366" y2="115.775871" id="paint_linear_21130_124442_0" gradientUnits="userSpaceOnUse">
			<stop offset="0.135000" stop-color="#3170E7"/>
			<stop offset="1.000000" stop-color="#7A90F7"/>
		</linearGradient>
		<linearGradient x1="161.873047" y1="134.022034" x2="187.908905" y2="134.022034" id="paint_linear_21130_124446_0" gradientUnits="userSpaceOnUse">
			<stop offset="0.135000" stop-color="#3170E7"/>
			<stop offset="1.000000" stop-color="#7A90F7"/>
		</linearGradient>
		<linearGradient x1="116.662109" y1="134.080276" x2="159.957825" y2="134.080276" id="paint_linear_21130_124448_0" gradientUnits="userSpaceOnUse">
			<stop offset="0.135000" stop-color="#3170E7"/>
			<stop offset="1.000000" stop-color="#7A90F7"/>
		</linearGradient>
		<linearGradient x1="23.705078" y1="23.992592" x2="59.386757" y2="23.992592" id="paint_linear_21130_124450_0" gradientUnits="userSpaceOnUse">
			<stop offset="0.135000" stop-color="#3170E7"/>
			<stop offset="1.000000" stop-color="#7A90F7"/>
		</linearGradient>
		<linearGradient x1="28.867188" y1="69.313179" x2="53.621464" y2="69.313179" id="paint_linear_21130_124451_0" gradientUnits="userSpaceOnUse">
			<stop offset="0.135000" stop-color="#3170E7"/>
			<stop offset="1.000000" stop-color="#7A90F7"/>
		</linearGradient>
		<linearGradient x1="21.912109" y1="28.221565" x2="67.178238" y2="28.221565" id="paint_linear_21130_124452_0" gradientUnits="userSpaceOnUse">
			<stop offset="0.135000" stop-color="#3170E7"/>
			<stop offset="1.000000" stop-color="#7A90F7"/>
		</linearGradient>
		<linearGradient x1="20.339844" y1="59.985580" x2="53.983841" y2="59.985580" id="paint_linear_21130_124453_0" gradientUnits="userSpaceOnUse">
			<stop offset="0.135000" stop-color="#3170E7"/>
			<stop offset="1.000000" stop-color="#7A90F7"/>
		</linearGradient>
		<linearGradient x1="148.406250" y1="106.770020" x2="187.370270" y2="106.770020" id="paint_linear_21130_124454_0" gradientUnits="userSpaceOnUse">
			<stop offset="0.135000" stop-color="#3170E7"/>
			<stop offset="1.000000" stop-color="#7A90F7"/>
		</linearGradient>
		<linearGradient x1="148.603516" y1="100.818665" x2="187.503845" y2="100.818665" id="paint_linear_21130_124455_0" gradientUnits="userSpaceOnUse">
			<stop offset="0.135000" stop-color="#3170E7"/>
			<stop offset="1.000000" stop-color="#7A90F7"/>
		</linearGradient>
		<linearGradient x1="118.978516" y1="132.480576" x2="185.359406" y2="132.480576" id="paint_linear_21130_124456_0" gradientUnits="userSpaceOnUse">
			<stop offset="0.135000" stop-color="#3170E7"/>
			<stop offset="1.000000" stop-color="#7A90F7"/>
		</linearGradient>
		<linearGradient x1="18.802734" y1="42.236008" x2="80.348404" y2="42.236008" id="paint_linear_21130_124457_0" gradientUnits="userSpaceOnUse">
			<stop offset="0.135000" stop-color="#3170E7"/>
			<stop offset="1.000000" stop-color="#7A90F7"/>
		</linearGradient>
	</defs>
	<path id="Vector" d="M9.75 126.29C10.16 126.3 10.34 126.31 10.69 126.56C10.89 126.93 10.86 127.11 10.82 127.51C10.4 127.5 10.28 127.51 9.91 127.29C9.72 126.9 9.73 126.7 9.75 126.29Z" fill="#332F36" fill-opacity="1.000000" fill-rule="nonzero"/>
	<path id="Vector" d="M5.08 108.72C5.16 108.73 5.24 108.73 5.32 108.75C5.66 108.83 5.73 108.91 5.91 109.19C5.92 109.6 5.78 109.8 5.57 110.13C5.23 110.01 5.03 109.96 4.78 109.67C4.76 109.23 4.88 109.1 5.08 108.72Z" fill="#332F36" fill-opacity="1.000000" fill-rule="nonzero"/>
	<path id="Vector" d="M4.76 102.51C5.22 102.59 5.41 102.68 5.71 103.03C5.77 103.44 5.69 103.59 5.51 103.96C5.14 103.89 4.97 103.87 4.69 103.58C4.55 103.19 4.66 102.9 4.76 102.51Z" fill="#332F36" fill-opacity="1.000000" fill-rule="nonzero"/>
	<path id="Vector" d="M5.71 96.58C6.1 96.63 6.31 96.65 6.64 96.88C6.81 97.29 6.77 97.38 6.71 97.81C6.3 97.86 6.08 97.86 5.72 97.66C5.53 97.26 5.62 97 5.71 96.58Z" fill="#332F36" fill-opacity="1.000000" fill-rule="nonzero"/>
	<path id="Vector" d="M45.01 148.85C45.42 148.9 45.7 148.94 46.07 149.16C46.24 149.54 46.2 149.6 46.12 150.01C45.71 149.99 45.33 150.02 44.98 149.78C44.84 149.37 44.91 149.26 45.01 148.85Z" fill="#332F36" fill-opacity="1.000000" fill-rule="nonzero"/>
	<path id="Vector" d="M32.97 145.67C33.38 145.75 33.79 145.77 34.12 146.07C34.22 146.45 34.15 146.56 34.03 146.92C33.64 146.88 33.36 146.84 33.01 146.62C32.84 146.22 32.9 146.09 32.97 145.67Z" fill="#332F36" fill-opacity="1.000000" fill-rule="nonzero"/>
	<path id="Vector" d="M7.11 120.6C7.55 120.63 7.82 120.68 8.13 121C8.26 121.39 8.21 121.55 8.1 121.93C7.68 121.94 7.53 121.89 7.19 121.67C7.01 121.28 7.06 121.01 7.11 120.6Z" fill="#332F36" fill-opacity="1.000000" fill-rule="nonzero"/>
	<path id="Vector" d="M5.82 114.8C5.95 114.81 6.11 114.82 6.22 114.86C6.57 114.95 6.66 115.04 6.85 115.31C6.86 115.72 6.77 115.86 6.57 116.2C6.21 116.13 6.04 116.08 5.75 115.85C5.63 115.4 5.71 115.24 5.82 114.8Z" fill="#332F36" fill-opacity="1.000000" fill-rule="nonzero"/>
	<path id="Vector" d="M7.28 90.65C7.71 90.73 7.96 90.8 8.25 91.13C8.25 91.56 8.16 91.67 7.96 92.04C7.87 92.03 7.78 92.03 7.7 92.01C7.37 91.94 7.27 91.84 7.08 91.59C7.01 91.19 7.12 90.99 7.28 90.65Z" fill="#332F36" fill-opacity="1.000000" fill-rule="nonzero"/>
	<path id="Vector" d="M17.41 135.78C17.54 135.78 17.63 135.78 17.76 135.82C18.1 135.91 18.27 136.06 18.47 136.35C18.51 136.75 18.49 136.81 18.32 137.18C17.92 137.07 17.66 136.99 17.35 136.71C17.21 136.26 17.26 136.21 17.41 135.78Z" fill="#332F36" fill-opacity="1.000000" fill-rule="nonzero"/>
	<path id="Vector" d="M9.81 84.97C10.25 85.06 10.42 85.13 10.71 85.47C10.72 85.94 10.62 86.05 10.4 86.46C10.01 86.34 9.81 86.24 9.56 85.91C9.51 85.52 9.63 85.31 9.81 84.97Z" fill="#332F36" fill-opacity="1.000000" fill-rule="nonzero"/>
	<path id="Vector" d="M21.89 139.86C22.38 139.88 22.63 139.9 23.02 140.21C23.23 140.57 23.2 140.79 23.16 141.18C22.73 141.13 22.46 141.09 22.1 140.85C21.86 140.43 21.88 140.33 21.89 139.86Z" fill="#332F36" fill-opacity="1.000000" fill-rule="nonzero"/>
	<path id="Vector" d="M38.91 147.52C39.4 147.53 39.74 147.59 40.1 147.95C40.18 148.34 40.13 148.42 39.99 148.81C39.58 148.73 39.29 148.68 38.95 148.42C38.78 148.01 38.82 147.94 38.91 147.52Z" fill="#332F36" fill-opacity="1.000000" fill-rule="nonzero"/>
	<path id="Vector" d="M57.36 150.04C57.77 150.03 58.12 150 58.46 150.27C58.57 150.66 58.51 150.77 58.41 151.15C58 151.15 57.62 151.2 57.27 150.96C57.15 150.56 57.23 150.44 57.36 150.04Z" fill="#332F36" fill-opacity="1.000000" fill-rule="nonzero"/>
	<path id="Vector" d="M13.21 131.13C13.64 131.17 13.86 131.21 14.17 131.51C14.36 131.92 14.32 132.18 14.26 132.61C13.84 132.56 13.58 132.53 13.25 132.23C13.08 131.83 13.15 131.54 13.21 131.13Z" fill="#332F36" fill-opacity="1.000000" fill-rule="nonzero"/>
	<path id="Vector" d="M27.26 143.2C27.73 143.2 28.02 143.24 28.4 143.54C28.56 143.96 28.54 144.03 28.45 144.47C27.97 144.43 27.67 144.41 27.29 144.08C27.16 143.69 27.17 143.61 27.26 143.2Z" fill="#332F36" fill-opacity="1.000000" fill-rule="nonzero"/>
	<path id="Vector" d="M12.81 79.44C13.25 79.58 13.49 79.69 13.7 80.1C13.69 80.51 13.51 80.73 13.29 81.06C12.84 80.89 12.69 80.78 12.46 80.38C12.48 79.93 12.57 79.79 12.81 79.44Z" fill="#332F36" fill-opacity="1.000000" fill-rule="nonzero"/>
	<path id="Vector" d="M51.16 149.63C51.59 149.67 51.98 149.67 52.34 149.95C52.48 150.31 52.44 150.41 52.38 150.81C51.94 150.8 51.48 150.86 51.1 150.59C50.99 150.17 51.06 150.04 51.16 149.63Z" fill="#332F36" fill-opacity="1.000000" fill-rule="nonzero"/>
	<path id="Vector" d="M63.61 150.06C64.12 150.08 64.47 150.11 64.84 150.47C64.89 150.8 64.82 150.94 64.67 151.23C64.25 151.22 63.7 151.23 63.37 150.93C63.33 150.51 63.42 150.42 63.61 150.06Z" fill="#332F36" fill-opacity="1.000000" fill-rule="nonzero"/>
	<path id="Vector" d="M122.22 28.75C122.85 28.68 123.58 28.77 124.19 28.92C124.67 29.04 124.85 29.13 125.1 29.56C124.45 29.73 123.52 29.57 122.89 29.38C122.45 29.24 122.42 29.16 122.22 28.75Z" fill="#332F36" fill-opacity="1.000000" fill-rule="nonzero"/>
	<path id="Vector" d="M128.36 30.01C128.79 30.03 129.21 30.19 129.61 30.34C130.26 30.58 130.92 30.84 131.22 31.49C130.5 31.45 129.06 30.98 128.5 30.54C128.31 30.39 128.37 30.23 128.36 30.01Z" fill="#332F36" fill-opacity="1.000000" fill-rule="nonzero"/>
	<path id="Vector" d="M77.49 149.89L77.81 149.86L77.68 149.88L78.08 149.93L78.11 150.11L77.94 150.31C77.28 150.59 76.62 150.6 75.91 150.64C75.88 150.63 75.84 150.63 75.81 150.63C75.55 150.58 75.4 150.6 75.25 150.38C75.78 149.86 76.78 149.92 77.49 149.89Z" fill="#332F36" fill-opacity="1.000000" fill-rule="nonzero"/>
	<path id="Vector" d="M69.05 150.25C69.65 150.21 70.46 150.06 71.04 150.19C71.35 150.25 71.37 150.29 71.52 150.54L71.42 150.91C70.65 150.92 69.7 151.08 68.97 150.84L68.87 150.63L69.05 150.25Z" fill="#332F36" fill-opacity="1.000000" fill-rule="nonzero"/>
	<path id="Vector" d="M143.57 39.49C144.23 39.6 145.18 40.61 145.6 41.13C145.86 41.45 145.83 41.57 145.77 41.98C145.22 41.74 144.68 41.17 144.26 40.76C143.82 40.33 143.57 40.12 143.57 39.49Z" fill="#332F36" fill-opacity="1.000000" fill-rule="nonzero"/>
	<path id="Vector" d="M162.42 56.92C162.58 56.94 162.72 56.96 162.87 57.04C163.58 57.39 164.76 58.31 165.06 59.05C164.48 59.06 164.07 58.8 163.62 58.47C163.04 58.04 162.53 57.66 162.42 56.92Z" fill="#332F36" fill-opacity="1.000000" fill-rule="nonzero"/>
	<path id="Vector" d="M183.67 77.37C183.22 76.74 182.75 76.23 182.53 75.48L182.66 75.38C183.43 75.9 184.05 76.58 184.67 77.27C184.72 77.62 184.62 77.79 184.48 78.1C184.18 77.9 183.93 77.62 183.67 77.37Z" fill="#332F36" fill-opacity="1.000000" fill-rule="nonzero"/>
	<path id="Vector" d="M158.92 20.31C159.68 20.21 160.43 20.16 161.17 20.4C161.29 20.44 161.41 20.48 161.52 20.53C161.64 20.59 161.76 20.64 161.87 20.71C161.98 20.77 162.09 20.84 162.19 20.91C162.3 20.98 162.4 21.06 162.5 21.15C162.6 21.23 162.69 21.32 162.78 21.41C162.86 21.5 162.95 21.6 163.03 21.7C163.1 21.8 163.18 21.91 163.25 22.02C163.31 22.12 163.38 22.24 163.43 22.35C163.49 22.46 163.53 22.56 163.57 22.67C163.61 22.78 163.65 22.89 163.68 23C163.71 23.12 163.73 23.23 163.75 23.35C163.77 23.46 163.78 23.58 163.79 23.69C163.8 23.81 163.8 23.93 163.79 24.04C163.79 24.16 163.78 24.27 163.76 24.39C163.75 24.51 163.73 24.62 163.7 24.73C163.67 24.85 163.64 24.96 163.6 25.07C163.19 26.25 162.29 26.96 161.2 27.49C160.43 27.61 159.77 27.68 159 27.44C158.88 27.4 158.76 27.35 158.64 27.31C158.52 27.26 158.41 27.2 158.3 27.14C158.19 27.08 158.08 27.01 157.98 26.94C157.87 26.87 157.77 26.79 157.67 26.71C157.58 26.63 157.49 26.54 157.4 26.45C157.31 26.36 157.23 26.26 157.15 26.16C157.07 26.06 157 25.96 156.93 25.85C156.86 25.74 156.8 25.63 156.75 25.52C156.69 25.41 156.64 25.29 156.6 25.17C156.55 25.06 156.52 24.94 156.49 24.82C156.45 24.7 156.43 24.57 156.41 24.45C156.39 24.33 156.38 24.2 156.37 24.08C156.36 23.95 156.36 23.83 156.37 23.7C156.37 23.58 156.38 23.45 156.4 23.33C156.42 23.21 156.44 23.08 156.47 22.96C156.5 22.84 156.54 22.72 156.58 22.6C157 21.45 157.87 20.82 158.92 20.31Z" fill="url(#paint_linear_21130_124422_0)" fill-opacity="1.000000" fill-rule="nonzero"/>
	<path id="Vector" d="M159.94 21.37C160.57 21.42 161.14 21.52 161.66 21.9C162.47 22.51 162.6 23.41 162.72 24.34C162.6 24.62 162.48 24.9 162.34 25.17C161.92 25.98 161.29 26.25 160.47 26.5C159.86 26.49 159.3 26.42 158.77 26.11C158.69 26.06 158.62 26.01 158.54 25.96C158.47 25.9 158.4 25.84 158.33 25.78C158.27 25.72 158.2 25.66 158.14 25.59C158.08 25.53 158.02 25.46 157.97 25.38C157.92 25.31 157.86 25.24 157.82 25.16C157.77 25.08 157.73 25 157.69 24.92C157.65 24.84 157.62 24.75 157.59 24.67C157.56 24.58 157.53 24.5 157.51 24.41C157.49 24.33 157.47 24.25 157.46 24.16C157.45 24.08 157.44 24 157.44 23.91C157.43 23.83 157.43 23.75 157.44 23.66C157.45 23.58 157.46 23.5 157.47 23.41C157.49 23.33 157.5 23.25 157.53 23.17C157.55 23.09 157.58 23.01 157.61 22.93C157.64 22.86 157.68 22.78 157.72 22.71C157.76 22.63 157.8 22.56 157.85 22.49C158.37 21.75 159.1 21.53 159.94 21.37Z" fill="#FFFFFF" fill-opacity="1.000000" fill-rule="nonzero"/>
	<path id="Vector" d="M26.78 151.71C27.91 151.61 28.88 151.59 29.95 152.06C30.03 152.1 30.11 152.14 30.19 152.17C30.27 152.22 30.35 152.26 30.42 152.3C30.5 152.35 30.58 152.39 30.65 152.44C30.73 152.49 30.8 152.54 30.87 152.59C30.94 152.64 31.01 152.69 31.08 152.75C31.15 152.8 31.22 152.86 31.29 152.92C31.35 152.98 31.42 153.04 31.48 153.1C31.55 153.16 31.61 153.23 31.67 153.29C31.73 153.36 31.79 153.42 31.84 153.49C31.9 153.56 31.95 153.63 32.01 153.7C32.06 153.77 32.11 153.84 32.16 153.92C32.21 153.99 32.26 154.07 32.3 154.14C32.35 154.22 32.39 154.3 32.43 154.37C32.48 154.45 32.51 154.53 32.55 154.61C32.59 154.69 32.63 154.77 32.66 154.86C32.69 154.94 32.73 155.02 32.75 155.1C33.21 156.41 33.06 157.89 32.43 159.11C31.72 160.5 30.63 161.17 29.21 161.64C28.05 161.77 27.02 161.83 25.91 161.38C25.83 161.34 25.75 161.31 25.67 161.27C25.6 161.23 25.52 161.2 25.45 161.16C25.37 161.11 25.3 161.07 25.22 161.03C25.15 160.98 25.08 160.94 25.01 160.89C24.94 160.84 24.87 160.79 24.8 160.74C24.73 160.69 24.66 160.63 24.6 160.58C24.54 160.52 24.47 160.46 24.41 160.41C24.35 160.35 24.29 160.29 24.23 160.23C24.17 160.16 24.11 160.1 24.05 160.04C24 159.97 23.94 159.91 23.89 159.84C23.84 159.77 23.79 159.7 23.74 159.63C23.69 159.56 23.64 159.49 23.6 159.42C23.55 159.34 23.51 159.27 23.47 159.2C23.42 159.12 23.39 159.05 23.35 158.97C23.31 158.89 23.27 158.81 23.24 158.74C23.21 158.66 23.18 158.58 23.15 158.5C22.67 157.22 22.73 155.7 23.32 154.46C24.03 152.98 25.28 152.23 26.78 151.71Z" fill="url(#paint_linear_21130_124424_0)" fill-opacity="1.000000" fill-rule="nonzero"/>
	<path id="Vector" d="M27.25 152.36C28.21 152.31 29.09 152.39 29.96 152.84C30.08 152.9 30.2 152.98 30.33 153.05C30.44 153.13 30.56 153.21 30.67 153.3C30.78 153.39 30.89 153.49 30.99 153.59C31.09 153.69 31.19 153.79 31.28 153.9C31.37 154.01 31.45 154.13 31.53 154.25C31.61 154.37 31.68 154.49 31.75 154.61C31.82 154.74 31.88 154.87 31.93 155C31.99 155.13 32.03 155.27 32.07 155.41C32.42 156.58 32.27 157.92 31.65 158.98C30.95 160.16 29.91 160.71 28.63 161.05C27.61 161.1 26.69 160.99 25.78 160.48C25.66 160.41 25.53 160.33 25.41 160.24C25.3 160.16 25.18 160.07 25.08 159.98C24.97 159.88 24.86 159.78 24.76 159.68C24.66 159.57 24.57 159.46 24.48 159.35C24.39 159.23 24.31 159.12 24.24 158.99C24.16 158.87 24.09 158.74 24.03 158.61C23.96 158.49 23.91 158.35 23.85 158.22C23.8 158.08 23.76 157.94 23.72 157.8C23.42 156.64 23.61 155.32 24.26 154.3C24.97 153.18 26 152.65 27.25 152.36Z" fill="#FFFFFF" fill-opacity="1.000000" fill-rule="nonzero"/>
	<path id="Vector" d="M182.65 44.58C183.8 44.56 185 44.87 185.95 45.51C186.02 45.56 186.1 45.61 186.17 45.66C186.24 45.72 186.3 45.77 186.37 45.83C186.44 45.88 186.51 45.94 186.57 46C186.63 46.06 186.7 46.12 186.76 46.18C186.82 46.24 186.88 46.31 186.94 46.37C187 46.44 187.06 46.51 187.11 46.57C187.17 46.64 187.22 46.71 187.27 46.78C187.32 46.85 187.37 46.93 187.42 47C187.47 47.07 187.52 47.15 187.56 47.22C187.6 47.3 187.65 47.37 187.68 47.45C187.73 47.53 187.77 47.61 187.8 47.69C187.84 47.77 187.87 47.85 187.9 47.93C187.94 48.01 187.97 48.09 188 48.18C188.02 48.26 188.05 48.34 188.07 48.43C188.1 48.51 188.12 48.6 188.14 48.68C188.16 48.77 188.18 48.85 188.19 48.94C188.21 49.03 188.22 49.11 188.24 49.2C188.25 49.29 188.26 49.38 188.27 49.46C188.27 49.55 188.28 49.64 188.28 49.73C188.28 49.81 188.29 49.9 188.28 49.99C188.28 50.08 188.28 50.17 188.27 50.25C188.27 50.34 188.26 50.43 188.25 50.52C188.24 50.6 188.23 50.69 188.22 50.78C188.2 50.87 188.19 50.95 188.17 51.04C188.15 51.12 188.13 51.21 188.11 51.29C188.09 51.38 188.06 51.46 188.03 51.55C188.01 51.63 187.98 51.72 187.95 51.8C187.92 51.88 187.88 51.96 187.85 52.04C187.81 52.12 187.78 52.2 187.74 52.28C187.7 52.36 187.66 52.44 187.62 52.52C187.57 52.59 187.53 52.67 187.48 52.74C187.44 52.82 187.39 52.89 187.34 52.96C186.41 54.31 185.11 54.95 183.54 55.22C182.36 55.27 181.27 55.07 180.26 54.41C180.18 54.36 180.11 54.31 180.04 54.26C179.97 54.2 179.9 54.15 179.83 54.09C179.76 54.03 179.69 53.98 179.62 53.92C179.56 53.86 179.49 53.79 179.43 53.73C179.37 53.67 179.3 53.6 179.24 53.54C179.18 53.47 179.13 53.4 179.07 53.33C179.01 53.26 178.96 53.19 178.91 53.12C178.85 53.05 178.8 52.97 178.75 52.9C178.7 52.83 178.65 52.75 178.61 52.67C178.56 52.6 178.52 52.52 178.48 52.44C178.44 52.36 178.4 52.28 178.36 52.2C178.32 52.12 178.29 52.03 178.25 51.95C178.22 51.87 178.19 51.78 178.16 51.7C178.13 51.61 178.1 51.53 178.08 51.44C178.05 51.36 178.03 51.27 178.01 51.18C177.99 51.1 177.97 51.01 177.95 50.92C177.94 50.83 177.92 50.75 177.91 50.66C177.9 50.57 177.89 50.48 177.88 50.4C177.87 50.31 177.87 50.22 177.86 50.13C177.86 50.04 177.86 49.95 177.86 49.87C177.86 49.78 177.86 49.69 177.87 49.6C177.88 49.51 177.88 49.42 177.89 49.34C177.9 49.25 177.92 49.16 177.93 49.07C177.94 48.99 177.96 48.9 177.98 48.81C178 48.73 178.02 48.64 178.04 48.56C178.06 48.47 178.09 48.39 178.11 48.3C178.14 48.22 178.17 48.13 178.2 48.05C178.23 47.97 178.26 47.89 178.3 47.8C178.33 47.72 178.37 47.64 178.41 47.56C178.45 47.48 178.49 47.41 178.53 47.33C178.57 47.25 178.62 47.17 178.67 47.1C178.71 47.02 178.76 46.95 178.81 46.88C179.74 45.53 181.1 44.9 182.65 44.58Z" fill="url(#paint_linear_21130_124426_0)" fill-opacity="1.000000" fill-rule="nonzero"/>
	<path id="Vector" d="M182.91 45.78C183.57 45.8 184.18 45.91 184.79 46.18C184.85 46.2 184.92 46.23 184.98 46.26C185.04 46.3 185.1 46.33 185.17 46.36C185.23 46.4 185.29 46.43 185.35 46.47C185.4 46.51 185.46 46.55 185.52 46.59C185.58 46.63 185.63 46.67 185.69 46.71C185.74 46.76 185.8 46.8 185.85 46.85C185.9 46.89 185.95 46.94 186 46.99C186.05 47.04 186.1 47.09 186.15 47.14C186.2 47.19 186.24 47.24 186.29 47.3C186.33 47.35 186.37 47.41 186.42 47.46C186.46 47.52 186.5 47.58 186.54 47.64C186.57 47.69 186.61 47.75 186.65 47.81C186.68 47.87 186.72 47.94 186.75 48C186.78 48.06 186.81 48.12 186.84 48.19C186.87 48.25 186.9 48.32 186.92 48.38C186.95 48.45 186.97 48.51 186.99 48.58C187.36 49.66 187.28 50.84 186.74 51.84C186.06 53.11 184.94 53.73 183.6 54.12C182.67 54.2 181.78 54.04 180.98 53.54C180 52.93 179.34 51.89 179.13 50.76C178.92 49.65 179.15 48.46 179.81 47.53C180.58 46.44 181.63 45.98 182.91 45.78Z" fill="#FFFFFF" fill-opacity="1.000000" fill-rule="nonzero"/>
	<path id="Vector" d="M28.76 21.33C36.07 11.01 46.57 2.8 59.25 0.62C74.12 -1.94 88.56 3.68 100.52 12.19C105.54 15.76 110.02 20.12 114.39 24.44C117.16 27.14 119.9 29.87 122.61 32.63C124.51 34.59 126.27 36.77 128.25 38.64C122.9 38.87 117.04 38.64 111.64 38.63L81.35 38.7C81.23 37.63 81.04 36.56 80.78 35.51C80.52 34.46 80.19 33.43 79.79 32.42C77.15 25.67 71.6 20.43 65.01 17.58C55.41 13.42 44.7 15.07 35.22 18.6C33.02 19.41 30.93 20.46 28.76 21.33Z" fill="url(#paint_linear_21130_124428_0)" fill-opacity="1.000000" fill-rule="nonzero"/>
	<path id="Vector" d="M90.4 20.83C90.77 20.78 90.92 20.77 91.22 20.98L91.16 21.17C90.74 21.55 90.33 21.53 89.79 21.58C89.5 21.63 89.23 21.66 88.95 21.69L88.68 21.45L88.74 21.39L88.61 21.45C89.19 21.07 89.74 20.97 90.4 20.83Z" fill="#332F36" fill-opacity="1.000000" fill-rule="nonzero"/>
	<path id="Vector" d="M148.59 59.96C150.74 61.44 152.9 62.99 155.14 64.33C158.15 66.14 161.38 67.64 164.6 69.03C168.36 70.65 172.25 71.97 175.97 73.67C177.38 74.3 178.75 74.98 180.1 75.72C181.13 76.27 182.35 77.15 183.46 77.45L183.67 77.37C183.93 77.62 184.18 77.9 184.48 78.1C188.56 81.49 192.71 84.94 195.61 89.45C201.5 98.61 201.31 110.96 199.07 121.26C196.28 134.15 189.35 147.24 179.58 156.19C176.71 158.82 173.61 160.95 170.34 163.06L170.38 163.3C170.81 165.91 171.26 168.53 171.74 171.14C172.03 172.8 172.48 174.58 172.52 176.28C172.53 176.71 172.52 177.03 172.24 177.39C172.01 177.67 171.59 177.86 171.23 177.9C170.8 177.95 170.52 177.81 170.17 177.58C168.6 176.53 167.14 175.12 165.65 173.94L156.72 166.93C154.33 167.85 151.24 168.07 148.68 168.23C134.38 169.15 122.26 163.23 109.58 157.53C106.82 156.29 104.09 154.98 101.27 153.91C98.13 152.72 94.83 151.88 91.57 151.09C89.64 150.63 87.66 150.09 85.7 149.83L85.43 149.79C84.28 149.63 83.31 150.2 82.19 150.21C81.83 150.21 81.6 150.13 81.35 149.88C81.73 149.52 82.57 149.54 83.1 149.47C79.84 148.66 76.49 148.28 73.18 147.78C69.87 147.24 66.58 146.66 63.29 146.03C51.27 143.7 38.16 137.18 29.29 128.71C18.55 118.46 14.48 105.53 15.17 90.95C15.33 87.43 15.84 83.91 16.34 80.42C16.69 77.83 17.08 75.24 17.5 72.65C17.83 70.67 18.47 68.42 18.4 66.42C18.39 66.39 18.39 66.35 18.39 66.32C18.69 65.98 19.14 65.68 19.49 65.39C20.43 66.22 21.39 67.02 22.41 67.74C28.16 71.77 34.4 72.63 41.19 71.47C43.15 73.45 45.03 75.55 46.9 77.62C48.13 78.99 49.37 80.58 50.85 81.7C51.02 77.45 50.76 73.11 50.7 68.85C51.66 68.5 52.61 68.12 53.57 67.75L53.3 90.76C53.25 94.8 52.75 104.83 53.82 108.26C54.81 111.47 56.88 114 59.81 115.63C60.13 115.81 60.46 115.97 60.79 116.13C61.13 116.28 61.47 116.42 61.82 116.55C62.16 116.67 62.51 116.79 62.87 116.88C63.22 116.98 63.58 117.07 63.94 117.14C66.57 117.64 69.58 117.22 71.51 119.54C73.29 121.7 72.32 125.59 72.02 128.16C71.72 130.78 71.43 133.41 71.17 136.04C71.03 137.45 70.77 138.96 70.83 140.38C70.86 140.98 70.99 141.81 71.42 142.27C71.63 142.49 71.83 142.6 72.12 142.66C72.72 142.79 73.16 142.55 73.67 142.25C75.58 141.11 78.46 138.42 80.32 136.91L95.6 124.39C97.74 122.61 100.47 119.84 103.06 118.8C106.33 117.49 110.6 117.97 114.06 118.03C114.49 119.13 114.93 120.24 115.52 121.27C116.42 122.84 117.66 124.04 119.08 125.15C120.71 126.43 122.53 127.52 124.26 128.68C127.46 130.84 130.65 133.03 133.83 135.25L148.36 145.33C151.34 147.4 154.29 149.6 157.36 151.52C158.26 152.09 159.32 152.66 160.36 152.9C162.06 153.3 164.37 153.02 165.83 152.07C166.51 151.63 167.14 150.81 167.64 150.17C168.91 148.57 170.08 146.88 171.29 145.24L180.34 132.98C182.03 130.68 183.75 128.4 185.49 126.13C186.81 124.41 188.21 122.71 189.38 120.87C189.87 120.1 190.17 119.24 190.33 118.34C190.75 115.99 190.08 113.39 188.69 111.46C188.04 110.57 187.21 109.84 186.33 109.18C184.62 107.91 182.76 106.83 180.99 105.65C177.55 103.35 174.13 100.98 170.74 98.6L159.13 90.36C157.06 88.89 155 87.29 152.81 85.99C151.47 85.19 150.17 84.76 148.63 84.51C148.56 76.34 148.42 68.13 148.59 59.96Z" fill="url(#paint_linear_21130_124430_0)" fill-opacity="1.000000" fill-rule="nonzero"/>
	<path id="Vector" d="M96.78 148.31C96.92 148.4 96.94 148.51 97.01 148.65C96.48 149.11 94.78 149.03 94.04 149.08C93.98 149 93.94 148.86 93.9 148.77L94.07 148.59C94.94 148.37 95.89 148.36 96.78 148.31Z" fill="#332F36" fill-opacity="1.000000" fill-rule="nonzero"/>
	<path id="Vector" d="M190.05 91.42L190.44 91.57C190.93 92.33 190.79 93.87 190.82 94.78L190.55 94.73C190.01 94.18 190.08 92.22 190.05 91.42Z" fill="#332F36" fill-opacity="1.000000" fill-rule="nonzero"/>
	<path id="Vector" d="M185.95 80.25C186.11 80.26 186.33 80.24 186.48 80.31C186.77 80.46 187.09 81.05 187.24 81.34C187.5 81.87 187.73 82.37 187.54 82.93L187.2 82.76C186.7 82.06 186.09 81.11 185.95 80.25Z" fill="#332F36" fill-opacity="1.000000" fill-rule="nonzero"/>
	<path id="Vector" d="M117.46 148.52C118.27 148.39 119.82 148.36 120.56 148.76C120.76 148.87 120.75 149.08 120.8 149.29C119.92 149.28 118.52 149.29 117.72 148.94C117.51 148.85 117.53 148.72 117.46 148.52Z" fill="#332F36" fill-opacity="1.000000" fill-rule="nonzero"/>
	<path id="Vector" d="M89.65 148.83C89.77 148.8 89.8 148.8 89.93 148.79C90.22 148.78 90.46 148.76 90.68 148.95L90.57 149.16C90 149.52 89.42 149.52 88.76 149.56C88.25 149.63 87.88 149.71 87.42 149.41L87.49 149.24C88.16 148.91 88.91 148.89 89.65 148.83Z" fill="#332F36" fill-opacity="1.000000" fill-rule="nonzero"/>
	<path id="Vector" d="M129.29 150.73C130.03 150.75 130.87 151.05 131.56 151.3C132.15 151.52 132.6 151.63 132.87 152.23C131.92 152.25 130.54 151.82 129.7 151.34C129.37 151.15 129.38 151.1 129.29 150.73Z" fill="#332F36" fill-opacity="1.000000" fill-rule="nonzero"/>
	<path id="Vector" d="M135.3 152.83C136.33 153.03 138 153.83 138.84 154.48C139.1 154.68 139.03 154.68 139.07 154.97C138.09 154.98 136.39 154.1 135.61 153.49C135.31 153.25 135.34 153.2 135.3 152.83Z" fill="#332F36" fill-opacity="1.000000" fill-rule="nonzero"/>
	<path id="Vector" d="M140.79 155.73C141.12 155.76 141.39 155.8 141.7 155.94C142.66 156.35 144.38 157.14 144.79 158.15C144.63 158.12 144.49 158.09 144.33 158.03C143.35 157.66 141.24 156.71 140.79 155.73Z" fill="#332F36" fill-opacity="1.000000" fill-rule="nonzero"/>
	<path id="Vector" d="M28.76 21.33C30.93 20.46 33.02 19.41 35.22 18.6C44.7 15.07 55.41 13.42 65.01 17.58C71.6 20.43 77.15 25.67 79.79 32.42C80.19 33.43 80.52 34.46 80.78 35.51C81.04 36.56 81.23 37.63 81.35 38.7L111.64 38.63C117.04 38.64 122.9 38.87 128.25 38.64C134.3 38.66 139.78 37.65 144.47 42.38C147.76 45.7 148.66 49.39 148.61 53.94C148.59 55.95 148.52 57.95 148.59 59.96C148.42 68.13 148.56 76.34 148.63 84.51C150.17 84.76 151.47 85.19 152.81 85.99C155 87.29 157.06 88.89 159.13 90.36L170.74 98.6C174.13 100.98 177.55 103.35 180.99 105.65C182.76 106.83 184.62 107.91 186.33 109.18C187.21 109.84 188.04 110.57 188.69 111.46C190.08 113.39 190.75 115.99 190.33 118.34C190.17 119.24 189.87 120.1 189.38 120.87C188.21 122.71 186.81 124.41 185.49 126.13C183.75 128.4 182.03 130.68 180.34 132.98L171.29 145.24C170.08 146.88 168.91 148.57 167.64 150.17C167.14 150.81 166.51 151.63 165.83 152.07C164.37 153.02 162.06 153.3 160.36 152.9C159.32 152.66 158.26 152.09 157.36 151.52C154.29 149.6 151.34 147.4 148.36 145.33L133.83 135.25C130.66 133.03 127.46 130.84 124.26 128.68C122.53 127.52 120.71 126.43 119.08 125.15C117.66 124.04 116.42 122.84 115.52 121.27C114.93 120.24 114.49 119.13 114.06 118.03C110.6 117.97 106.33 117.49 103.06 118.81C100.47 119.84 97.74 122.61 95.6 124.39L80.32 136.91C78.46 138.42 75.58 141.11 73.67 142.25C73.16 142.55 72.72 142.79 72.12 142.66C71.83 142.6 71.63 142.49 71.42 142.27C70.99 141.81 70.86 140.98 70.83 140.38C70.77 138.96 71.03 137.45 71.17 136.04C71.43 133.41 71.72 130.78 72.02 128.16C72.32 125.59 73.29 121.7 71.51 119.54C69.58 117.22 66.58 117.64 63.94 117.14C63.58 117.07 63.22 116.98 62.87 116.89C62.51 116.79 62.16 116.67 61.82 116.55C61.47 116.42 61.13 116.28 60.79 116.13C60.46 115.97 60.13 115.81 59.81 115.63C56.88 114 54.81 111.47 53.82 108.26C52.76 104.83 53.25 94.8 53.3 90.76L53.57 67.75C52.61 68.12 51.66 68.5 50.7 68.85C50.76 73.11 51.02 77.45 50.85 81.7C49.37 80.58 48.13 78.99 46.9 77.62C45.03 75.55 43.15 73.45 41.19 71.47C34.4 72.63 28.16 71.77 22.41 67.74C21.39 67.02 20.43 66.22 19.49 65.39C19.14 65.68 18.69 65.98 18.39 66.32C7.9 75.28 2.04 89.16 0.81 102.73C-0.32 115.28 2.54 128.48 9.24 139.21C10.59 141.37 12.23 143.16 13.74 145.17C13.75 145.18 13.76 145.2 13.76 145.21L13.69 145.03L13.53 145.15C13.38 145.01 13.24 144.87 13.1 144.72C3.05 133.4 -0.84 117.95 0.14 103.07C0.17 102.61 0.21 102.16 0.25 101.7C0.29 101.25 0.33 100.79 0.38 100.34C0.43 99.89 0.49 99.43 0.55 98.98C0.61 98.53 0.68 98.08 0.75 97.63C0.83 97.17 0.91 96.73 0.99 96.28C1.08 95.83 1.17 95.38 1.26 94.93C1.36 94.49 1.46 94.04 1.57 93.6C1.67 93.15 1.78 92.71 1.9 92.27C2.02 91.83 2.14 91.39 2.27 90.95C2.4 90.51 2.53 90.08 2.67 89.64C2.81 89.21 2.95 88.77 3.1 88.34C3.25 87.91 3.41 87.48 3.57 87.05C3.73 86.62 3.89 86.2 4.06 85.78C4.24 85.35 4.41 84.93 4.59 84.51C4.77 84.09 4.96 83.68 5.15 83.26C5.34 82.85 5.54 82.43 5.74 82.03C5.94 81.62 6.15 81.21 6.36 80.8C6.57 80.4 6.79 80 7.01 79.6C7.23 79.2 7.46 78.8 7.69 78.41C7.92 78.02 8.16 77.62 8.4 77.24C8.64 76.85 8.89 76.46 9.14 76.08C9.39 75.7 9.64 75.32 9.9 74.95C10.16 74.57 10.43 74.2 10.69 73.83C10.96 73.46 11.24 73.1 11.52 72.73C11.79 72.37 12.08 72.01 12.36 71.66C12.65 71.3 12.94 70.95 13.24 70.6C13.53 70.25 13.83 69.91 14.14 69.57C14.44 69.23 14.75 68.89 15.06 68.56C15.37 68.23 15.69 67.9 16.01 67.57C16.33 67.25 16.66 66.93 16.99 66.61C17.31 66.29 17.65 65.98 17.98 65.67C18.32 65.36 18.66 65.06 19 64.76C18.07 63.79 17.21 62.76 16.42 61.67C12.43 56.16 10.3 48.83 11.39 42.05C12.51 35.11 16.98 28.7 22.78 24.83C24.66 23.58 26.85 22.73 28.64 21.42C28.68 21.39 28.72 21.36 28.76 21.33Z" fill="#332F36" fill-opacity="1.000000" fill-rule="nonzero"/>
	<path id="Vector" d="M19.47 56.67C19.46 57.72 19.23 62.55 18.8 63.26C17.47 61.83 16.39 60.16 15.4 58.49C16.75 57.88 18.11 57.27 19.47 56.67Z" fill="#FFFFFF" fill-opacity="1.000000" fill-rule="nonzero"/>
	<path id="Vector" d="M44.49 16.88L44.68 16.91C43.75 17.73 39.64 18.97 38.29 19.52C33.31 21.6 28.34 23.71 23.33 25.73L23.14 25.74C23.97 24.82 25.59 24.17 26.7 23.58C32.48 20.54 38.11 18.31 44.49 16.88Z" fill="url(#paint_linear_21130_124441_0)" fill-opacity="1.000000" fill-rule="nonzero"/>
	<path id="Vector" d="M147.37 110.21C147.49 110.36 149.69 119.99 150.12 121.33C149.06 120.55 147.96 119.83 146.85 119.11L142.06 116C144.35 114.38 146.01 112.69 147.37 110.21Z" fill="url(#paint_linear_21130_124442_0)" fill-opacity="1.000000" fill-rule="nonzero"/>
	<path id="Vector" d="M14.38 35.77C15.91 32.73 18.4 28.84 21.51 27.22C22.96 26.46 24.67 25.94 26.21 25.37C25.49 27.21 24.54 30.35 23.7 31.91C22.68 32.45 21.52 32.83 20.45 33.25C18.41 34.06 16.38 34.87 14.38 35.77Z" fill="#FFFFFF" fill-opacity="1.000000" fill-rule="nonzero"/>
	<path id="Vector" d="M12.72 51.64C15.38 50.62 17.97 49.42 20.58 48.27C20.27 50.71 19.73 53.3 19.71 55.75L19.46 55.91C17.96 56.5 16.49 57.21 15.01 57.86C14.51 56.87 14.07 55.86 13.68 54.82C13.3 53.78 12.98 52.72 12.72 51.64Z" fill="#FFFFFF" fill-opacity="1.000000" fill-rule="nonzero"/>
	<path id="Vector" d="M23.41 32.88L21.91 39.28C20.94 39.93 19.56 40.36 18.47 40.8C16.33 41.68 14.19 42.54 12.09 43.5C12.44 41.13 12.99 38.99 13.89 36.77C16.88 35.19 20.26 34.1 23.41 32.88Z" fill="#FFFFFF" fill-opacity="1.000000" fill-rule="nonzero"/>
	<path id="Vector" d="M187.9 117.61C187.92 118.4 187.6 118.95 187.19 119.6C186.07 121.35 184.74 123.01 183.49 124.67C180.91 128.1 178.25 131.47 175.68 134.9L168.12 145.1C166.99 146.6 165.87 148.34 164.55 149.67C163.83 150.39 162.96 150.44 161.99 150.43L161.87 150.25C162.07 149.51 165 145.95 165.6 145.18C172.78 135.78 180.21 126.59 187.9 117.61Z" fill="url(#paint_linear_21130_124446_0)" fill-opacity="1.000000" fill-rule="nonzero"/>
	<path id="Vector" d="M21.7 40.21C21.73 42.52 21.13 45.05 20.79 47.33C18.13 48.71 15.32 49.84 12.57 51C12.08 48.77 11.99 46.53 11.99 44.26L21.7 40.21Z" fill="#FFFFFF" fill-opacity="1.000000" fill-rule="nonzero"/>
	<path id="Vector" d="M116.66 118.29C117.64 118.69 119.84 120.56 120.88 121.31C122.67 122.59 124.48 123.84 126.31 125.08C133.85 130.2 141.35 135.37 148.82 140.58C151.72 142.62 154.92 144.51 157.66 146.75C158.66 147.56 159.3 148.76 159.95 149.86C159.65 149.79 159.37 149.7 159.09 149.56C157.18 148.64 155.38 147.18 153.64 145.97L142.86 138.48L128.2 128.49C125.54 126.69 122.62 124.97 120.17 122.91C118.77 121.73 117.26 120.04 116.66 118.29Z" fill="url(#paint_linear_21130_124448_0)" fill-opacity="1.000000" fill-rule="nonzero"/>
	<path id="Vector" d="M131.34 41.12C135.62 41.07 139.48 40.87 142.78 44.08C145.18 46.41 146.13 49.4 146.15 52.68C146.16 54.14 146.15 55.61 146.11 57.06C145.89 57 145.81 56.93 145.64 56.77C143.43 54.57 141.44 52.08 139.3 49.8C136.67 46.99 133.59 44.23 131.34 41.12Z" fill="#FFFFFF" fill-opacity="1.000000" fill-rule="nonzero"/>
	<path id="Vector" d="M26.21 25.37L40.3 19.54C43.12 18.39 46.21 16.88 49.19 16.32C51.99 15.8 56.65 16.12 59.38 16.84C51.26 19.99 43.27 23.56 35.28 27.03C31.46 28.68 27.63 30.54 23.7 31.91C24.54 30.35 25.49 27.21 26.21 25.37Z" fill="url(#paint_linear_21130_124450_0)" fill-opacity="1.000000" fill-rule="nonzero"/>
	<path id="Vector" d="M53.18 59.57L53.43 59.61C53.77 60.72 53.54 64.69 53.57 66.22C52.35 66.91 50.96 67.38 49.66 67.91L49.82 79.05C46.96 76.23 44.39 73.11 41.51 70.31C40.38 70.55 39.25 70.74 38.11 70.92C34.85 71.2 31.99 70.79 28.86 69.85C36.85 66.21 45.05 62.87 53.18 59.57Z" fill="url(#paint_linear_21130_124451_0)" fill-opacity="1.000000" fill-rule="nonzero"/>
	<path id="Vector" d="M60.62 17.16C62.91 17.78 65.06 18.63 67.17 19.71C52 26.04 36.91 32.56 21.91 39.27L23.41 32.88C25.22 31.97 27.2 31.28 29.07 30.5C31.97 29.31 34.84 28.06 37.72 26.82C45.31 23.57 52.88 20.02 60.62 17.16Z" fill="url(#paint_linear_21130_124452_0)" fill-opacity="1.000000" fill-rule="nonzero"/>
	<path id="Vector" d="M53.7 50.47L53.98 50.52C53.69 53.21 53.69 55.9 53.63 58.6C44.98 62.1 36.38 65.73 27.83 69.49C26.24 68.85 24.8 68.02 23.37 67.07C22.33 66.36 21.33 65.58 20.33 64.82C25.02 62.52 29.9 60.58 34.7 58.51C41.01 55.79 47.3 52.99 53.7 50.47Z" fill="url(#paint_linear_21130_124453_0)" fill-opacity="1.000000" fill-rule="nonzero"/>
	<path id="Vector" d="M148.66 92.94C149.24 93.64 150.81 99.25 151.24 100.48C152.77 104.8 154.29 109.16 156.01 113.41C163.62 113.61 171.28 114.24 178.87 114.87C180.8 115.03 185.41 115.23 187.09 115.82C187.14 115.83 187.36 115.93 187.37 115.95L187.22 116.18L187.27 116.28C186.52 116.85 185.35 117.18 184.47 117.52C178.27 119.43 171.73 119.87 165.28 120.25C160.64 120.53 155.95 120.74 151.31 120.44C150.26 116.46 148.9 112.25 148.42 108.16C148.3 107.13 148.68 106 148.69 104.95C148.72 100.96 148.48 96.93 148.66 92.94Z" fill="url(#paint_linear_21130_124454_0)" fill-opacity="1.000000" fill-rule="nonzero"/>
	<path id="Vector" d="M148.6 86.97C149.12 87.01 149.63 87.05 150.13 87.24C152.51 88.17 156.97 91.81 159.21 93.4C164.82 97.38 170.46 101.34 176.11 105.27C177.64 106.35 179.18 107.41 180.74 108.43C182.16 109.36 183.64 110.21 184.95 111.29C186.08 112.23 186.91 113.31 187.5 114.65C177.28 113.48 167.05 112.78 156.78 112.18C155.9 110.19 155.25 108.04 154.5 105.99C152.9 101.58 151.35 97.2 149.99 92.7C149.43 90.86 148.67 88.91 148.6 86.97Z" fill="url(#paint_linear_21130_124455_0)" fill-opacity="1.000000" fill-rule="nonzero"/>
	<path id="Vector" d="M141.28 116.44C142.08 116.61 143.92 118.2 144.71 118.76C148.17 121.2 151.67 123.59 155.09 126.08C157.13 127.59 159.18 129.06 161.27 130.49C161.91 130.94 162.68 131.61 163.39 131.93C163.71 132.07 163.75 132.03 164.05 131.89L164.14 131.63C163.9 130.96 152.6 123.16 150.98 121.85C153.11 121.85 155.24 121.98 157.37 121.95C161.16 121.91 164.92 121.62 168.69 121.3C174.6 120.79 179.63 120.25 185.35 118.63C177.18 128.51 169.1 138.47 161.13 148.52C160.44 147.61 159.76 146.67 158.93 145.88C157.42 144.44 155.56 143.31 153.83 142.15C151.89 140.85 149.95 139.53 148.04 138.19C142.39 134.5 136.86 130.55 131.33 126.69C127.21 123.81 123.01 121.03 118.97 118.03C122.2 117.95 125.44 117.99 128.68 117.98C131.09 119.43 133.42 121.07 135.74 122.65L147.66 130.86C150.19 132.61 158.89 139.14 161.29 139.69L161.38 139.56C160.44 138.2 156.55 135.79 155.04 134.72C146.97 129 138.79 123.44 130.5 118.04C134.31 118.03 137.79 118.25 141.28 116.44Z" fill="url(#paint_linear_21130_124456_0)" fill-opacity="1.000000" fill-rule="nonzero"/>
	<path id="Vector" d="M67.95 20.23C69.92 21.46 72.46 23.14 73.85 25.03C73.77 25.2 73.69 25.36 73.62 25.53C73.81 25.69 73.95 25.72 74.19 25.78C75.37 26.09 76.76 28.71 77.36 29.77C78.96 32.59 79.88 35.52 80.34 38.73L72.72 38.73C66.93 38.73 62.42 38.75 57.97 43.18C56.19 44.94 55.13 47.06 54.32 49.4C48.84 51.5 43.47 53.92 38.09 56.24C31.98 58.86 25.82 61.41 19.79 64.23C19.46 63.92 19.08 63.62 18.8 63.26C19.23 62.55 19.46 57.72 19.47 56.67L19.52 56.6L19.46 55.91L19.71 55.75C19.73 53.3 20.27 50.71 20.58 48.27C29.53 44.64 38.29 40.51 47.19 36.75L64.89 29.27C67.3 28.26 69.81 27.4 72.17 26.29L72.26 26.01L72.12 25.8C71.77 25.73 71.53 25.77 71.19 25.89C70.04 26.28 68.9 26.86 67.76 27.31C63.87 28.91 60 30.54 56.14 32.21C51.03 34.38 45.88 36.46 40.78 38.67C34.12 41.55 27.5 44.57 20.78 47.33C21.13 45.05 21.73 42.52 21.7 40.21C27.24 37.57 32.93 35.22 38.56 32.76C48.31 28.49 58.11 24.32 67.95 20.23Z" fill="url(#paint_linear_21130_124457_0)" fill-opacity="1.000000" fill-rule="nonzero"/>
	<path id="Vector" d="M19.71 55.75C24.42 53.93 29.05 51.78 33.69 49.79C42.62 45.87 51.59 42.06 60.61 38.36C64.5 36.75 68.48 34.74 72.46 33.41L72.65 33.57L72.68 33.91C72.22 34.41 61.83 38.6 60.47 39.19L32.56 51.08L24.36 54.59C22.77 55.27 21.16 56.05 19.52 56.6L19.46 55.91L19.71 55.75Z" fill="#332F36" fill-opacity="1.000000" fill-rule="nonzero"/>
	<path id="Vector" d="M73.25 139.6C73.52 135.66 74.13 131.68 74.56 127.74C74.74 126.04 75.02 124.28 74.98 122.56C74.91 118.84 72.5 116.03 68.91 115.21C67.86 114.96 66.73 114.99 65.65 114.89C63.02 114.65 60.58 113.58 58.69 111.72C56.12 109.18 55.65 106.12 55.64 102.65C55.59 92.68 55.86 82.7 55.89 72.72C55.9 68.21 55.96 63.69 56.05 59.17C56.1 56.58 55.94 53.78 56.43 51.22C56.49 50.92 56.55 50.62 56.63 50.33C56.71 50.03 56.8 49.73 56.9 49.44C57 49.15 57.11 48.87 57.23 48.59C57.35 48.3 57.49 48.03 57.63 47.75C57.77 47.48 57.92 47.21 58.08 46.95C58.25 46.69 58.42 46.44 58.6 46.19C58.78 45.94 58.97 45.7 59.17 45.47C59.37 45.23 59.58 45.01 59.79 44.79C60.02 44.56 60.25 44.35 60.5 44.14C60.74 43.93 60.99 43.73 61.25 43.55C61.51 43.36 61.77 43.18 62.05 43.01C62.32 42.84 62.6 42.69 62.88 42.54C63.17 42.39 63.46 42.26 63.75 42.14C64.05 42.01 64.34 41.9 64.65 41.8C64.95 41.7 65.26 41.61 65.57 41.53C65.88 41.45 66.19 41.39 66.51 41.33C68.94 40.92 71.56 41.11 74.02 41.11L86 41.13L131.34 41.12C133.59 44.24 136.67 46.99 139.3 49.8C141.44 52.09 143.43 54.57 145.64 56.77C145.81 56.94 145.89 57 146.11 57.07C146.26 60.2 146.14 63.4 146.13 66.54L146.11 84.42L146.14 97.82C146.14 100.22 146.28 102.69 146.12 105.08C145.81 109.56 142.92 113.48 138.62 114.89C135.81 115.81 132.7 115.55 129.78 115.55L114.55 115.53C111.72 115.52 108.77 115.34 105.96 115.59C104.76 115.69 103.52 115.95 102.39 116.37C99.37 117.51 95.94 120.86 93.44 122.91L83.73 130.96C80.25 133.86 76.68 136.64 73.25 139.6Z" fill="#CFE2FF" fill-opacity="1.000000" fill-rule="nonzero"/>
	<path id="Vector" d="M141.05 80.11L141.34 80.2C141.41 80.29 141.45 80.33 141.49 80.45C141.72 81.26 141.86 83.46 141.47 84.16C141.35 84.02 141.24 83.89 141.18 83.71C140.86 82.83 140.6 80.94 141.05 80.11Z" fill="#332F36" fill-opacity="1.000000" fill-rule="nonzero"/>
	<path id="Vector" d="M117.38 110.98L119.52 110.9C120.03 110.89 120.72 110.79 121.1 111.15L120.93 111.4C119.74 111.82 116.51 111.67 115.07 111.68C114.19 111.68 112.43 111.88 111.75 111.3C112.35 110.84 116.43 111 117.38 110.98Z" fill="#332F36" fill-opacity="1.000000" fill-rule="nonzero"/>
	<path id="Vector" d="M69.7 45.13C71.26 45.04 85.85 45.01 86.33 45.28C86.48 45.37 86.45 45.52 86.47 45.67C86.3 45.92 86.2 45.98 85.9 46.02C84.74 46.18 83.36 46.01 82.17 46.01C78.02 45.97 71.05 45.53 67.21 46.36C64.22 47.33 61.16 49.43 59.91 52.42C59.6 53.16 59.59 54.31 59.22 54.92C58.98 54.74 58.81 54.4 58.76 54.1C58.55 52.78 59.92 50.64 60.74 49.63C62.99 46.85 66.22 45.48 69.7 45.13Z" fill="#332F36" fill-opacity="1.000000" fill-rule="nonzero"/>
	<path id="Vector" d="M141.2 89.06C141.34 89.14 141.44 89.25 141.56 89.36C141.93 90.42 141.9 91.57 141.92 92.69C141.98 95.5 142.33 102.88 141.67 105.28C141.29 106.63 140.46 107.99 139.47 108.99C136.77 111.75 133.52 111.69 129.93 111.61C128.37 111.57 126.81 111.56 125.25 111.58C124.86 111.54 124.82 111.58 124.56 111.3L124.58 111.11C126.39 109.82 133.86 112.08 137.76 109.22C141.26 106.66 141.08 102.47 141.08 98.6L141.07 92.29C141.07 91.27 141.01 90.17 141.18 89.17C141.18 89.13 141.19 89.09 141.2 89.06Z" fill="#332F36" fill-opacity="1.000000" fill-rule="nonzero"/>
	<path id="Vector" d="M71.39 94.07C74.86 93.93 78.36 94.01 81.83 94.02C86.64 94.01 91.45 94.04 96.25 94.1C98.03 94.14 100.54 93.83 102.22 94.22C102.69 94.33 103.02 94.52 103.28 94.94C103.34 95.26 103.36 95.5 103.23 95.8C103.05 96.24 102.72 96.42 102.31 96.61C96.03 96.84 89.67 96.65 83.39 96.66C81.15 96.64 78.91 96.64 76.67 96.65C75.13 96.67 73.52 96.79 71.99 96.66C71.44 96.61 70.79 96.5 70.45 96C70.26 95.72 70.25 95.4 70.35 95.08C70.52 94.51 70.89 94.31 71.39 94.07Z" fill="#332F36" fill-opacity="1.000000" fill-rule="nonzero"/>
	<path id="Vector" d="M71.14 84.81C73.48 84.7 75.86 84.79 78.22 84.79L91.33 84.8C95.51 84.8 132.01 84.63 132.89 84.96C133.18 85.07 133.53 85.39 133.64 85.69C133.77 86.02 133.75 86.33 133.61 86.65C133.45 87.05 133.15 87.21 132.78 87.38C127.89 87.54 122.94 87.41 118.05 87.41L89.82 87.36L77.03 87.35C75.27 87.35 73.05 87.6 71.34 87.26C70.93 87.18 70.5 86.99 70.29 86.6C70.15 86.33 70.16 86.01 70.25 85.73C70.39 85.24 70.73 85.04 71.14 84.81Z" fill="#332F36" fill-opacity="1.000000" fill-rule="nonzero"/>
	<path id="Vector" d="M71.47 64.24C74.99 64.13 78.54 64.23 82.07 64.23L102.73 64.23L122.66 64.22C125.77 64.22 128.92 64.1 132.02 64.19C132.47 64.2 133.05 64.24 133.44 64.49C133.72 64.66 133.93 64.89 133.96 65.24C134 65.61 133.83 66.18 133.57 66.45C133.29 66.74 132.89 66.75 132.52 66.79L88.72 66.77C83.18 66.77 77.61 66.9 72.07 66.81C71.71 66.8 71.25 66.78 70.92 66.64C70.57 66.48 70.22 66.06 70.16 65.68C70.11 65.38 70.23 65.08 70.38 64.83C70.66 64.4 71.01 64.34 71.47 64.24Z" fill="#332F36" fill-opacity="1.000000" fill-rule="nonzero"/>
	<path id="Vector" d="M70.91 74.51C74.61 74.22 78.96 74.49 82.72 74.5L106.03 74.49L124.03 74.47C126.55 74.46 130.14 74.22 132.52 74.49C132.99 74.54 133.47 74.67 133.74 75.1C133.92 75.38 133.93 75.69 133.88 76C133.79 76.5 133.54 76.72 133.16 76.99L133.03 77C129.28 77.08 125.51 77.03 121.76 77.04L97.15 77.04L80.21 77.04C77.63 77.04 75.01 77.14 72.44 77.06C71.91 77.04 71.34 76.97 70.85 76.77C70.65 76.69 70.43 76.57 70.3 76.4C70.17 76.24 70.1 76.05 70.12 75.86C70.15 75.28 70.52 74.91 70.91 74.51Z" fill="#332F36" fill-opacity="1.000000" fill-rule="nonzero"/>
	<path id="Vector" d="M71.15 53.54C74.63 53.41 78.15 53.53 81.63 53.53L102.2 53.54L121.95 53.53C125.21 53.53 128.51 53.39 131.77 53.52C132.42 53.54 133.12 53.65 133.56 54.2C133.84 54.56 133.97 54.97 133.85 55.42C133.72 55.94 133.37 56.18 132.95 56.44L92.69 56.43L78.92 56.44C76.62 56.44 74.19 56.59 71.9 56.4C71.37 56.35 70.8 56.28 70.43 55.84C70.24 55.62 70.17 55.33 70.2 55.04C70.27 54.34 70.63 53.96 71.15 53.54Z" fill="#332F36" fill-opacity="1.000000" fill-rule="nonzero"/>
</svg>
