<svg width="17" height="17" viewBox="0 0 17 17" fill="none" xmlns="http://www.w3.org/2000/svg">
<path d="M1.41602 4.24992C1.41602 3.46752 2.05028 2.83325 2.83268 2.83325H14.166C14.9484 2.83325 15.5827 3.46751 15.5827 4.24992V12.0416C15.5827 12.824 14.9484 13.4583 14.166 13.4583H10.9178L9.00022 15.3758C8.7236 15.6524 8.2751 15.6524 7.99848 15.3758L6.08095 13.4583H2.83268C2.05028 13.4583 1.41602 12.824 1.41602 12.0416V4.24992ZM14.166 4.24992H2.83268V12.0416H6.37435C6.56221 12.0416 6.74238 12.1162 6.87522 12.2491L8.49935 13.8732L10.1235 12.2491C10.2563 12.1162 10.4365 12.0416 10.6243 12.0416H14.166V4.24992ZM4.24935 6.72909C4.24935 6.33788 4.56648 6.02075 4.95768 6.02075H12.041C12.4322 6.02075 12.7493 6.33788 12.7493 6.72909C12.7493 7.12029 12.4322 7.43742 12.041 7.43742H4.95768C4.56648 7.43742 4.24935 7.12029 4.24935 6.72909ZM4.24935 9.56242C4.24935 9.17122 4.56648 8.85408 4.95768 8.85408H9.20768C9.59888 8.85408 9.91602 9.17122 9.91602 9.56242C9.91602 9.95362 9.59888 10.2708 9.20768 10.2708H4.95768C4.56648 10.2708 4.24935 9.95362 4.24935 9.56242Z" fill="#BA75FF"/>
</svg>
