<svg width="18" height="16" viewBox="0 0 18 16" fill="none" xmlns="http://www.w3.org/2000/svg">
<path d="M9 11.125L8.29289 11.8321C8.68342 12.2226 9.31658 12.2226 9.70711 11.8321L9 11.125ZM10 6.125C10 5.57272 9.55229 5.125 9 5.125C8.44772 5.125 8 5.57272 8 6.125H10ZM11.8946 9.64461C12.2851 9.25408 12.2851 8.62092 11.8946 8.23039C11.5041 7.83987 10.8709 7.83987 10.4804 8.23039L11.8946 9.64461ZM7.51961 8.23039C7.12908 7.83987 6.49592 7.83987 6.10539 8.23039C5.71487 8.62092 5.71487 9.25408 6.10539 9.64461L7.51961 8.23039ZM17.5 13V4.875H15.5V13H17.5ZM15.2519 2.625H9.625V4.625H15.2519V2.625ZM9.625 2.625C9.6047 2.625 9.5929 2.63197 9.52384 2.57277C9.40269 2.46893 9.31074 2.34209 9.0651 2.04732C8.85481 1.79497 8.55607 1.45724 8.13088 1.19333C7.68582 0.917086 7.15094 0.75 6.5 0.75V2.75C6.78656 2.75 6.9548 2.81729 7.07615 2.89261C7.21737 2.98026 7.34831 3.11128 7.52865 3.32768C7.67364 3.50166 7.93325 3.84357 8.22226 4.09129C8.56335 4.38365 9.0203 4.625 9.625 4.625V2.625ZM6.5 0.75H2.74991V2.75H6.5V0.75ZM0.5 3V13H2.5V3H0.5ZM2.75 15.25H15.25V13.25H2.75V15.25ZM2.74991 0.75C1.50717 0.75 0.5 1.75746 0.5 3H2.5C2.5 2.86183 2.61193 2.75 2.74991 2.75V0.75ZM17.5 4.875C17.5 3.63431 16.4964 2.625 15.2519 2.625V4.625C15.388 4.625 15.5 4.73498 15.5 4.875H17.5ZM0.5 13C0.5 14.2426 1.50736 15.25 2.75 15.25V13.25C2.61193 13.25 2.5 13.1381 2.5 13H0.5ZM15.5 13C15.5 13.1381 15.3881 13.25 15.25 13.25V15.25C16.4926 15.25 17.5 14.2426 17.5 13H15.5ZM10 11.125V6.125H8V11.125H10ZM10.4804 8.23039L8.29289 10.4179L9.70711 11.8321L11.8946 9.64461L10.4804 8.23039ZM9.70711 10.4179L7.51961 8.23039L6.10539 9.64461L8.29289 11.8321L9.70711 10.4179Z" fill="#E0DCED"/>
</svg>
