<svg width="14" height="22" viewBox="0 0 14 22" fill="none" xmlns="http://www.w3.org/2000/svg">
<path d="M0 2.83333C0 1.54467 1.04467 0.5 2.33333 0.5H11.6667C12.9553 0.5 14 1.54467 14 2.83333V19.1667C14 20.4553 12.9553 21.5 11.6667 21.5H2.33333C1.04467 21.5 0 20.4553 0 19.1667V2.83333ZM11.6667 2.83333H2.33333V19.1667H11.6667V2.83333Z" fill="#6C6C6C"/>
<path d="M8.16667 16.8333C8.16667 17.4777 7.64433 18 7 18C6.35567 18 5.83333 17.4777 5.83333 16.8333C5.83333 16.189 6.35567 15.6667 7 15.6667C7.64433 15.6667 8.16667 16.189 8.16667 16.8333Z" fill="#6C6C6C"/>
</svg>
