<svg width="17" height="17" viewBox="0 0 17 17" fill="none" xmlns="http://www.w3.org/2000/svg">
<path d="M8.20194 1.27077C8.31922 1.01651 8.68058 1.01651 8.79786 1.27077L10.83 5.67634C10.8777 5.77997 10.976 5.85132 11.0893 5.86475L15.9072 6.43599C16.1852 6.46896 16.2969 6.81263 16.0913 7.00274L12.5293 10.2968C12.4455 10.3743 12.408 10.4897 12.4303 10.6016L13.3758 15.3602C13.4304 15.6349 13.138 15.8473 12.8937 15.7105L8.66017 13.3408C8.56059 13.285 8.43921 13.285 8.33963 13.3408L4.1061 15.7105C3.86177 15.8473 3.56943 15.6349 3.624 15.3602L4.56953 10.6016C4.59177 10.4897 4.55426 10.3743 4.47048 10.2968L0.908478 7.00274C0.702907 6.81263 0.814574 6.46896 1.09262 6.43599L5.91053 5.86475C6.02385 5.85132 6.12205 5.77997 6.16985 5.67634L8.20194 1.27077Z" fill="#E5E7EB" stroke="#E0DCED" stroke-width="1.5" stroke-linecap="round" stroke-linejoin="round"/>
</svg>
