<!-- icon666.com - MILLIONS vector ICONS FREE --><svg id="Layer" viewBox="0 0 24 24" fill='slategrey' xmlns="http://www.w3.org/2000/svg"><path d="m22.63 19.74a4.57164 4.57164 0 0 0 -3.3-1.38h-3.87v-1.86a7.31988 7.31988 0 0 0 2.81-4.61 1.94859 1.94859 0 0 0 1.57-1.86v-.8a1.89656 1.89656 0 0 0 -1.41-1.83v-4.35l2.4-.38v5.2a.5.5 0 1 0 1 0v-5.79a.49659.49659 0 0 0 -.44-.49l-9.31-1.12h-.13l-9.11 1.3a.488.488 0 0 0 -.43.49.50533.50533 0 0 0 .43006.5l2.74.39v4.25a1.89026 1.89026 0 0 0 -1.41006 1.83v.8a1.94853 1.94853 0 0 0 1.57 1.86 7.34352 7.34352 0 0 0 2.81 4.62v1.85h-3.88a4.67534 4.67534 0 0 0 -4.67 4.67.49511.49511 0 0 0 .5.5h23a.49511.49511 0 0 0 .5-.5 4.59676 4.59676 0 0 0 -1.37-3.29zm-10.6-18.27 5.65.68-5.68.9-5.53-.79zm5.4 1.74v2.02a15.1442 15.1442 0 0 1 -10.85 0v-1.94l5.35.76h.15zm-10.77 8.16a.48781.48781 0 0 0 -.49-.43.98874.98874 0 0 1 -1-.91v-.8a.90486.90486 0 0 1 .91-.9.49514.49514 0 0 0 .5-.5v-1.52a15.47128 15.47128 0 0 0 5.42.95 15.5275 15.5275 0 0 0 5.43-.95v1.52a.50363.50363 0 0 0 .51.5.90269.90269 0 0 1 .9.9v.8a.98874.98874 0 0 1 -1 .91.48791.48791 0 0 0 -.49005.43c-.44 3.07-2.69 5.29-5.35 5.29-2.64995 0-4.89995-2.22-5.33995-5.29zm5.34 6.29a5.72182 5.72182 0 0 0 2.46-.56v1.7a2.66871 2.66871 0 0 1 -2.46 2.26 2.66735 2.66735 0 0 1 -2.45-2.26v-1.7a5.53766 5.53766 0 0 0 2.45.56zm-10.97 4.87a3.67743 3.67743 0 0 1 3.64-3.17h4a3.57813 3.57813 0 0 0 3.33 2.7 3.58028 3.58028 0 0 0 3.34-2.7h3.99a3.70179 3.70179 0 0 1 3.64 3.17z"></path></svg>