<svg width="24" height="24" viewBox="0 0 24 24" fill="none" xmlns="http://www.w3.org/2000/svg">
<path d="M9.86901 8.42602V15.5842C9.86901 16.0035 10.3441 16.2489 10.6777 15.9932L15.3987 12.4141C15.6717 12.2096 15.6717 11.8006 15.3987 11.5961L10.6777 8.01699C10.6026 7.96001 10.5133 7.92532 10.4199 7.91679C10.3264 7.90826 10.2324 7.92624 10.1484 7.96871C10.0645 8.01117 9.99385 8.07645 9.9445 8.15722C9.89515 8.23799 9.86901 8.33107 9.86901 8.42602ZM10.8799 3.03695C10.8799 2.38249 10.2835 1.88142 9.65672 2.02458C8.52449 2.29046 7.45292 2.7404 6.50266 3.35395C5.96687 3.70164 5.886 4.47881 6.34091 4.93898C6.6644 5.26621 7.17997 5.34801 7.56412 5.10259C8.34252 4.60152 9.2018 4.23338 10.1318 4.02887C10.5766 3.92661 10.8799 3.50734 10.8799 3.03695ZM4.91552 6.39106C4.4505 5.93089 3.69231 6.00247 3.3486 6.55468C2.74205 7.51591 2.29725 8.59986 2.03441 9.74517C1.89288 10.3792 2.37812 10.9825 3.02511 10.9825C3.48002 10.9825 3.9046 10.6757 3.99559 10.2258C4.19777 9.29523 4.57181 8.4158 5.05705 7.63863C5.31989 7.23981 5.23901 6.71829 4.91552 6.39106ZM3.02511 13.0277C2.37812 13.0277 1.88277 13.631 2.0243 14.265C2.28714 15.4103 2.73194 16.4841 3.33849 17.4555C3.6822 18.0077 4.4505 18.0793 4.90541 17.6191C5.2289 17.2919 5.30978 16.7704 5.05705 16.3818C4.5617 15.6046 4.19777 14.7354 3.99559 13.7946C3.9046 13.3345 3.49013 13.0277 3.02511 13.0277ZM6.50266 20.646C7.46303 21.2596 8.52449 21.7095 9.65672 21.9754C10.2835 22.1186 10.8799 21.6175 10.8799 20.9733C10.8799 20.5131 10.5766 20.0836 10.1318 19.9916C9.22462 19.7851 8.3594 19.4218 7.57423 18.9178C7.38265 18.7993 7.15664 18.7509 6.934 18.7806C6.71135 18.8104 6.50556 18.9166 6.35102 19.0815C6.2419 19.1856 6.15781 19.3137 6.10519 19.4558C6.05257 19.5979 6.03283 19.7503 6.04747 19.9014C6.0621 20.0524 6.11074 20.198 6.18964 20.3271C6.26854 20.4562 6.37562 20.5653 6.50266 20.646ZM22 12.0051C22 16.842 18.664 20.9119 14.1856 21.9652C13.5589 22.1186 12.9523 21.6175 12.9523 20.963C12.9523 20.4926 13.2657 20.0836 13.7105 19.9711C17.2992 19.1326 19.9782 15.8807 19.9782 12.0051C19.9782 8.12947 17.2992 4.87762 13.7105 4.03909C13.2657 3.93683 12.9523 3.51757 12.9523 3.04718C12.9523 2.39271 13.5589 1.89164 14.1856 2.04503C18.664 3.0983 22 7.16823 22 12.0051Z" fill="#357EEB"/>
</svg>
