<svg width="42" height="42" viewBox="0 0 42 42" fill="none" xmlns="http://www.w3.org/2000/svg">
<path d="M25.5 20.134C26.1667 20.5189 26.1667 21.4811 25.5 21.866L19.5 25.3301C18.8333 25.715 18 25.2339 18 24.4641V17.5359C18 16.7661 18.8333 16.285 19.5 16.6699L25.5 20.134Z" fill="#4D5766"/>
<path d="M28.9959 31.9017C29.3272 32.3436 29.2392 32.9737 28.7748 33.2726C26.0045 35.0557 22.674 35.8187 19.3312 35.4165C15.6511 34.9738 12.2264 33.1515 9.74026 30.3131C7.25411 27.4747 5.8892 23.8289 5.91775 20.1026C5.94629 16.3764 7.36619 12.8437 9.89425 10.2091C12.4223 7.57451 15.8727 6.03161 19.5574 5.88814C23.242 5.74468 26.89 7.01119 29.7739 9.43509C32.6578 11.859 34.5655 15.2621 35.1166 18.9658C35.6164 22.3245 34.9672 25.7065 33.2948 28.5567C33.0114 29.0397 32.3736 29.149 31.9186 28.8225L31.4438 28.4818C31.0014 28.1643 30.8985 27.5531 31.1686 27.0803C32.5011 24.7478 33.0136 21.9973 32.6071 19.2654C32.1512 16.202 30.5732 13.3872 28.1879 11.3823C25.8026 9.37738 22.7852 8.3298 19.7375 8.44847C16.6898 8.56713 13.8358 9.84332 11.7448 12.0225C9.6537 14.2017 8.47925 17.1237 8.45565 20.2058C8.43204 23.2879 9.561 26.3035 11.6174 28.6512C13.6738 30.9989 16.5064 32.5062 19.5504 32.8724C22.2568 33.198 24.9535 32.6003 27.2154 31.1916C27.6842 30.8997 28.309 30.9853 28.6403 31.4272L28.9959 31.9017Z" fill="#4D5766"/>
</svg>
