<svg width="25" height="24" viewBox="0 0 25 24" fill="none" xmlns="http://www.w3.org/2000/svg" >
  <path d="M19.5698 19.8211C19.3798 19.8211 19.1898 19.751 19.0398 19.601C18.7498 19.311 18.7498 18.831 19.0398 18.541C22.6498 14.931 22.6498 9.06109 19.0398 5.46109C18.7498 5.17109 18.7498 4.69109 19.0398 4.40109C19.3298 4.11109 19.8098 4.11109 20.0998 4.40109C24.2898 8.59109 24.2898 15.411 20.0998 19.601C19.9498 19.751 19.7598 19.8211 19.5698 19.8211Z" fill="#357EEB"/>
  <path d="M5.42982 19.8211C5.23982 19.8211 5.04982 19.751 4.89982 19.601C0.709824 15.411 0.709824 8.59109 4.89982 4.40109C5.18982 4.11109 5.66982 4.11109 5.95982 4.40109C6.24982 4.69109 6.24982 5.17109 5.95982 5.46109C2.34982 9.07109 2.34982 14.941 5.95982 18.541C6.24982 18.831 6.24982 19.311 5.95982 19.601C5.80982 19.751 5.61982 19.8211 5.42982 19.8211Z" fill="#357EEB"/>
  <path d="M12.4998 22.7119C11.2498 22.7019 10.0598 22.5019 8.94978 22.1119C8.55978 21.9719 8.34976 21.5419 8.48976 21.1519C8.62976 20.7619 9.04978 20.5519 9.44978 20.6919C10.4098 21.0219 11.4298 21.2019 12.5098 21.2019C13.5798 21.2019 14.6098 21.0219 15.5598 20.6919C15.9498 20.5619 16.3798 20.7619 16.5198 21.1519C16.6598 21.5419 16.4498 21.9719 16.0598 22.1119C14.9398 22.5019 13.7498 22.7119 12.4998 22.7119Z" fill="#357EEB"/>
  <path d="M15.8 3.33911C15.72 3.33911 15.63 3.32907 15.55 3.29907C14.59 2.96907 13.56 2.78906 12.49 2.78906C11.42 2.78906 10.4 2.96907 9.43999 3.29907C9.04999 3.42907 8.61999 3.22911 8.47999 2.83911C8.33999 2.44911 8.54999 2.01909 8.93999 1.87909C10.05 1.48909 11.25 1.28906 12.49 1.28906C13.73 1.28906 14.93 1.48909 16.04 1.87909C16.43 2.01909 16.64 2.44911 16.5 2.83911C16.4 3.14911 16.11 3.33911 15.8 3.33911Z" fill="#357EEB"/>
  <path d="M11.0602 16.761C10.6202 16.761 10.2002 16.651 9.83023 16.441C8.97023 15.941 8.49023 14.961 8.49023 13.681V10.331C8.49023 9.05101 8.96023 8.071 9.83023 7.571C10.6902 7.071 11.7803 7.15097 12.8903 7.79097L15.7903 9.46102C16.9003 10.101 17.5103 11.001 17.5103 12.001C17.5103 13.001 16.9003 13.901 15.7903 14.541L12.8903 16.211C12.2603 16.581 11.6302 16.761 11.0602 16.761ZM11.0602 8.74098C10.8802 8.74098 10.7102 8.78098 10.5802 8.86098C10.2102 9.08098 9.99023 9.611 9.99023 10.321V13.671C9.99023 14.381 10.2002 14.921 10.5802 15.131C10.9502 15.341 11.5203 15.261 12.1403 14.911L15.0403 13.241C15.6603 12.881 16.0103 12.431 16.0103 12.001C16.0103 11.571 15.6603 11.121 15.0403 10.761L12.1403 9.09102C11.7403 8.86102 11.3702 8.74098 11.0602 8.74098Z" fill="#357EEB"/>
</svg>