<svg width="24" height="24" viewBox="0 0 24 24" fill="none" xmlns="http://www.w3.org/2000/svg">
<path d="M12.0098 17.0013C11.1598 17.0013 10.2998 16.7813 9.62982 16.3513L3.60982 12.4213C2.48982 11.6913 1.81982 10.4613 1.81982 9.12126C1.81982 7.78126 2.48982 6.55126 3.60982 5.82126L9.63982 1.90126C10.9798 1.03126 13.0698 1.03126 14.3998 1.91126L20.3898 5.84126C21.4998 6.57126 22.1698 7.80126 22.1698 9.13126C22.1698 10.4613 21.4998 11.6913 20.3898 12.4213L14.3998 16.3513C13.7298 16.7913 12.8698 17.0013 12.0098 17.0013ZM12.0098 2.75126C11.4398 2.75126 10.8698 2.88126 10.4598 3.16126L4.43982 7.08126C3.73982 7.54126 3.32982 8.28126 3.32982 9.12126C3.32982 9.96126 3.72982 10.7013 4.43982 11.1613L10.4598 15.0913C11.2898 15.6313 12.7498 15.6313 13.5798 15.0913L19.5698 11.1613C20.2698 10.7013 20.6698 9.96126 20.6698 9.12126C20.6698 8.28126 20.2698 7.54126 19.5698 7.08126L13.5798 3.15126C13.1598 2.89126 12.5898 2.75126 12.0098 2.75126Z" fill="#357EEB"/>
<path d="M12.0002 22.7481C11.5602 22.7481 11.1102 22.6881 10.7502 22.5681L7.56018 21.5081C6.05018 21.0081 4.86018 19.3581 4.87018 17.7681L4.88018 13.0781C4.88018 12.6681 5.22018 12.3281 5.63018 12.3281C6.04018 12.3281 6.38018 12.6681 6.38018 13.0781L6.37018 17.7681C6.37018 18.7081 7.15018 19.7881 8.04018 20.0881L11.2302 21.1481C11.6302 21.2781 12.3702 21.2781 12.7702 21.1481L15.9602 20.0881C16.8502 19.7881 17.6302 18.7081 17.6302 17.7781V13.1381C17.6302 12.7281 17.9702 12.3881 18.3802 12.3881C18.7902 12.3881 19.1302 12.7281 19.1302 13.1381V17.7781C19.1302 19.3681 17.9502 21.0081 16.4402 21.5181L13.2502 22.5781C12.8902 22.6881 12.4402 22.7481 12.0002 22.7481Z" fill="#357EEB"/>
<path d="M21.3999 15.75C20.9899 15.75 20.6499 15.41 20.6499 15V9C20.6499 8.59 20.9899 8.25 21.3999 8.25C21.8099 8.25 22.1499 8.59 22.1499 9V15C22.1499 15.41 21.8099 15.75 21.3999 15.75Z" fill="#357EEB"/>
</svg>
