<svg width="39" height="33" viewBox="0 0 39 33" fill="none" xmlns="http://www.w3.org/2000/svg">
<path fill-rule="evenodd" clip-rule="evenodd" d="M0.708496 5.396C0.708496 2.56554 3.00304 0.270996 5.8335 0.270996H30.6043C33.4348 0.270996 35.7293 2.56554 35.7293 5.396V12.3005H32.3127V5.396C32.3127 4.45251 31.5478 3.68766 30.6043 3.68766H5.8335C4.89001 3.68766 4.12516 4.45251 4.12516 5.396V20.771C4.12516 21.7145 4.89001 22.4793 5.8335 22.4793H15.2293V25.896H5.8335C3.00304 25.896 0.708496 23.6015 0.708496 20.771V5.396Z" fill="#E0DCED"/>
<path fill-rule="evenodd" clip-rule="evenodd" d="M34.021 10.5212H3.271V7.10449H34.021V10.5212Z" fill="#E0DCED"/>
<path fill-rule="evenodd" clip-rule="evenodd" d="M9.25033 14.7917C8.77858 14.7917 8.39616 15.1741 8.39616 15.6458C8.39616 16.1176 8.77858 16.5 9.25033 16.5C9.72207 16.5 10.1045 16.1176 10.1045 15.6458C10.1045 15.1741 9.72207 14.7917 9.25033 14.7917ZM4.97949 15.6458C4.97949 13.2871 6.89161 11.375 9.25033 11.375C11.609 11.375 13.5212 13.2871 13.5212 15.6458C13.5212 18.0045 11.609 19.9167 9.25033 19.9167C6.89161 19.9167 4.97949 18.0045 4.97949 15.6458Z" fill="#E0DCED"/>
<path fill-rule="evenodd" clip-rule="evenodd" d="M14.3753 14.7917C13.9036 14.7917 13.5212 15.1741 13.5212 15.6458C13.5212 16.1176 13.9036 16.5 14.3753 16.5C14.8471 16.5 15.2295 16.1176 15.2295 15.6458C15.2295 15.1741 14.8471 14.7917 14.3753 14.7917ZM10.1045 15.6458C10.1045 13.2871 12.0166 11.375 14.3753 11.375C16.734 11.375 18.6462 13.2871 18.6462 15.6458C18.6462 18.0045 16.734 19.9167 14.3753 19.9167C12.0166 19.9167 10.1045 18.0045 10.1045 15.6458Z" fill="#E0DCED"/>
<path fill-rule="evenodd" clip-rule="evenodd" d="M28.042 15.6462C24.268 15.6462 21.2087 18.7055 21.2087 22.4795C21.2087 26.2534 24.268 29.3128 28.042 29.3128C31.8159 29.3128 34.8753 26.2534 34.8753 22.4795C34.8753 18.7055 31.8159 15.6462 28.042 15.6462ZM17.792 22.4795C17.792 16.8186 22.3811 12.2295 28.042 12.2295C33.7029 12.2295 38.292 16.8186 38.292 22.4795C38.292 28.1404 33.7029 32.7295 28.042 32.7295C22.3811 32.7295 17.792 28.1404 17.792 22.4795Z" fill="#E0DCED"/>
<path fill-rule="evenodd" clip-rule="evenodd" d="M32.7707 20.1565L28.4998 25.2815C28.1926 25.6503 27.7444 25.8727 27.2649 25.8945C26.7854 25.9162 26.3189 25.7353 25.9795 25.3959L23.417 22.8334L25.8329 20.4174L27.0727 21.6571L30.1459 17.9692L32.7707 20.1565Z" fill="#E0DCED"/>
</svg>
