<svg width="36" height="36" viewBox="0 0 36 36" fill="none" xmlns="http://www.w3.org/2000/svg">
<path d="M35.5 19.9931L35.5 19.9878C35.4603 16.226 33.0081 12.8866 29.5364 11.7299V11.3183C30.8611 10.4209 31.705 8.8977 31.705 7.25287V5.37701C31.705 2.68221 29.5492 0.5 26.8679 0.5C24.1923 0.5 21.992 2.67641 21.992 5.37701V7.25287C21.992 8.85173 22.7597 10.3421 24.0831 11.24V11.7269C23.7605 11.8336 23.4485 11.9633 23.1416 12.1153C22.117 10.2099 20.1086 8.9023 17.8064 8.9023C15.5293 8.9023 13.5843 10.1545 12.5433 12.0296C12.2916 11.9171 12.0294 11.8084 11.762 11.7209V11.3183C13.0866 10.4209 13.9305 8.8977 13.9305 7.25287V5.37701C13.9305 2.68221 11.7748 0.5 9.09339 0.5C6.41204 0.5 4.25626 2.6822 4.25626 5.37701V7.25287C4.25626 8.85173 5.02392 10.3421 6.34738 11.24V11.7322C2.84463 12.9189 0.5 16.1886 0.5 19.954C0.5 20.5385 0.990622 21.0402 1.58087 21.0402H12.8908C13.3333 21.6746 13.9044 22.2181 14.5569 22.6518V23.7601C9.92738 25.19 6.81207 29.4787 6.81207 34.4138C6.81207 34.9983 7.30269 35.5 7.89294 35.5H27.836C28.4262 35.5 28.9169 34.9983 28.9169 34.4138C28.9169 29.5125 25.651 25.1552 21.0558 23.7581V22.7366C21.7458 22.2969 22.327 21.7438 22.7964 21.0793H34.4191C35.0094 21.0793 35.5 20.5776 35.5 19.9931ZM2.72371 18.9069C3.13705 16.3259 5.06408 14.2529 7.65922 13.6407C7.66718 13.6388 7.67509 13.6367 7.68295 13.6344C8.14271 13.5019 8.50911 13.0895 8.50911 12.5678V10.6138C8.50911 10.2238 8.31202 9.82603 7.90979 9.65185C6.99624 9.18417 6.418 8.26326 6.418 7.25287V5.37701C6.418 3.89021 7.63124 2.67241 9.09339 2.67241C10.5555 2.67241 11.7688 3.89021 11.7688 5.37701V7.25287C11.7688 8.2596 11.1555 9.22137 10.2378 9.69116C9.8528 9.85917 9.60023 10.2795 9.60023 10.692V12.5678C9.60023 13.0895 9.96662 13.5019 10.4264 13.6344C10.434 13.6366 10.4417 13.6387 10.4494 13.6405C10.9477 13.7588 11.4209 13.9245 11.8698 14.1374C11.8282 14.438 11.8075 14.744 11.8075 15.069V17.5701C11.8075 18.0231 11.863 18.4727 11.9604 18.9069H2.72371ZM19.6815 25.6712C19.6919 25.6742 19.7025 25.6769 19.7131 25.6792C23.4202 26.491 26.2002 29.633 26.667 33.3667H9.01786C9.44465 29.641 12.153 26.5656 15.8654 25.7173C15.8745 25.7152 15.8835 25.7129 15.8925 25.7103C16.3523 25.5777 16.7187 25.1654 16.7187 24.6437V22.0644C16.7187 21.6734 16.5206 21.2746 16.1163 21.1011C14.7884 20.442 13.9692 19.0981 13.9692 17.6092V15.108C13.9692 12.9207 15.7218 11.192 17.8451 11.192C19.9656 11.192 21.721 12.9569 21.721 15.108V17.5701C21.721 19.0551 20.867 20.439 19.4988 21.1001C19.1105 21.2664 18.8554 21.6889 18.8554 22.1034V24.6046C18.8554 25.1263 19.2217 25.5387 19.6815 25.6712ZM25.3896 13.681C25.3994 13.6788 25.4091 13.6763 25.4187 13.6735C25.8785 13.541 26.2449 13.1286 26.2449 12.6069V10.6529C26.2449 10.2629 26.0478 9.86512 25.6456 9.69094C24.732 9.22326 24.1538 8.30236 24.1538 7.29195V5.41609C24.1538 3.92929 25.367 2.71149 26.8292 2.71149C28.2913 2.71149 29.5046 3.92929 29.5046 5.41609V7.29195C29.5046 8.29868 28.8913 9.26044 27.9736 9.73024C27.5886 9.89824 27.336 10.3186 27.336 10.731V12.6069C27.336 13.1286 27.7024 13.541 28.1622 13.6735C28.172 13.6764 28.1819 13.6789 28.1919 13.6811C30.7747 14.2566 32.7373 16.3857 33.1899 18.9439L23.7292 18.9093C23.827 18.4744 23.8827 18.024 23.8827 17.5701V15.069C23.8827 14.8118 23.8639 14.5316 23.8243 14.2658C24.3156 13.9974 24.8513 13.8017 25.3896 13.681Z" fill="#E0DCED" stroke="#E0DCED" stroke-linecap="round" stroke-linejoin="round"/>
</svg>
